<mxfile host="app.diagrams.net" modified="2023-07-20T08:54:05.793Z" agent="Mozilla/5.0 (Windows NT 10.0; Win64; x64; rv:109.0) Gecko/20100101 Firefox/115.0" etag="jv-EElmpUi1RD7QiZUIi" version="21.6.2" type="github">
  <diagram name="Page-1" id="RHescBK341-IPdCSfimc">
    <mxGraphModel dx="1434" dy="726" grid="1" gridSize="10" guides="1" tooltips="1" connect="1" arrows="1" fold="1" page="1" pageScale="1" pageWidth="2339" pageHeight="3300" math="0" shadow="0">
      <root>
        <mxCell id="0" />
        <mxCell id="1" parent="0" />
        <mxCell id="nXIX7s5pYzxYk5EkUw8A-21" value="" style="rounded=0;whiteSpace=wrap;html=1;fillColor=#647687;fontColor=#ffffff;strokeColor=#314354;" vertex="1" parent="1">
          <mxGeometry x="30" y="10" width="1340" height="320" as="geometry" />
        </mxCell>
        <mxCell id="nXIX7s5pYzxYk5EkUw8A-20" value="" style="rounded=0;whiteSpace=wrap;html=1;fillColor=#647687;fontColor=#ffffff;strokeColor=#314354;" vertex="1" parent="1">
          <mxGeometry x="38.79" y="350" width="1201.21" height="510" as="geometry" />
        </mxCell>
        <mxCell id="nXIX7s5pYzxYk5EkUw8A-1" value="Azure " style="ellipse;whiteSpace=wrap;html=1;" vertex="1" parent="1">
          <mxGeometry x="50" y="160" width="120" height="80" as="geometry" />
        </mxCell>
        <mxCell id="nXIX7s5pYzxYk5EkUw8A-2" value="Identity" style="ellipse;whiteSpace=wrap;html=1;" vertex="1" parent="1">
          <mxGeometry x="1210" y="160" width="120" height="80" as="geometry" />
        </mxCell>
        <mxCell id="nXIX7s5pYzxYk5EkUw8A-4" style="edgeStyle=orthogonalEdgeStyle;rounded=0;orthogonalLoop=1;jettySize=auto;html=1;entryX=1;entryY=0.5;entryDx=0;entryDy=0;startArrow=classic;startFill=1;" edge="1" parent="1" source="nXIX7s5pYzxYk5EkUw8A-3" target="nXIX7s5pYzxYk5EkUw8A-1">
          <mxGeometry relative="1" as="geometry">
            <Array as="points">
              <mxPoint x="450" y="200" />
              <mxPoint x="450" y="200" />
            </Array>
          </mxGeometry>
        </mxCell>
        <mxCell id="nXIX7s5pYzxYk5EkUw8A-6" style="edgeStyle=orthogonalEdgeStyle;rounded=0;orthogonalLoop=1;jettySize=auto;html=1;entryX=0;entryY=0.5;entryDx=0;entryDy=0;startArrow=classic;startFill=1;exitX=1;exitY=0.5;exitDx=0;exitDy=0;" edge="1" parent="1" source="nXIX7s5pYzxYk5EkUw8A-3" target="nXIX7s5pYzxYk5EkUw8A-2">
          <mxGeometry relative="1" as="geometry">
            <Array as="points">
              <mxPoint x="750" y="200" />
              <mxPoint x="750" y="200" />
            </Array>
          </mxGeometry>
        </mxCell>
        <mxCell id="nXIX7s5pYzxYk5EkUw8A-3" value="Frontend" style="rounded=1;whiteSpace=wrap;html=1;" vertex="1" parent="1">
          <mxGeometry x="500" y="125" width="190" height="150" as="geometry" />
        </mxCell>
        <mxCell id="nXIX7s5pYzxYk5EkUw8A-5" value="&lt;div&gt;Login through Azure B2C&lt;/div&gt;&lt;div&gt;and get token contain claims &lt;br&gt;the most important claim is &quot;Email&quot;&lt;br&gt;&lt;/div&gt;" style="text;html=1;strokeColor=none;fillColor=none;align=center;verticalAlign=middle;whiteSpace=wrap;rounded=0;" vertex="1" parent="1">
          <mxGeometry x="230" y="100" width="230" height="100" as="geometry" />
        </mxCell>
        <mxCell id="nXIX7s5pYzxYk5EkUw8A-8" value="Front-end Authenticate &quot;handleAuthentication&quot; endpoint using azure token&amp;nbsp; to exchange the token where the endpoint use the email claim in Azure token to get more data about the logged in user and create new token contains extra claims about the logged in user " style="text;html=1;strokeColor=none;fillColor=none;align=center;verticalAlign=middle;whiteSpace=wrap;rounded=0;" vertex="1" parent="1">
          <mxGeometry x="690" y="150" width="520" height="30" as="geometry" />
        </mxCell>
        <mxCell id="nXIX7s5pYzxYk5EkUw8A-9" value="the end point response by token and refresh token with extra claims information" style="text;html=1;strokeColor=none;fillColor=none;align=center;verticalAlign=middle;whiteSpace=wrap;rounded=0;" vertex="1" parent="1">
          <mxGeometry x="740" y="210" width="440" height="30" as="geometry" />
        </mxCell>
        <mxCell id="nXIX7s5pYzxYk5EkUw8A-10" value="1" style="text;html=1;strokeColor=#b85450;fillColor=#f8cecc;align=center;verticalAlign=middle;whiteSpace=wrap;rounded=0;fontSize=41;" vertex="1" parent="1">
          <mxGeometry x="310" y="220" width="60" height="30" as="geometry" />
        </mxCell>
        <mxCell id="nXIX7s5pYzxYk5EkUw8A-12" value="2" style="text;html=1;strokeColor=#b85450;fillColor=#f8cecc;align=center;verticalAlign=middle;whiteSpace=wrap;rounded=0;fontSize=41;" vertex="1" parent="1">
          <mxGeometry x="930" y="250" width="60" height="30" as="geometry" />
        </mxCell>
        <mxCell id="nXIX7s5pYzxYk5EkUw8A-13" value="in case we&amp;nbsp; didn&#39;t use identity service and dependent on the token from azure the university must maintain each user account on azure with all needed claims to be added to the token and update it when any claim updated in the system " style="text;html=1;strokeColor=none;fillColor=none;align=center;verticalAlign=middle;whiteSpace=wrap;rounded=0;" vertex="1" parent="1">
          <mxGeometry x="260" y="400" width="760" height="30" as="geometry" />
        </mxCell>
        <mxCell id="nXIX7s5pYzxYk5EkUw8A-14" value="Case 1" style="text;html=1;strokeColor=#6c8ebf;fillColor=#dae8fc;align=center;verticalAlign=middle;whiteSpace=wrap;rounded=0;fontSize=21;" vertex="1" parent="1">
          <mxGeometry x="60" y="30" width="120" height="40" as="geometry" />
        </mxCell>
        <mxCell id="nXIX7s5pYzxYk5EkUw8A-15" value="Case 2" style="text;html=1;strokeColor=#6c8ebf;fillColor=#dae8fc;align=center;verticalAlign=middle;whiteSpace=wrap;rounded=0;fontSize=21;" vertex="1" parent="1">
          <mxGeometry x="80" y="370" width="120" height="40" as="geometry" />
        </mxCell>
        <mxCell id="nXIX7s5pYzxYk5EkUw8A-18" value="" style="rounded=0;whiteSpace=wrap;html=1;" vertex="1" parent="1">
          <mxGeometry x="75" y="450" width="1130" height="380" as="geometry" />
        </mxCell>
        <mxCell id="nXIX7s5pYzxYk5EkUw8A-16" value="" style="shape=image;verticalLabelPosition=bottom;labelBackgroundColor=default;verticalAlign=top;aspect=fixed;imageAspect=0;image=data:image/png,iVBORw0KGgoAAAANSUhEUgAAAx4AAAEACAYAAAA9eaD8AAAgAElEQVR4Xuydd1wUVxeGX1lQaVIEwQKiWFHsvfdeYyyxxE8TW0yiicZYErsxscSSWGJii11j7IolGrvYK/YuighIX2nmOzPbZpddWGQRdjnzR35x984tz7mz3HfuOefm+Y8u8MUEmAAT0EPgZOA5+Hh7o4CjPfNhAkyACTABJsAEmECmCORh4ZEpfnwzE7BoAifPkvDwYuFh0UbmwTEBJsAEmAATeE8EWHi8J9DcDBMwRwIsPMzRatxnJsAEmAATYAI5kwALj5xpF+4VE8gRBFh45AgzcCeYABNgAkyACVgEARYeFmFGHgQTyBoCLDyyhivXygSYABNgAkwgNxJg4ZEbrc5jZgJGEmDhYSQoLsYEmAATYAJMgAmkS4CFR7qIuAATyL0EWHjkXtvzyJkAE2ACTIAJmJoACw9TE+X6mIAFEWDhYUHG5KEwASbABJgAE8hmAiw8stkA3DwTyMkEWHjkZOtw35gAE2ACTIAJmBcBFh7mZS/uLRN4rwRYeLxX3NwYE2ACTIAJMAGLJsDCw6LNy4NjApkjwMIjc/z4bibABJgAE2ACTEBDgIUHzwYmwAQMEmDhwZODCTABJsAEmAATMBUBFh6mIsn1MAELJMDCwwKNykNiAkyACTABJpBNBFh4ZBN4bpYJmAMBFh7mYCXuIxNgAkyACTAB8yDAwsM87MS9ZALZQoCFR7Zg50aZABNgAkyACVgkARYeFmlWHhQTMA0BFh6m4ci1MAEmwASYABNgAgALD54FTIAJGCTAwoMnBxNgAkyACTABJmAqAiw8TEWS62ECFkiAhYcFGpWHxASYABNgAkwgmwiw8Mgm8NwsEzAHAiw8zMFK3EcmwASYABNgAuZBgIWHediJe8kEsoUAC49swc6NMgEmwASYABOwSAIsPCzSrCYYlPw29m+7BFTrjNblbE1QIVdhjgRYeJij1cy7z9dv3oZvieKwzZ/fvAdiAb1nW1iAEZVDYFtaji3NfSQmFx5hF3Zh/+04kYt92ZboUr2guTMyff+TonHtyCqs2xyER8+C8aZYUbja+6BZn/7oUasw8pq+xQzW+BwLWtXDD9fpNlllTDqzA58VzWAVXPydCZw9fwkV/MrC3s4uzTri4uOxN+AfdP+g4zu3ld6NLDzSI8Tfm5KAsDj6c/1fKFLYA0MG9mXxYUq4GayLbZFBYDm4ONsyBxsnF3bNxMLjJqbVbYtfHytJlv8Kgf+MgE8uBGtoyGHHJqJbvz9xK0lPieJDcfj0WFTIdl7Psbh9Q0y5lELCow5mXd+I/k6KTp1dPBRLLwKFO07EjM5Fsr2nltYBQXTMnr8YPt5emPzdaIPiQxAdk6fPwaMnT9G9a0f06NYpS1Cw8MgSrFypAQLyN2+wdPkavAgJZfGRwVny6O5zHH1jj87+TnDO4L36iucoW8S+xqoToTgUa402db3Rt6iNCUaYe6rIUbY0Q+xhdy/gzmugoG91lM2h79Ljn13H5ecJgEsJ1CvtmqMpm1Z4nJ+ISp3+xEv1kL3x+aFj+N4vRzN4b51LvPIjmnZYinu0nhcum0L+aFCjKMT32hH3EShvj837RuYA4UH9kT/FiQOXgaot0MBb5WqlEZbFP9uHs9+Vf2/scktDgqCYNH02Hj95ZlB8SEVHce9imPLdN+nujrwrP3MSHpHnbqL6v3Fo3KoaVlS2etch58j75CHB+G53KLa/Vvx42Dra4tM2FTDSJ+u7u2PDWfR75IRt48qiedY3hyxZJF0j960A4OdvyqKzdAwvH6PFn6/g26YGfvN/D4PLwiY2rTmDQeHuODnSF6YaSlbY4taRa2h/Pm9qWxhkE4nRc25huZU92ntao7CfD2ZXyanuv6H4ePoDHC5fCs+6uWWhtTNedVbY8sXhlVh2NhIo2QqTemhemao+d6nVB182K5TxzmbqjlAc/G0dTpFQsK/UDaPbeWvVFn92E2Yffk6flUDnsV1QxYi2zq6egb/uAaW7TMCg6kbckA1Fgvf+igWno4BSHTCrf+Vs6IHxTZpUeJybUAsdVoYCFeug3oMzOBUPeAzYiqsztC0lDw9GuJxephcohMIFkhF+8QQCboVTrwuiUocm8C9AbzPkEbh4/ABuhtHHbv7o0LQCnKQvOchd6cW1QBwW7xOugijfugGqFVT9IMkR/iwC1IzeS9G2pkJ5+GUc238LQnOw90ZDcjVSr7fFGpIQRW/hYpLpj37BoihoS/Xr67dB9o8xt3ljzLopFHBEvRk7sGlAybTdqmiMDwKP4vQTheuaW6V2aFqxgJ57qG/X/8XuqxKGNjF4JkC2dkQhT8U92tyBqIfncOT0E8TBHsUbSAWGpiyNFgWLudJ/hQo2o2eZMfiX1j7F+q3Gji9K0YeS78UyErvpqdf4qZl7S6YlPt6n6BAsYD7CIwnLV1zE6GfU6WLF8HBgUZO89c0Js/Da8ato+48c1oWc8HHlAvClhznkxWu8LVcB48pkfQ8fXbqH70IKYF7bQnAXmrsUhAJH85l0gas7CpMvkoQ+7wB+n+yHntLGnt9HpWWvULZzHWypmvUss7KFrBAe4k+6iXehrgVcQv0z+VLbwhCcyCdoOP85PHOgjcSxvPJEdL/Cyt7HYdPOJ7hesiSmVcyXleZ+p7pNbUtDi13V5y51B2JcOxWbd+ryO9z0AjvnrsAJ0kOwKYkPv/kItdQ69Qm2/rQGgbFCtfTdNPrOiBZyjfAIPoiZS8/idRaLFxMKjzMY7d8La2jt6z/uKL6+0RYDdgrK42PsvjQVNSXG/etjHww/BNjV7ozmL/Zi1xOJ35FNWXTs6ozAbYEIlXws8/0cB4+PVuwG3JmPxs3n45Zy50BTtQ3KjdqJo6OEN/Hb0LfIVzhoYFJp3tiHY+/wDvh02wtoVSdzQdvZe7GslyrmQvO2v3zPoSh6ZDkOaXWwJEbuP4xxhnZ37sxB/Sa/gkQzYIQLWuKVxejUYxYuxWgPwKbcUGzfMxY11A+Snv5T38v55MGt+xGAxH1Lzb3xJ+gVth6rb8glY3ZE26UnsKqTwqdKVRZohkXPV6DST83QcMEDPTQV339I34TtG4GWg3fguTZIuLSZicO/9UAR3h034idOUUSf+BA+V7lXZfVOh6qjZiM8xMVJOJq2ccTGgDcY/W1FDNb3UjQpAU9DYvHAxgG1PPORbH6LqKh4XA5OQLGSLvDNr9kpSaQF18vIOARGyFDb2xFeDjIj7aeps1BREgr0xkRf3JY8Vo4bT+gvoLcrahiqO5zGteg5omqUx/l2ToZfVIjjotgxCOOyhZvOsyaM5eozesXgbrg/SIOFdODP/r0Cv8sOeoRHCsJex+DsC/obkCFe+rGadJGUAeEhj43F2ScJKFTYAT4uwhxRXUaMLyUJz6PfwkXrPu3xqev3dkZ5XbunY0ek8b0+4WF4LEZOZWUxU9rCoPAQ2L2KxuXYfKhfwgFOqsfNoDg07jmDHpsIz8N9eh7i6HmoJD6fGtvWKu2s9fwIz2nY61gEJtiiXjE7FJH8RgRsPoceCcUkwsPAXFbNKX02N8YU6c0LY+rIAltmRHgkxj7D7aCXiLH3gF/JwnC21fyeJsvD8ODWY4Tl9YB/mWJwVP5+JcZGIjbJBg4u9sibFIcI+rkU/t9K/hw3aTlSqlwRSKpRjlAiPOgTj0bDMKqlwvUo/sIGzNj+gF4jC5eO8KD6H925hedx9iji5wsfB82PqFR4DPBT9DXGoST8S7tofpNT3iAyOgxP79IYbZypbz4opOxcsjwa0W/oNW2BArBJ1LlfuC/4EYJCAC//0vDSGlAK5K/ou4eRyOtZDmW9iYPE1iqmoO/sr6/EUsmOx7u0mXxuHcbvfAT4NMPYD8rDKr+jxk5CP18F42mMA7yKuWnZLwPTTyxqOuFxajz8PlyPcCjcq769ORA+Xxymx7kQBu48i5k1NF3TLGplsC1RHc3KuyL+/kkcua1cZctsUbhCTVQrBjw8fRJBonuBK/r9dRFz6tH/Bv2Ixl3/gUtDX5SrQDskOIc//tiuKGfXGWvvLUBL7MMXlb7DYQmR5LhIRMoVq+JSIw7i5LelcYMW1C1pQZ0CGVzK10e9EtI2vTFk3z+YWlmYgNL4Ff39Lth3I4Jm1dFvg60D4UE8hCtdN6Wo3fhfrc+xT8Bh44W6LSvANeIGDpx5Kj4wdo1n4dyGHhA2chMPjkCF/jsQLRT1bkIBmdUQ9+9ebD9+CyI2PcJD6IPazevlFQRcUIqu2lNwe1t/8U1xKuGx8AN0XXoTryMVYkVm6wwXe+GHowl+ujoXHYJIWLUmYSWEhbiUQ6O6PgQyEMduvhbLFx+8EycmV8oBgfMZfUSyr7yu+BB6IsR0vC/RIbRnLsLj4T+XUfmWM64Md8Yicss4WdUfp5vbK433At0nP8GDonYID5VDRr/cUXFvkd/bBc2io7E/IQ/yJ6fQ85IX33xaFd9T6NKtQ5dR91QSCtjmgfXb/xAh/w9lG5TDmRYFoFg4kS+t1lVA8QY3JRbL1t7Ct4//E+99I09GiqsHDg4rgar0uIj3XrdGF6cE7KftVQda7L+iqhq2qYw9dVK/IRUX+f/KMMeQkKI+vLpzDx03h+GezBpOQn1JVujQ0R/rqyrqe3XpJmruikKsjfD9f0hxtIZVWD7MVL79FxasQ+Oc0PFNrISFDQb3qYI5vlaKPt8qQELDHVvmB2G+8CZRfSnHHRuG0aseYBl9507NRsX9B4fS3jjXp7Bil+QdL5MteI0SHkkI2HoVH914q7Z7VDEvhPXxBGJDMfSPR9gUZwVXmj+x8rcoUU8xHyAujKPRoE5+7D0bhYi3SibSMYtlImHn8R9oDQEHK+Wcql8Wx1oqBGW6dkzHztrCI42xZLMttIWH4tkMKe2EyEcxiM6reGYSHdywc0QpOB9M/az51PHD1ZZWaT5nem0yOB9mkA0KeuWhRd5bOFgLNniLkiQ0XJ9FI8gqD5CQjBiZE1aOLI9upDhFN8P7wpymFxLJimerS+fK+LNyGPX7MfZLWToLbm6KZ2R7OepjG5ob9DxeOngVLU8m0N9MGRzot0T7+RPGT0Gx0t0cnbn66vptNNseiVAbup+e3whaiI8ZWAXjMhFiaarnyjjhUQhP9v+BpSfCQA4jyku16E9J/Z21Gxp/8inaF5NBseB3QtW67rgdeA/xb4X76uOpctfCrcEgjGmt68qlEh75kD9fAt68LYPeE7qjikz5ebQDHPPHIiZeIzxirm3Fwr9uIeqtqn9WcKrQGV/28iP/FIptVbpaOTo7QR4ZpR5H/jKdMLafP7nL38DqKdtxQzNAwMoWVXqOQG8/GRScYuDk6oi4CMn9bh6wj36F8ERlw1aF0PLLQWgpxJGkBGPPorU4+kpTqbV7HQwd3hze9LckhkTUbBJRpGfEy8rKCm/fUj3K3YqMtukXqHTVksxp1Y5VzO09+G3jZYSqu+KKxsOHkevju/2YmEx4HBzuh77bJDscUevQteIEnKJVp+6CXL2olQZTJ5EbT3Fy4xHG0WIeXv7ZVRxR4sZ+8Pr6uPj/LX95hLXd9A9UU85AXEkY7YDUpx0QWszLfIdi7+GxqGLzD4aV+gR/U7e1diEeLUCTevNIatAiv9NvuL20Nf1hkAgPWvg/pYW/qDyjVqNz+Uk4o9Nv3V4G/9Ie1WbeED9OT3hoytqh8/IrWNZWED5J2Du0smIXCeUw5lQARvkkkUAoR7tHukHgkr7qEx7FPsH+s98rfRs1O1X6RYpmR0MQfLVaLIWQO0B3DGr7q/smjFTiXmbXAStv/op2vOuRoSdVKj7EuZPFMR26nTMP4RGNifTH/qC/QmwE7ryAlk8LkgjxIS9e4VL8cb9Q0Rc3PnQX32Af334e7S/nw3df+mGMK/2Kp1CZGY9xu5ZiwZD4Jgkp+W2Ub7vf4sjfF9H5iUvqt/yxdN8vJGqqlsPpNk4IJqFQ7ZgM00b44XMnWqyI3z/GlQrlcKeTs1K05MGoof6Y5CkI9zj8uOgafihQXO9bU7GfNxyweUI5tNE3c1Je4ZNZ93G8bClc+cBN3MG5FHAFzc5aY843/vgEwWg/+ymeqndM3iL46A2UPyJTu7qIC9YXTlg+pCy6C31OCcX/fnyAi9UVLDTCQxE7oPtvYXEVsPkCejxxwo4RZdCUnvHEZ/dRd0UYPCneZk+dzD30JlkkGSU8hHnyFHm71sA6ZYxQYspb5CUz7dp4AR/HeuD6AG8UpX+/OnUdZQ7J8MdEWqAq38i/8fXC+g5u8KHh2jtId0oImrKMe9Mq2Nc4P/3tIDucCELFQ8n49osqGOucjh3zpvM9TWpt4WFoLJmLfTKFLVILD3o2yxTH8Z6FRbaJ12/B+y85Bg+uiqnC4lrPjsfDdJ4z1T1aNol+htrkVqexQRKW/XEBoyNcsOHL0mgv7GTotCWn3wEZ/Q4o3jIn4NffL2F8fs2zKjKH9NlV/BaphUf4I9T95SWcWlTGzgZKu2s9f+kID/FZfIiQxqr7E6jPl/GtbXG8FgRxJi5T2NI44RGGFZN24lb+0ug2oBVK04uJ6OfhcKjgC7dHezBt+WXEedbFl4ObwS14L+Yuv4QoWjxPpziFi8oFv1VeR3gW86SXou6oNaAyghf9hoO0Q1C46RB81Uw3kFolPEqiWdNY/HskDB5U7gv3fzBp8x3kr9ESle8dJFcspfCQn8WSHw/i4dt8KNGqF61Dn2DTn0fwMMGGYjq+oJgOW43wKNUUPVv7Ie/N7fj9cDCSrEqh15SeqEZrnbOH5ChU3ROC3HxzeTsW0vcgYfIjCRMVJxuvGujVpjYKhh7A7zvu0q+/Eyp+0AUdfBJwZMVGBNJLCVUcyYMdC7D0fDyKNByIz1q54tmO3+jfMfT9GAzyu6DsM4myXt3RukgSbmzfgl0PaH2oJTyi6N21cW328biOowcP4ohQB8Ufd6lN8cdF/FCl4B38Pns37iblQ9EaTdC2thf9SQ1GHp9qoA2fd7pMIzyS9mNw+SHYQf3ViIwoLO9aGeMDqV/qXQhFH/UKD6lrlER4QLJToC08pDEWFKMQugHdZp2i2vUIj6SrmNasK369T/savr2xYdsPaCxsFxhcSOtbuEs+k/bPUL91zCEVUOkJD93dBsGNSbxSsdAvMLR2Z/QJD63sWemIFKWrldiHDPFSdPnG9EZotviJfru805TNXTdJYzqEkaeX7crUdMxCeDy6hzKrYjFQWMAJb4rEf0eh0/+qY46PQETxx/228KZUfAupXDxr+ZnrLBjEUoIrRwLi8uVDOC10FG/9JYG7KVGYuOgWVrh44xL5eLtTRNncJVcwxc4bYf2LqHf3RPHw0AVHv/KFtR7/9tSLF40Vt64LxIBQN/FevSEIN2/Bc1M8BnxaDTNph1i85M/Q5qdnyN+hFrbb36HvJYs44XudRXhqFx1tFukLD1oUz7iPM1XL4wa5gyku5aLORpvFu8xPYYH024q1eP7iJQp7FsLQT/plPM2uUcJDEcS80dEN8zoUR2fKnKRYcCrGd7e2H9ZVV4qoUGK8IRbdhMUxjIgT0eculPIcXabRb6PaTunZMY3va1jpCA9DY3kXC2juMYUt9AkP6bOp2q3oYlB4pP+cVdXHW89nqee+HiEgumEl0jaVLf7ZqC000hMeih1Layz6vgL6qTyLtOZiOsJDfL4TMGJQGfRVZle/ffQmPqBkD5lNImAKWxonPJKUcRXWcPathlYtG6JK0fywFn6Z9y/BvBMRcPdvifo+AqBgnN51DS+da2HEqJYINhTULbj9CG5XTop6tC+N8PhwcjXcmfkXrlKsR2m7B7gb5oVOY1siYrEQA6IUHpc3YezWe3jr2RBjhzci3xpNv6yUwiFVjIcqFkLHXUvhGka7DxGBWLLqvDpWInXMyxX8/j0t5iX3a7cRij3zf8fR8IKo0rYmfIRBPr2A7ZdfQdyFKHIsVZ91bZHxNom+vgB1PXwy9ytiIlerxH2fo+wnuyG8i7dxLAgnpceAxrXJDh+sDsKSloruZlp4hO3Hlx0+xyZpbIiahI7wkIgOONLb+5MUj6BKNpGhhXTmhAd2DkaRoQdEt6M0XbKkfKSLfmF8LDwyO9/N6n7dQHKh82llu8qKwZmD8BAX9tdlaFAyv/hHg17Z48qDWCRUUuwyvIvwSHz2EM1Wh+KWlQxO9KMfS+4f8gLSjEEJtNC7iqGvXXF4OIkCcVGhWLDPL6i9eyFdaPllUHgo7s2rvXCRGlpcxCRgpGqRJn4nEVoez1J/b3LhkVrYCb0wRbCzKRZHIhKjhAe9bY96iXEbnmF1CK0eHBzwWafSmFomQhSuR/KRq5rWKscBs74uh24v31F4pGenjHxPglqXt/6xvHvAs6lskXnhkf5z1tNEwuPVpVuotycK0YKbkxW9iCAXzURf43c89MazZER4iGVj4WhvBa3jNIsXw80enu/sumwqWxonPAojOfQi1q07hJsRSfQ6xwp2Retj4KBGkO1P7d4jPq9KEXDvnbJJSYQHBY+XOPgbZh8T0wbBsUY/fN/ZRhl8rhQe5LI0hlyWtLJB6XyWrvAgt6iDv2/CP8FyGp/k0tl90ATbpyc8tONUpFUWbvo5vnLam6rPWSY89PHJ5GLDBDseEnefNDqjcVnKrPCQuBzZNcTMPQvQrXAiYjZ+jeqTdXc8wknkNCFXJMG/qiQ+370f34vxGspLEvCtLQauYmKtTvhNyJCj3h3IpPCQumTZkQC6QAJI9XJQh9v2gb4YEiBIlFr44eZmfKIsl9rtTHLQX8He+PvaD6gv1pXOLobJdzzuYmbDlphPvrDQ6gdweXJ9tF5GW476dqIyOXkt+XZ92auE8aaXatfUTHK88FC5BfkWxShfTbDiy9svMP2xvdJFKaM7HlaYtvA6VhYrhVvkviS89dZ+6690Z7qUD0u/oLgOBxV1/W/5M7PjAfGNZwwadq5CWZf0uCzdp3dma2LQ09COh+dDVPgjAjU/rI5VFZVuNiYXHhEYMesODlU07Y6HqRZHip9EgaPOzg99rHLrGT6MYns8JE9PUjz27LqNj27a0hwqhH00vou1KuN4Ez0ZC4zJjKWvjLgzFQzXrrWx3iEdO7rcT9vOqXY8DI3FgMteOj8cprRF5oVH+s+ZaXY8QtB76iO8bFYV/zRQCDbdHY70djwiySXP+wC0Y7QyIjzE5zsew0dWxihTHM5CYzClLaF6G67coVCcMxyLY8t+we6nb6Ebg5EYcRN7N+zCqZAUlOs2Dm1fKnY8pAHg0qloKJtUslHB5UphkfIABzecp72UgqjerTn8bbWFSa2grZiw4RaSJGNQu0ZV+BAzepVVu1qp0+nq7HhUPLEKk/cHw96/O8b1KIO8OtmhMr77oNrxcEOzkUPQRvfsED3cs0x46LVx5lYamRceSRQ7UZJiJ4Qwg8ZTcXa2NNP7Iyzu3gfLhaAAiY9/5nY89MdapI7xSMLl6a3RbjEFjssK44Nlu7Gkra71LmBc1W5YIRw84tEdm0/NRmP6u5JIgfI1KFBe+FgjSDIpPMj14ODwahQHowiglxVuhZ9+n4pO/p6UJliR+vdx0CMUbFUfTn/2gt/YM2LAe51JJ7BliJBZK5xc12qR65q2IHn0cxvUJvcAqhGl+i7FCvJZx6PNGPO/BTgjbEGZ0tUqeDFa1JxFmXOIS881uDyvofqNizqVMiUT+GjjUcxvRCCTKH6kFmU6E0FKhVHmJq2l351WylxjzvkwJZ+cLjwUC8c3GKlys1INXlzoRaCauOB+mUFXK4g7F2u9lcKDFqHrtwRhaKgixsOTFg5VdyVg4MDKmFpM22c+8sw1lDiQjKH9K2FmcRm9QQ9Gj1+fIshfGuOhnUo0LVcrIQZk7pLrmBJugy4tS2JGBcqulS8ZTynTzrN4e9QtGqdwD/LwRmDvIuQjn4Kzu66ixSVrzBNiPGyjSUTdxM/JBTCtkxedwxGBBQEvsT7MXjvGQ+v8h7RdrW5RwG+ts/mxakx5fEBvgRNlVrgkxNXcsMWiz8qhH8WJyB/fQ+2V4fBq824xHiZdHAlzQhkLs8fZA1sHFEd98ueXR7zC2LUPsPKtm8JthbIfhSXJ4KbMWvTqxDX4HrUh4UE5i8UYFkesJpeXrkIcjLCAi4hHrKsd3DMgPFDJF7s6uqO41Rsc3HET3W7SXPiaxKut0jXKoB3T+165KA5zV7jlGRxLxoWHqW2ReeEBpPec6YsL0fdZ2q5WihcWES0UwiPxTRRmrriJuY6aHQ/RFTKyEM4NLYGy9K47URaL6VoxHkJWuheIr1Eah1u7wumtUtBeVf0GKMTN+UplcL2LK2Vu0vleFcNVogSOdPcQY2CEHd3HEcko7prx3StT2xIpt7FWcGVKoF2MQr6oVqUQEoOu4vyzGLxVB0rfxb4twXAq7oki3jYI2rkV/z5VCI+BXscwb+FxvLByQoX6dVFa9ISNwfP4EviwSfHUC37xydOkxE07uNxQulwd4aEegxDDUB81XSNw7uhlBCfkQ6WPvkJfCg5Pb8ej1OHf8eORUMre2wLDu/gg7ORObAoMRdI773iQgyfVOZfqtHIug8YNS4pB7ogOgdy3PZp7B2H1jG24QckOnMrURdOylBDl6Gncoox6ujEexu+yUNYvpYBCPk/UbuwH94J+aFQ2RG1jpxI1UK8i+RWERaJA3eaonl0xHpHqRTJQZ8YV7Big/RpfsyCVUXD4LQoOt8mkq5U0oLowGg35CJUe78W6AGUWJ9WbdWtJ+lp9KzFlnEYYuS/VpWxTQlYoRaYm+lP/OhJi8isZ7Thcoh0H0TUrs8KDqqAA9/81Ho19ykPAUndLGcgtdQ+DDRzdCiBfQjTCYhRJ4Dwoe9Z5yp4l+h9rldUzUFMKD0iC8UVeDsibWAtzntLujSR4n76Asws5pKqziJGAmnGW5kYOPfLTlCv1TNZlzDkd71N85B5fN2UAACAASURBVGzh8ZbeQJ7DoNjCCBrmDVWIg8IEiqDtnyho+2U/oE8GYzwenr6Ohvtj8UbIZpNijQ9L2WB9iJ24QA0SAkqF3T2tS5XJKAG7tt7AgGuJIK9wuvLAtWhhbBvorclqpXOGQdrCg6qgTFlrKChy9N1EUBIe5WWFSvSH4URTBwrkfoL2617QAaT/Kb6zzoveXSpgqeocAco4NXHTE6yLeEsHDzpiVMkkjDhl9c7CA3QOU+c/nuGI0B4tGFYKAdYU7zJ3xV1MD6YsXmInrFDc3weHuynP/sjAc2HyxZGy7VSc6PO8zi5YNqA0PhDERORTtPw1GIHUd3chgFyaHUwyPpkwJxLIEJR5adPoUmieEeHhZouXEXKFHXXslJ4d0/s+8sotVNkRiQjBJfB/efG1obFksy1MITyEQO+0njPTCI+3OLbzEjpfTEZesnmKVX509kzCFqvC6kQQiffvo/qGV3gsZPuh7HVnvyyI9VpZrYSscoK7ViReCmWsbdDA3QonXqiEByVm2HoRH11TPDcym7zoWCEfTlzOo846p7F7HjiS1oihLHgeVUvibueMHVCYVc9V8rNj+G3daTyO1WRfsrIrgnofdEenssJ28A2smbYT11SZmwRXqzLtMKpfZXExHXNtO375+wYi1bdbwaZCJ9ppqGBAeETgoJHB5frP6dARHtQHYQxL1pzE03hVdilbeDXuiWHNiooxJOkJj1rya1g9fzduiPcLrmSFkC84JBMxHsJDGovLW1Zh81VNFixY2cC/2xj0q0TcpJmmKIOWV2FbBAdH4G0mxA5od2jb/C04rTSGStil4mNN2beGUPatd8xvkMkdjyis/rAaZVgSHpkKGH9uD0Yo9to0lzrNLj1U9WYg6K8+OKQ8x0P6Nl7r3I30gst1F/A27qjXpzZer9pN8kAZ4wFNBia9v7PqNpJwb+VgdJ18ROvcEJtCtfHN6rUYoXbNMoHwEDoiv40140Zj1rZrWu0JX9k4dsPS25SaVvhH2HGM+2iw9lkbtKAv2W0+ds1vLabSVV/KOhfQaZxyV190/LQPrBaNUOw0mVR4CGd1jELboVuhDq+xaUftLBb7nHh/NQZ0m659volgm9HLsekLTqVrzN/7s+cvYfb8xelmr5KKj+5dO6JHt07GVJ/hMjlbeGR4OBm6QTzHQ54HbmmcyWCwQiHvfuxb0uD5tPL+Z6gDqQorglzlJGYKFMivOedALKcIhI9+a5VufxPP34DbXiuFYMhch1LdrWD2H2wpEFf3LBFjmsqqxZGmbRUn4Qc3r56zWVTf62NMv3HK8em/N40RSsVJpbTO+kjPjul9L+1D2mNJzx5Zb4v0emDE91nynGm3K57jQS8fPAycx2NEL+nlgcTmeuKNxDZI6Br+rdHM23d5tt6HLVWB1XT4AwroCfpWB15Lz4ZQw0tCzOs48bgAGwdn9TkeBtmmGVxulEX0FKIzM6Ji6KWAlXjeRurzQdKrVzkGG3u4Ss4ASe+udL8Xzy8RySjOM9G6QWiTDpd9p/6m0XLSG8jJjroMRBum6LdvuuOQFMik8MhIU6YuqzqZXAZHD8FdKZP1Cyehv4xRvK2TnPadyVrTsqz6JHShkO5J6qobVaeNC/9WnJhuTI8kKXKlqX+NudWoMspT3G1cUSxVhzQnvAvuXyaxjVF9spxCgvio4FcW9nbKNCYGhiaIjz37DmWZ6BCazc3CwzJmlBzHr8bDzUs4DM8Gia/CMXHDA2ylAPjrlI7TRG7jJkN1/eZt/Ln+r3fPXmWynpi4ImN2RUzcZGars1hbZBZMZu83lOggs/WmcT/bMgvhctUZJmDGwiPDY7XMG4J3YcHm/GjY3R++JMBs5Q9x+OfPMWzZDcoyJkO9Hy9i28cGotgtkwiPyoQEWHiYEGa2VEUHyW2/jk+uJyBGcGWgLF2+Pp5Y0cdLmYkrWzqVZqPCIsm3RPGMp8zNeUPR9OjlY7T48xV829TAb8JhKGZyWaQtspv9NZrfAcDP35RF5/fYF7ble4TNTaVJgIWHuU8QSUpg3aEUqDoe2/cMJic4vpjAuxFg4fFu3PguJsAEmAATYAJMIDUBFh7mPiuSKKh0xWLM3LAXN59GIjIxL5yLlELrgRMxdmBNFMmsC5q58+H+Z4oAC49M4eObmQATYAJMgAkwAQkBFh48HZgAEzBIgIUHTw4mwASYABNgAkzAVARYeJiKJNfDBCyQAAsPCzQqD4kJMAEmwASYQDYRYOGRTeC5WSZgDgRYeJiDlbiPTIAJMAEmwATMgwALD/OwE/eSCWQLARYe2YKdG2UCTIAJMAEmYJEEWHhYpFl5UEzANARYeJiGI9fCBJgAE2ACTIAJACw8eBYwASZgkAALD54cTIAJMAEmwASYgKkIsPAwFUmuhwlYIAEWHhZoVB4SE2ACTIAJMIFsIsDCI5vAc7NMwBwIsPAwBytxH5kAE2ACTIAJmAcBFh7mYSfuJRPIFgIsPLIFOzfKBJgAE2ACTMAiCbDwsEiz8qCYgGkIsPAwDUeuhQkwASbABJgAE+Dgcp4DTIAJpEGAhQdPDybABJgAE2ACTMBUBHjHw1QkuR4mYIEEWHhYoFF5SEyACTABJsAEsokAC49sAs/NMgFzIMDCwxysxH1kAkyACTABJmAeBFh4mIeduJdMIFsIsPDIFuzcKBNgAkyACTABiyTAwsMizcqDYgKmIcDCwzQcuRYmwASYABNgAkyAg8t5DjABJpAGARYePD2YABNgAkyACTABUxHgHQ9TkeR6mIAFEmDhYYFG5SExASbABJgAE8gmAiw8sgk8N8sEzIEACw9zsBL3kQkwASbABJiAeRBg4WEeduJeMoFsIcDCI1uwc6NMgAkwASbABCySAAsPizQrD4oJmIYACw/TcORamAATYAJMgAkwAQ4u5znABJhAGgRYePD0YAJMgAkwASbABExFIE9oePh/pqqM62ECTMCyCNy5dx8+Xt4o4GhvWQPj0TABJsAEmAATYALvnQC7Wr135NwgEzAfArzjYT624p4yASbABJgAE8jpBFh45HQLcf+YQDYSYOGRjfC5aSbABJgAE2ACFkaAhYeFGZSHwwRMSYCFhylpcl1MgAkwASbABHI3ARYeudv+PHomkCYBFh48QZgAE2ACTIAJMAFTEWDhYSqSXA8TsEACLDws0Kg8JCbABJgAE2AC2USAhUc2gedmmYA5EGDhYQ5W4j4yASbABJgAEzAPAiw8zMNO3EsmkC0EWHhkC/bc1ei939G93xo8EUbd6HsE/tQyd43fBKO9t7QP+qx+KtbUaPIxzG5tgkq5CibABJhAFhBg4ZEFULlKJmApBMxDeETjesBBBMUI1B3h17oVKhZIxwJPz2DzmWCxkGP5lmib7g3mbdGnp7fi9DPlGIrVRo+6xYwfUNIjHNt+ASEKWsbxNb524NbPaNppBcRlc5OZuLesY0bu5rJE4OasNuj4h8LATWdfx++dGQsTYAJMIGcSYOGRM+3CvWICOYKAeQiP25jVvBuWiSvXYhi8MwBjyqWDb8dnKPXNMbGQ16dbcWRM2RzBO6s6sWNwRYz6V1m7rCamBq5E7/TEmbJ4+Nr+qDf1AlLEfxvJNyMDYeGREVp6y+YI4ZEUg5DQGLyFLVyLuiB/pkfFFTABJmCJBFh4WKJVeUxMwEQEWHiYCGQ2V6MlPKgvhXquxL/TaiJvev1KOoqvag/HrlhVQRYe6SHLju9zhPA48i38h+yBHI0w985i8KZLdswEbpMJ5HwCLDxyvo24h0wg2wiw8Mg29CZtWFd4QFYdk06sRr+CaTfz5NcP0GzhHUkhFh4mNYyJKssRwkO9i8jCw0Rm5WqYgEUSYOFhkWblQTEB0xBg4WEajtldSyrhQR1y7LgIgXMbG971iN6FQQ3H4Yhc2nsWHtltS33t5wThoekDC4+cOEe4T0wgpxBg4ZFTLMH9YAI5kEBuFh6JMTdx/K99CLjwBPGCbdzLoXHD+mhR1x+utoaMJUfElTPYsf8Qzj+Jo0L2KF69Bdp/2AAVHG1S36T2i5fBoZAHCiiLvIl4jqe3r+CJXR3Ur6zyl09CdNAJBNwAqnRoijIG+5C6GY3wqIeOHa9il+g7VQYjDv2NL7z1j0W9kJSVR8fWMdi1VwheTkd4yF/jyuld2L//Ih4Lw4cbyjeuj6ZtDIxfKKI3xoPG+vgijh0+iaNK/u7lO6P7x2nUQ04+EXev4tTlSzh/9BZeKYdl510NbTp0RUM/Rz0ii+4Jfo03VDa/axGlXZVt7z6IfTfDFGP4oBs+blhebR9AtwzZuVE39OtaDYX1mFlDWPc+mlblW6N15yaoWywdg9JcuXF8Hbb8rRibdFz30wguF+ZShCAebV1QRDlxE2Me48Kxfdi/T1GXPra6Zey8G6Dnx51Rw1PfAOU4OqYVPtn+mmqrjQlHpkGaWEvDVnuuJca8xM1zJ3A7PA5xsfawd7CDV60GqF5cn61y4A8kd4kJMIEME2DhkWFkfAMTyD0EcqfwkOPSr4MwaNFlRCoiqnUuG7T95RJ+0UlZ+ubyEnw8eCku6r3JBmX6LsKaifWg5d0kWXSL2YganMKsz8Zg+aVIZTC35u1xIvnQ1yYfejF5V6GPsPnEBFQzcipqhAfVd7oBNjb4AedobLaUReoEZZFy0q0nejP61J6KQCoj7Iz86TETXcWsSYaERxIebP0WAycewLMk/cyKfTATG6a1Sb0w1xIe03C8Twi+m7IMR/VVJPNBv1XrMam2dmT8iy2f44PJ/+KV3raF/sjgXPULrFz7Kfy11s20q1OGdnWoRJEB67Cp3imDbctKDMRfu7+A26lfMHr8GgTqaUzm3Ayz9i1EZz0ubIkhAfiu9zj8rRcQ9a/+t9i8rDdK6lnXh5+cgX6DN+BOqvEJ4+qPQcUDMHv7cxG8blYrte2LfowtG+rixPfTsfhoMEknnYvYDt68DSPdz2D+6O+x8myYnjLOaPnjTizp7Kq4ef8EVB+zG1FyvQ+KuoFUmbbkd7Hx288xJUBPP+gum/IjsGvHIJQycn5zMSbABMyHAAsP87EV95QJvHcCuVF4SLM4yWy9Ub1hGbiI5OUIvnEd90KiUPdH7ZSlidd+RoceK/BAWH/JbOFTrT4a1KsGuyf/4EDAZTwSF2YyVBi1GzuGeGnsKFl0F2nVHV6ntiBQHcgtFNMID6k7Tbo7DzozRUt43FkAj+9boe8m4V23PiGRhDOq75WxIDWWq9K16i9/bVZXfPjHI6VYsoFDqUqoX9IF8c+v4dzNl3ijXJc6ktA5RELHkPiCTAZZSgrVI0N+Jx9Uql0CLvIXuHjmhkZU6BFdKjYyWyc4Fy2FGtS2eL2+g6MXn6jbL9R3LU5NrCKhoxEemrap/0XLoGqFwrDTud/R2RnxkYIolPRPp4xtuwW4ML+59u5KOLXTkgSOaFsbuFeshQZ16qO4/CQOHTiL60oRo8/9TWtuCXc7+KJqPQWX65fuIDhWW0IYFB7UZ5mM2JItbByKoGxVPxS1fY3bx1Xzkyp3cIazPFIU3ALLEhVrwtdFp4xtGyw+PwetBIEkyQ6X1o+TVp+SrmNWhz5Y9lAlVgSWTrC3VtSQEB2BWM+B2PXP1yj/3n/xuEEmwASymgALj6wmzPUzATMmkPuEx3383LozFj8koxXqjrVHJqGO7htocnmJTnZEAbVnjCSdr0MjzNy7AN2l7ijShZZ00SbMC+nbfnFNWhSN+/dB79YtUN5N+ECSmvTWQrTqukwUN7ISg7F9/5dGL8y0hQdlHJLEb8hqjMep9b01YuDJH+jcej5uUDuq7FcaVx49wkM6BoeaGL9xMQZK/cDkVzCjy8dYKS40Zag58Qg29FW+MddlIHNGuc4j8NOELtquaeHb8L9m3+OEGG9SBAO2HsAEf82DFXX9Ih4VKY/K+nzgpPfatsfvV35CU/WtUuHhjGoDpuHnL5pC6vWktdNkoH+J12ahdbc/FWeRuNK8OUPzRt1GNHYMbk7pjKnztKswYMMWTKgidauKoO/b0ff63N8uY0qDvlgTKlTmgKYzt2NRN0+JqBHc77bj26HTcTBEsZBPS3gIuyM/zh2GFtIBamUuox2Ush0w+qex+EDqmkZzeEabXlgpDtAFvdYcx/Ta2j9sqeaY3t+9JBwZ1RCDlGnSHCsNx28rP0UtLTdEGlPEG3J9Y3crM/7TwV1nAgYJsPDgycEEmIBBArlPeARgWPnROCis4Yw8zC7x4GhUHx5A+yEy1J5yHOs+Sn1ARiK9Gfanc0NSdBdt0kV72U+xd/PINGM3BJ/4sGhagkriQYyZvvoWhZqMVe60kDxAC0lBYUkWhra023KcRAoNR7Pbois8knBgZD18tlcMIqBF7z90eJ2eA0LC1+MjpXtXKjcxI8/xOPN9Q9qlEWIIMn5InuFFsUR4eBl6y04phStTSmFhiLJmmH9zITqkgk4L86a0MBfPpNQJrn6yBO1bLMJt+ib1jouyIgmDmhNPkTBTMNTMLaKrbydFeXtaweWasRuOzzkyqiaJAXGAaDn/Cpa0Sz2rrs1sha4r9btzCaWNEh7PSdQ2IVEr3GBI2BszobkME2ACZkuAhYfZmo47zgSynkDuEx6SHQ/b8hi++k98pfV2OjVzzaKtHmbeWIbu+mJvdWM5VIccGLnozqyl9S4KJW+6ZX4jcXD7p/CWLJKlBysaFh7n8F2dAdgYIegO3d0Eaa+jsaZ3PUw5L3zmQ0JlN75WOfAbySAzmZsyJzykB1QaythkuMyL37qj4dybNO7UOzUaQhoBJOWuEVu26PjbOczTbNVoTYnMCg9j2KZXxhjhEUWHUVanwyiFKzcc3JnZ55bvZwKWSICFhyValcfEBExEIPcJDyB862A0GXeKdjCES/DHb4dB33yG3nWL6jmNWbKgLlAHw75tC0kEh8YKIQcw55eTENbnWq4wRi66M2tOQ4tCTTyLAy1s96LJhtYKlyAHEhGB5JKkFFEGhUc07WTUoEB1oYPksnWBXLZSBaorO29w4Wokg/QWvopmyE3n5SvEJquIKVzV9qtPbtcVDsbseGROeGjEgy+6Tv4YNfVmvbqC1RP+FndFNAtyqVgrT3bZgmFF9M8EcxEemdm10j/yOPx7LgqP89ujsz/F96TzoETevIOGWyPwmOaHrLQPXvfxzOyjxfczASaQQQIsPDIIjIszgdxEIDcKD2Hxeu23ARgwXyerlY0bavf8BpO+aS9xh5IuSo2bGTlJeCCJdiya0o6FEENQyB2FQl8hVE8QvEHhYaRoEMhkrfCgTGTLv8Y3C08pA/mltrCBjU0SksQY7PcvPPSdoZLWTNEID2MEj6ImcxEeGhZp7f4Y9xwpSr1A98mPsd/ZHSdH+kIS9qOnEjnmLrmCKa/yoWdzDzQo5IT+pe0z0hiXZQJMwAQEWHiYACJXwQQslYB5CI8XWNKlJeYGCVYw8oA7STYeQy4fwjke+5csxKKNZ3BPmjnIoSJGrV6DYWJeVsni0LY46jUsDcc0J4MH2o4fhw6qN9cZWLhnZo6l5QYTRSwaUPyJ+pxAPb73OVt4RGP3lxScHaBMQWxjj1JV6lI2JoHYa9y/cAuP6ZwIRe6n7BQe7qjYqjKKpmPIygPnY7CYJ5mFR/pzXkd4JCXgaex/KFAgP/LK5bgREg+XYi7wzW9FVUVj4vwgzP+vIP7+XzGUtckLLwcZff4WUVHROEnxOf7ejsrP0m+ZSzABJvBuBFh4vBs3vosJ5AoC5iE8pIGtxr1J1fjdg1LcHqQUt4XTsKeQOegA5k2ZifWq8zXUgcgSdxiDgcdpVJ0DhIf2Ald/gLxB4ZFE2aYqULYpYYgUJ3Kc4kQMkdQEJ+sEMBvJwOBb/UszUK/nBtqpEbJ9CWdtfK1zVkdagc/v09VKJ7Yl3V+QNOJidO41lx0P07ta6QiPS0EosCMOpQrJ8CQ0EYkCJytbTBpeAlFrSHRESsD5Fkd0bzvM/eMOprxQpfa1gl/NUgho75qu21a65uMCTIAJ6CXAwoMnBhNgAgYJmIvwkAoJg5mD1KOMwIrujfDDFeED/alB9QNJwsmxzdD/byGzksbnXrOYMnK3RVq5kYvuzE5RYwJ/02rDcHC5JJuTjHYTrlIWLL0xDNJdKZ14BSMZGFpc35vXAW2WPBK732DmJazqlroD2RlcrgmollF8z3nK+pXm0eZaZtDMLcMZ04QbzEV4SIPLXXuuxNlpNTM5tfUJj2i4VfTFpa4FEfLPVdQ89YZOhq+FP0qGY9KK+1hBiaNVOx6O14NQIiAOXtXLIbBdfmxcew0jHlph8P+qY45PJrvGtzMBJsDCg+cAE2ACGSNgLsIDkmxMoEPvxh/5AwOlZ2lIhh1OrkUtyLXoXU4A1yzwJG+v6URxfzpRXHBV0ntAXlrIjVx0K6oQdl5OIIBykVbp0DTNtLu6TWad8AAuTm2KHmuFwwj1HJCo7IjWORdlh+PwrmHwVnXSSAaGFtfGBJ1np/CAJIWsoR0Zg1NEspsDr4+xLWBMqt0c4d60Ut0ak07XGIbpldG0k0YgfPRm9Kk9FYHCBoMtZYE7TFng9JzybvyvlH7h4VPHD1fbUEpicQckmoRHHWypqnS1giYeZOu6QAy4mxcjB1fFVHJ/TDx/A267Y1CvVXUE1DNeIBrfXy7JBJgA73jwHGACTMAgAbMRHtLzJ4TR0EF8bSfOwZRO/lCdKfcm4hoO/voTpmxQBY3b0hvy/fSGXHKY3fOjWLP/LSrRQiXVYXThpzC2x2D8JRyippU69inFmHSgGBPFAXmFW3yHpT/pHIAnZlu6hXN/BULe9dN3ivHQOshOz+ndaU3jrBQekJ7RIfNEy8lLMK9naWUGMEEsrcewvrOVJ7IL2bOOU1pYyaIuk8JDc0YKmaXBJByg9LWFldULcTp/TxiJKQHB2RbjoXU2iiBOKw3E7Pk6h/jR528i7uHSoZ14UOpr9BFjPIRLOrd07yW2jy/ir7kTMVs9vrQOEDS8I5eeqBB6kl4Z6e5MyZ7zsWK8cBCjMO8fI9q6FIqJAkP7AEGZcxV8MnMGhjYqjgKizRTlb1x8DZ+2NQ267WnmeuaER8Dmc+gRZJ1KeDTrUAvbawhxIXwxASZgagIsPDJA9PWTZ9j6LBnOxYrgQ++8GbiTizIB8yRgPsJDWLNcx89d+2HxHUUYcdqXDCV7LsGGafU0J3YLN0gXwTJbODnbwlqsKAVxkVF4I7qC0wnSs/eSy4xEsIRTrEDLcTgiHD6tvGwcXFEgn+69Oos/IxfdQi3ShZ/RQfTKvmSp8KA2wnd8idZjDyNS5SpPAd4FafDJ8VGIkqs+JOafrsPuMRUlJ2/rME/j0EaDC19pZi6qTmZLaVXtKGg4WY7IKDlZzgbOztaIjBT2pN5/cLloAunp9UqbqPtJ/06IjoAqf4HuyePQM7e05zadNk7zNDJSMfkMn1yetcID0t0ZnYdPq0/GPKcGD3PUfaozJzwiz1xTuFpV8sWmplb4c809LIrIh/FfVMHYTO3EpPPzw18zgVxMwATCIxj9J99DAL3fGjGkNsarIwtVnztj8eTK6GYBkK/sOIEqx9+gZMPquN9ZTJnCFxOwaAJmJTzEBV4Ijs4bi7Grz+OVAf1h414DA374ESMbe2ovgIX7o89hyahJWHTiiVJk6CzxbL3ReeYKTG+X+t7EkOOYP/p7rDwbpny7rjM1hGxLzUdgzvTeqKg63DsDwgO3FqJV12V4QOt4WYnB2L7/S4o0Me7KauEh9OLN5VUY/vUCHH2WGryMuLWauBhzu/mkZm4kg7TeuCeGBOC73uPwt07bNsUa4rNJkzAkcir8yL0u24SHAEh+Fxu/HYHpB/XPLVJM8KzeBZNmTkBLncNgxLk1YhyWq5IbKM1u414BHb+cjqnV96FTO5ob2Sk8aNY/2PotBk48AC0z0Lzv+nMgZreWzNW0nlPi4NNmKtbMa5vlOx4k+bBr6w0MuKYKRLdG7UalsaeJU+p5atyjxqWYABNIh4AJhMcTdBh9B3tIeIwZ2QA/FVO1qPrcBWvmVEdfCzAFCw8LMCIPIUMEzE54qEcnR8Tdqzh1+RniVZ/ZFUPVupVQWuV7lRaJpBiEPArCefX9dvCqUgdVS7voOURQpyL5a9y9fAaXnqladkXZelVQlg6yy58h+qkLJ8a8RFg07bkU8lC6pmSywiy4XXQZOn0FT8XhZ4BbpvuidGc7dgfhBcugQZVSKGKMrTPdbgYrEOZW0HkcuyMcJ6liVA0VfNK3qWj/B0G4GO+FaiU94ObhmAMXyJJDHG1d0rGBsmzIbZwId0ODsoWyZW4nvnmDl7QhJqThdRIy7PLFBJhAlhF4z8LjLSLpVNmA+/SEF3RB8xJOcFd7LCXj1aNQ7HiegpK+dLiPR17lDyp9Hp6A+Lz5UNzRGvExcXgFxf9LL/HzRBncC+ZFothGCkr4F0JtnXJIfIPAWyG4FpsX/vq+h6ofiShUxBMtfPLTn07FpVd4pCTi7r2XOBoOlPRxR50imvJZZjWumAm8JwLmKzzeEyBuhgkwASbABJgAEzCawHsUHnKsXX4W/7uZRD63ysu1CC6P90PlmCfoOvsutsf/p/wiDwqWL42gT7xRCMqdE9dCGOPxGnOF+8uUwX+D1TlRxHvWLjuEfnes4en4FiExb5X1WKNW28oIbK5wiwq9fBnV14fhmepr5EGxSuVw4eOi1A5dMcHoM/8W1kep+kEuDU5u2DKyCrrSqWCphEeqfpP4YDcsoycfF8z5BFh45HwbcQ+ZABNgAkyACZgLgfcnPF7cQrm5z3DbsyjODPCGJ+0s3A9JQdUKDti06DiGPbRBz9418GdlYNXvgRhyz0bpuqVy2coDuwJ2aFiMojU9iyCAfKyll0J40MK/mh92tnZC7JUbaL03GlFWBbBkci0MxUM0nXwf/761RpN2/lhV6NvXEAAAIABJREFU8jX+98cj/PtGhvY96mN3LWCp2I//4FTCB/t7ueDkxmsY9TAZ9iR0npLQeaIT4xG0+yQq/CuHf+Oq2FWPnCgSYnEz2QVtOPDcXOY/9zMdAiw8eIowASbABJgAE2ACpiLw/oRHvHLhTxlGKlUuinmtfdDMTXCXeoquY25jez4njG/rjhL0ybOrjzHlXhIJghYkCIyLFVEJD8U9Ap4IfD39IuZF5kGXj5pjGy7CekMEUgoXx+NRpcUc8irhICtfFsmfQNGPt/b4YXxdjBMS1qjEkpUrNs6qhnI6wuP18bNwpxzhsLND3ya+mNTAAyU42ZWp5ibXkwMIsPDIAUbgLjABJsAEmAATsBAC7094ELDQm0HosZmyzoiuUFYoUbUszvRJwUAxOF33kqF3/6ZY5/+uwkOOnxecxCjKuS+KEVxAns104rDUTeus9DMog+SlwfDabfunymolx8Ed1/Dx6WiEJFP/rfOhf68aWFXF1kKmBw8jtxNg4ZHbZwCPnwkwASbABJiA6QiYQHhE4bsfz2FGWB5a4Del3QbFoTuJd67BZ9lLvFDuFvRU95kCzJ88Rt+V97EnxhYTRnnjxjzaabAuiL+nVUXXVBkl3lV4hGLIpKtYFmeDwYMb47eEy3BYHYY4VVwJ9UcVs2FfyQ+xHwN9xgdhfaIkO9ezIPjOf44Hed2w64cq8DKUTpcCzC+dvob221/jhVsx3BhbDn6msxHXxASyjQALj2xDzw0zASbABJgAE7A4AiYQHsD9A6dR9kAcUuiNf6PqHuiSNw7Lz4XjxhvAiRb1oR8XQd4XjzDibAr8izqgrlsCpq2/g00RgvCoizoHj6Hj1RQU9PbAhBoOoDhuxLySo3DD8ujlmjHh4VTIHaMaONFpW08w5WYiUhw9cXJSRdRLeY4+k0hYvKGA89peGOQmx+//hOAs/bt3/0a0swLs/lPoRzKcinpiUm1b3A98ikXB9G/lGO4pYzpkbm6Y1LY4usU9x+oEe1Qt4oIS0Q/Qe1M4HrDwsLiHJDcPiIVHbrY+j50JMAEmwASYgGkJmER40MlI2LbuAvpeeYN4dcYocqWqUBL7PvZBWWEX48UdVF3wBJcFlyTxskLFJlVwoYMr8qZEYOaia/j+iSTjlbU9ZoyoSwcSZkx4FHbJh/DXCUikFmR2jpj2SU2MK67chXl8F02XP8EpVfYsKxvUa+GPI62oD0KXUvWDsmt5eyNgeGnUEMbwiuJUFlCAOgkqIS7karFnqHowTmxLvKztMGFYHUxXtmdaU3FtTOD9E2Dh8f6Zc4tMgAkwASbABCyVgImEhxIPuRwFRyZRviqKt3a0l5zRocJHblaRckRRPl193yfK4/FCEAUyGxR2Vp3jYRx6reDyKm/wON7KQB2qPuSBk7MdnPUcFqTqh7WdLYraKkSLwUs9ZuEMET7DwzhrcSlzIcDCw1wsxf1kAkyACTABJpDzCZhWeGTjeFNntcrGznDTTMBCCLDwsBBD8jCYABNgAkyACeQAAhYjPLauPYrP7gFtOjfG6qo5gCx3gQlYAAEWHhZgRB4CE2ACTIAJMIEcQsBihEcO4cndYAIWRYCFh0WZkwfDBJgAE2ACTCBbCbDwyFb83DgTyNkEWHjkbPtw75gAE2ACTIAJmBMBFh7mZC3uKxN4zwRYeLxn4NwcE2ACTIAJMAELJsDCw4KNy0NjApklwMIjswT5fibABJgAE2ACTEBFgIUHzwUmwAQMEmDhwZODCTABJsAEmAATMBUBFh6mIsn1MAELJMDCwwKNykNiAkyACTABJpBNBFh4ZBN4bpYJmAMBFh7mYCXuIxNgAkyACTAB8yDAwsM87MS9ZALZQoCFR7Zg50aZABNgAkyACVgkARYeFmlWHhQTMA0BFh6m4ci1MAEmwASYABNgAgALD54FTIAJGCTAwoMnBxNgAkyACTABJmAqAiw8TEWS62ECFkiAhYcFGpWHxASYABNgAkwgmwiw8Mgm8NwsEzAHAiw8zMFK3EcmwASYABNgAuZBgIWHediJe8kEsoUAC49swc6NMgEmwASYABOwSAIsPCzSrDwoJmAaAiw8TMORa2ECTIAJMAEmwAQ4uJznABNgAmkQYOHB04MJMAEmwASYABMwFQHe8TAVSa6HCVggARYeFmhUHhITYAJMgAkwgWwi8H6ER9xDnAoMhUft2vC1z6aR5rBm4x4G4tRDe/g3qwjPHNY37g4TUBFg4cFzgQkwASbABJgAEzAVARMIj2f4a9LP2OfZC8uH1dLfr0cbMfy7y6g1/Uf09zFV17XrOTV/GOYFVcO4ZYNQLWuaMGmtD9eNxZh9nhi+diSamLRmrowJmI4ACw/TseSamAATYAJMgAnkdgImEB6Psfqr6dhduD+2jGnwXoSHuGgP7qDVXsjxP/Hnk/IY0qcmnKgX+srkJGOz8MhJ1uC+GCLAwoPnBhNgAkyACTABJmAqAlkmPJLjI/Dg5kOgRHmUjN6JEal2PBIQ9eopbj+hIqW94F4gX6oxJUS/wuO7VKB0RZSRfH/u188xK76XYaFDNRlTxhiIWuNwtYO11k3JiIt4gfsPo+FcogSKZOB7fcJD3ZZ3CRR1cYW9dmPGdJfLMAGTEmDhYVKcXBkTYAJMgAkwgVxNIEuER9TxX/DVH1fxJq8jbGUJSEBeIDYfWqpcraLO4ZdJK3AyOh/sSW8kxCfAveNYzPuwuGKn4rQLahUMwZXneZAPckTLAb/+P2JKy2uY0Xc1LktN5t4cs+b1AoT7zleh/y+G9XrKzPwgBN/9FoGuc6aipyqo4sJS9J33HB2ln4l1n6B21uCltwciQqKRL99byGMSkL9aP8z7uoG4o4Lk59gzazbW3E6ErZ0NkuLj8NazFabO6I5SgmBI53td4fFw1zRM3vQc/znawgbJkNs3xE9zusMrV09PHnx2E8ipwiM5mUS/XE7PZuoXFtnNjNtnAkyACTABJsAE9BMwvfBIPoe5Q5bhds0v8ctQfxIOJCwuLcNncx+gkSg8knFmwUjMj2yPRRPaoiAt0qMCfsSQDfb4fPUXKCrGPuRDpx/Go5+3cPdLbBr7Hf5y1bhy/TtrEBZB27VLXMiLwqMXStBdqcoo+xXcdjp+/tBDpCHuioR3wqpJraAd8y4Ij9V4UG84Fn9WRTGGq3/gi1mXUXbEfIyqaY0X26fgq2350Pvn0egkDoLu+WY1Htf9BssGlEn3e23hoXBXu1BnMhb2LKqwFC2skq2tdXZYeBozgfdLIKcKj/j4eISGR6BcKd/3C4RbYwJMgAkwASbABN6ZgOmFR9BKfPLDLTSY8hMGqNYEWsHlFzHvkyV40WYCvmmiXO4H78HEObdQh4RJo5Opg651RcQ7CQ9CdGvlaHx/tYZCnIhC5A9E9/qZdlJ0U20phMfztt9hUZ/iSrgPsHLETJytMQ5L+hXA1vHjsNGxLzaMa6wWB9f/+ApTrtXEzAWtcCXN73tDphVcHoeA6V9j1cuK6D2kJ1pXLCSKHb6YQHYTyKnCIzomFo+Dg1GzcqXsRsTtMwEmwASYABNgAkYSML3wOD4f3X8LQQdpBist4aFY1N+wJTcsrRiG0hjwyzAU3ZR1wgMh2/D16EBUpr71ebUY/1sKfP7bZ6iTKpZCn/CQBtF76Q2o1+xidMVjPQH30l2O4rpZrRLvYMe8VdgS9ArJMndU7/c5vmpahHc8jJzIXCxrCORc4RGHh0+fonbVylkzcK6VCTABJsAEmAATMDkB0wsPccfjKmqMn4dhfsr+agmPICwZNg/3W8/EnC5uqQakL+jaVDsegGJn4e+iIzAwejF+lQ3E2s/1Jd/VJzwU/b7ZeBIW9nLBnikjsSqvoR2Pzrid5ve6Ox4SDMnxeLB3ISZuTkDX+ZPQLTUik08CrpAJGCKQo4XHMxIeVVh48OxlAkyACTABJmAuBEwvPJLJleqzJbhc6iPMGtkMHlaqhXSkMrg8mWIrvsasW+Uwcspg1BfiI+hKCA3Fm0KFEKHnfAtd4XHi5yFYENoS86Z/iGIUiC3EQjzVifHQV0ZoKe7gT/hkRzQKyRPgP2YOBpXVZyqF8LhZuhOmftMWJe1S8HjnPEzYrBqDsp610Wg9YSIGlMmH5PDD+GHMBjxroIjxENtJ43uFwHLHkFWj0MKaMnxFA07KzF3JFE8yZFYw2rHwMJfnyGL7ycLDYk3LA2MCTIAJMAEm8N4JmF540BCS72/B2BmH8DjxLSDLC8+qpWFzPkR0cRIPEEx+gK3TfsGW+7GwsrUFKDsNnBpg9KL+cDFCeCTfWIsvZx/Fq2SqizJJ/UzZn5J1hIe+MmKGKGWQ+Rn3dlj4Y1cU1otcGVzuWRR5woIRJbQjc0Dprl9gapeSSvenKJxZMhMLT4YjSazDCo6+7TH++06KrFZI5/tH2/DV5L14llyBDhFsiqChi3FEbg0HAUfsWxTu8A1m91K19d7nBTfIBEQCLDx4IjABJsAEmAATYAKmImAC4WGoK8I5HXGwTuM8CuHcitdxKUC+AnrP8TDVILXruYPfP5+N2y30u3opykpdrTzTHkdiNF5FJcDK3gUF7fQcvJHe95LOCeeWRCcAeZ3c4UQZiPliAtlNgIVHdluA22cCTIAJMAEmYDkEslB45DBIYnpa2oc4tAAj1iSj7+Jv0UY3mZW6y/piPHLYeLg7TOA9EGDh8R4gcxNMgAkwASbABHIJgdwjPJ5twZdjD+AFuUzV+HQyvm0oHgNo4DqLhcM24kXrrzGzS7FcMhV4mEwgNQEWHjwrmAATYAJMgAkwAVMRyD3Cw1TEuB4mkIsIsPDIRcbmoTIBJsAEmAATyGICLDyyGDBXzwTMmQALD3O2HvedCTABJsAEmEDOIsDCI2fZg3vDBHIUARYeOcoc3BkmwASYABNgAmZNgIWHWZuPO88EspYAC4+s5cu1MwEmwASYABPITQRYeOQma/NYmUAGCbDwyCAwLs4EmAATYAJMgAkYJMDCgycHE2ACBgmw8ODJwQSYABNgAkyACZiKAAsPU5HkepiABRJg4WGBRuUhMQEmwASYABPIJgIsPLIJPDfLBMyBAAsPc7AS95EJMAEmwASYgHkQYOFhHnbiXjKBbCHAwiNbsHOjTIAJMAEmwAQskgALD4s0Kw+KCZiGAAsP03DkWpgAE2ACTIAJMAGAhQfPAibABAwSYOHBk4MJMAEmwASYABMwFQEWHqYiyfUwAQskwMLDAo3KQ2ICTIAJMAEmkE0EWHhkE3hulgmYAwEWHuZgJe4jE2ACTIAJMAHzIMDCwzzsxL1kAtlCgIVHtmA3utHEkPMI+PclPJu0Qi1PG6Pv0y4ox9OTO7Fm6zE8jHNHhQ5d0LdjFbi9Y20587YkvDh3AP+GeKBJmxoo/K6ocubguFdMgAkwAbMhwMLDbEzFHWUC759AbhQeT05uxsmnAutiqN+rHry1sD/FiY2nIX7tVRcf1fd6/0ZRt3gYn5cfgu3x9IFjV6y9PgtNMtybKOwc1hJf7H2NFPW9TbHw8TJ8kOG6cvANh75GmU92QUBV4MMVCJrbMAd3lrvGBJgAE7BcAiw8LNe2PDImkGkCuVF4/D2wNL78R0CnbwG+A/8rPhqHhK+bz8GzFZ0zzfjdKziOryoOxJYYqsGjL7afnYQaGa3s+VK0qTsX1+k+mWdV9O39IXzik1FlXG/UzGhdOaD8813TMGl3CFB1IH4fWl3To6Nj4PfxNkQLqPpvwoWp1XJAb7kLTIAJMIHcR4CFR+6zOY+YCRhNgIWH7pv/nCQ8gMToIBzd+wKF2zVCxQLv4D+0exiKDz8k7nY0nh2EdT3eoQ6jZ1PWF1SLxlSiMAlRN45h74vCaNfYD07mPcysB8ktMAEmwASyiAALjywCy9UyAUsgwMLDeOEhf3oaB8lHK04wvL0X6jSugRI6YkCrjFtFnUUwLY5fvkJsMpDftQgK2gLy8OeIeJMfrkVdQf/UuTTlYe0Ad48CyEslFPfQDoajOzwLAFGPzuPoGaFf9vCu3wz1vTQ1JW4egJLfnBDrrf/9Ufzclv5HUpfwuTz8Ck4cvI0w5bgatKgLSRX0adr9hlZ/khF+6RQO3A6n+wrCXyWY5BG4dPIQbgmNpOIiNBGNkOvncES8T7gKolzLeqgqQFJdSdcwpdkH+P0JfVBvPALntKb/kcGhkAecaK8jJDRWFFgKLlLlQf1XM0qjffF+pS3S668lPPw8BibABJhAFhBg4ZEFULlKJmApBFh4GCM8whHwZRcM2REiiZMQZoDEVSspBBs/64RvD0hjKWgR7NIC8w4twQdiJPct/NCwIxbTwrniVyvR8/zXmHxcKG8o5kJTHt6DceD4N/CjWlRv/e0aDUCPsI1YEySX9MsRrRcdwfIOrzCraVssfKBnpqrrMjAumQta/7gTS3p4ikInvX5D6bpmV6sjmr4IwJ6nSZpGbcqgfWdnnNtxFqGSj2UlP8O+I1+J48HdhWje+hfc1gShKO+3QdmRf+Ofr8oBkp0b7RF54bOAwxiP2ajXZhkETeI9dBdOjaN7hIvEyi8f9sdPlwV/NclF/fps818YX00pbG6q7i+LnkML48jyfw3311Iefh4HE2ACTCALCLDwyAKoXCUTsBQCLDyMEB7qwGUZCjf4BIM7FkfcjaM4cdoeAw/NQjuaDEEzm6HVUgpJl3mi9Ygv0MIjFIfm/Yr9ISmw67AY1xe1pEW8RkjIZDKkpKhW2u8mPIQ5aFOoIupXKwLb0Ks4cFEpjGpNxPUtdbGma18svxuNsBjFit/GsSCc8gkr8/7Ysm0Ykua0QttfHpJokcGlXD3U8QEeBZ7CzddCv7wwaNd+TKok7Byk3W+V8BB2H2x9qqFJORfIH5zGv3eUi32ZLTz9aqBqUWn9ruizMRA/1aXqadHfvPthuNQvibJ+jVER57Fi5U5FP+w6YtXNn9Fi3xhU+e4gosJiaf9FGIwD3BSDwScbN+OLZH3CgwLrBzXFZweEftjAq3ZTVHR5jev/nIOojewaYM7xlegliEK18KD/p/6WqNEQ5VzkuH/yOBTDkPTXUh5+HgcTYAJMIAsIsPDIAqhcJROwFAIsPIwQHtsGo9jIIzqLcekM0GSfqvbdGVrsFhS/VLs5qRbPkgU8ynXHyh8/h5+3AxySk5HXQ5+rVdo7Hig6AHtOjUdlsbVAfFutL9YJnkqS3RGo+w60mH8Xq7qq+i3JmFXuS5zc/wWKC189/gUtGi2kntK6XI9g0tfvfapgfWm7SX+hT6lxOCrUKYnHkLp+afdH+4nSlFPuaJQXvk8j/kYiHNQ7HpLAes1YyC77R6Di4L1iBqxyX/2DQyMpr5nkfmksTOTq3qg48ZzYubT6aym/BzwOJsAEmEBmCbDwyCxBvp8JWDABFh5GCI/nf6BDg59wWdygsEEh/w4YOu5L9KtfTBGXoV602qFk/QYo66icMM8vY9/VUPqHakdDIiSMypiVjvCQLvSlosYY4aFvoS52W1+bafdbHfCt1R8DIsGgEJJLYkMoViV0E3rOPU39yYTwMNiWnr5JeGgJDIN1WPCPAg+NCTABJpAJAiw8MgGPb2UClk6AhYcRwoMmgfziL/h4yBKclgQq2JT9DNv3fIXK9zRuPnrnS8Fe2HxxGupJF/UsPDQ7CGEH8VWXEdgijQ1Rg2ThYem/QTw+JsAELIsACw/LsiePhgmYlEBuFB5XpjVG+z+eE8ciFMdwlOIYJEglb74L9l6LKzNrS74UUrYGYNHsn/H7kWdirEHFMccQ0GojGrdYjPuwQ5flV/BrC0MmykE7HnfnKftM+aO0xkmZo+pR5qhgGoN6ByMrdzySEDC8Bj7dTY5PFHMxfcdcdPVMQuzmb1B7WiZ3PCQB6bWnnsfW/k4Kw+hzA+MdD5P+rnBlTIAJ5F4CLDxyr+155EwgXQK5UXhAcsq1Xa3R2PXnEJQVfKbkd7BsQC9MPS1EE9uh47LzWNKagqvlcshtbSXpbjWLc0U8QTy+q9UTq17SXY2m4eiKXigsyeaaSPeD7pcGlxt3OGEWulrhorrP8OiG9Ud/RCNikHj6e9TttRE0FIkgyUrhIam70Uw8WPOhmElLf4yHJC6l6jhc3j4QYrIw4dLnOha1Ad2rTsRpcpGT1RqHM+sHinYJo7iN6hS3IXjOqQUJC490fyu4ABNgAkzAGAIsPIyhxGWYQC4lkCuFByVd/aVdK/x0Q5VVirIxOeZFYowmLa1WulfBz/+bc3Dz8EHFikUoNdM5HL8lpMHViJPHizqj0awgxTkSts5wsZcpZlQCZZVyGaBMhZuDdjyoa2E0rkYUNC+c9q3oMxD3OhJycRA1Me3segzQSQOsTzBlLsYjidID+9NJ8oI68ETDQT3h/zgAGw7chphcSyvG4wXZrRHZTfmwUmYrR7ig3y5D6XSTaMeqPTotFTJ3qbJ6JWgyY3mQC9xJcoETRCILj1z6C8jDZgJMwNQEWHiYmijXxwQsiEDuFB5kwKSH2PjlQIzbq3CZ0lyUdrXdVKxd+CF8VbsW53/8f3v3HdDk8bgB/GkBLVq34qrUWlddbVW0ziqO1llXFSdWVHCi1roFN+6NinuL21r3topaFVuxWkct7gkiKPIV0N/v3vdNIAkhCRgMCU/+aWvevHf3uYt9n9zd+6JWp5UIla/IVS/xrIvKPWZi6fCaql/dYxA8uzt6zNd+XoW8Gb3eGOxa3lYs7EpfwUN6MODNVb3x43jtZ1Y4OFXBoGUr0U++la70SssZDykB/QqP+kOxX0kagiwfqrV3QcTqPaJkzT0eYiYkZBHadpmN8+pj7Upi0P7dGKT3drrSycLxu89P8Fj7jxKo5Jd029/mmLd1Kr5XT5kweNjQ32psCgUoYEkBBg9L6rNsCqRzgQwbPNT9Ip5Qff/ZXVw5EYa8tb6As+qJ4km7TeMp4uJN9ZPHkx4n7s50PwLiweLyBa78VG3Nh2inx/EgPTVc9dRv3aeav7/qqt1MM5Of3h6f+DR3o/WU+1npFXyUC4U1n4hu9MM8gAIUoAAFTBVg8DBVisdRIAMKZPjgkQH7nE2mAAUoQAEKpJUAg0dayfK8FLABAQYPG+hENoECFKAABSiQTgQYPNJJR7AaFEiPAgwe6bFXWCcKUIACFKCAdQoweFhnv7HWFHgvAgwe74WZhVCAAhSgAAUyhACDR4boZjaSAqkTYPBInRs/RQEKUIACFKBAUgEGD44KClAgWQEGDw4OClCAAhSgAAXMJcDgYS5JnocCNijA4GGDncomUYACFKAABSwkwOBhIXgWSwFrEGDwsIZeYh0pQAEKUIAC1iHA4GEd/cRaUsAiAgweFmFnoRSgAAUoQAGbFGDwsMluZaMoYB4BBg/zOPIsFKAABShAAQoADB4cBRSgQLICDB4cHBSgAAUoQAEKmEuAwcNckjwPBWxQgMHDBjuVTaIABShAAQpYSIDBw0LwLJYC1iDA4GENvcQ6UoACFKAABaxDgMHDOvqJtaSARQQYPCzCzkIpQAEKUIACNinA4GGT3cpGUcA8Agwe5nHkWShAAQpQgAIU4OZyjgEKUMCAAIMHhwcFKEABClCAAuYS4IyHuSR5HgrYoACDhw12KptEAQpQgAIUsJAAg4eF4FksBaxBgMHDGnqJdaQABShAAQpYhwCDh3X0E2tJAYsIMHhYhJ2FUoACFKAABWxSgMHDJruVjaKAeQQYPMzjyLNQgAIUoAAFKMDN5RwDFKCAAQEGDw4PClCAAhSgAAXMJcAZD3NJ8jwUsEEBBg8b7FQ2iQIUoAAFKGAhAQYPC8GzWApYgwCDhzX0EutIAQpQgAIUsA4BBg/r6CfWkgIWEWDwsAg7C6UABShAAQrYpACDh012KxtFAfMIMHiYx5FnoQAFKEABClCAm8s5BihAAQMCDB4cHhSgAAUoQAEKmEuAMx7mkuR5KGCDAuk9eJT6vJgNqrNJFKAABShAAdsUYPCwzX5lqyhgFoH0HjxqulQ2Szt5EgpQgAIUoAAF0l6AwSPtjVkCBaxWgMHDaruOFacABShAAQqkOwEGj3TXJawQBdKPAINH+ukL1oQCFKAABShg7QIMHtbeg6w/BdJQgMEjDXF5agpQgAIUoEAGE2DwyGAdzuZSICUCDB4p0eKxFKAABShAAQoYEmDw4PigAAWSFWDw4OCgAAUoQAEKUMBcAgwe5pLkeShggwIMHjbYqWwSBShAAQpQwEICDB4WgmexFLAGAQYPa+gl1pECFKAABShgHQIMHtbRT6wlBSwiwOBhEXYWSgEKUIACFLBJAQYPm+xWNooC5hFg8DCPI89CAQpQgAIUoADA4MFRQAEKJCvA4MHBQQEKUIACFKCAuQQYPMwlyfNQwAYFGDxssFPZJApQgAIUoICFBBg8LATPYilgDQIMHtbQS6wjBShAAQpQwDoEGDyso59YSwpYRIDBwyLsLJQCFKAABShgkwIMHjbZrWwUBcwjwOBhHkeehQIUoAAFKEABbi7nGKAABQwIMHhweFCAAhSgAAUoYC4BzniYS5LnoYANCjB42GCnskkUoAAFKEABCwkweFgInsVSwBoEGDysoZdYRwpQgAIUoIB1CDB4WEc/sZYUsIgAg4dF2FkoBShAAQpQwCYFGDxsslvZKAqYR4DBwzyOPAsFKEABClCAAtxczjFAAQoYEGDw4PCgAAUoQAEKUMBcApzxMJckz0MBGxRg8LDmTn2Mo8s342qx1uhVp+C7NSQ6FKf+uI2Py9ZBhfxJT3Xn8FIEPq2IPm4VkfXdSuKnKUABClDAhgUYPGy4c9k0CryrQMYLHvewxXcmgr8eBL8Wn2jxnVo4CMse1cGYsc1R5F1hDXz+7o6JGLM/HzwW9kR1KPXZ+0T1gWxOKFWwEEo3aorGpXPD3sB5og9OgUdgZnjNHYA6Ig3EPziOhf578NeTl3htlxnZ8hRD/Y4/oXUZE6L78CsgAAAdNklEQVTCrUD0GXUYhTyXYGQtPYU+2o5Bg4NQYsRk9CpjqFZpCMdTU4ACFKBAuhdg8Ej3XcQKUsByAhkveNzGqoETcLbyKPh3/FQL/tjUHvB/WA9TZ7nhszTsktB1wzBkbwH0WSsCA5T67MpcDT0bFhOlPkfoyTM4dj0C2b7pjql9XZBDb12Uz/1ediCWdS8DRJ/GlIHLcSV/LbT+viwK4AUiH9/B9Zyu6OOqHbD0ns5Y8EA09k0YhJVoi2Wj6nHWIw3HB09NAQpQwJoFGDysufdYdwqksQCDRyJw0uDxGpF3/8W1yOz4zNkJ+bJnTjw4NgpPb99AKJxR6tN8yJEpaUe9jnqKl/a5kCeL9gyB3uBR0B2bh9RMOEnk0Rnos+w2Kg2ciYGV9MwwyEHhD5QbMUvMQIiPnZiNHwMeoemEyXAvmopBoxE8Bn95F9duRCFnieJw1mhz9L7J6LoW6BowDE1MmERJRS34EQpQgAIUsHIBBg8r70BWnwJpKcDgkUzwiL6AecMCEBTtiKyZP8Tb1zEo3X0hhlYHIs8twXD/84j6KCsy4zWi/5cHLcaMg5u44JfCy6I3ddHo+Qnsuh8Pp0ZJZ1ZMCR7AFSzsNQtBZXthbd+KSYbA0x1j0XvLx/Bc+TPqS7kkeBE6zfobJbuOw4j6epZoycHiL1TRCCZyPc5/pczwqIJHbN48eB0dCwc70a6Xb1Gw6S+Y5lZMWfJ1bzP6DzuEwr0DZAe+KEABClCAAroCDB4cExSgQLICDB7JBA9pBmG5HbyX9ENN+ao7HvHx9uIC/BxmeC5FRCs/jGkiXeBHYvfYIViTrSsCB1WTg4f/tU/QuFc3NC+ZA/b2WZAjFTMeUnmH/HohIPZHrPRtmGRp099LB2LsJRf4zemA4nITInFs5hgsuvAK9vk/Q23XZvihQVnkV8/EmBg8srWdggnNpXbFI3z3dPTZ8Aotp49DuwJSGScxsdMqPG7qi7luJizf4veOAhSgAAUynACDR4brcjaYAqYLMHgkEzyurUbP8eeRu1479GxXFcXU4UGeWXiCJhN6ob5qudHdX6fD7/LX8szBbRP2iZg246HMnvg/b4YFk5ojn06X6t+PEo/o0D+wZdNuHLzyFK8/yIPafYajn4vYJWJi8NDaXB5/HOOktVUeC+FTV0pfSvB4oGcWx/QRxyMpQAEKUMCWBRg8bLl32TYKvKMAg0cywUP6xf/0ekxZexqhkUCOUt+ib383fBUi7aW4BsdsjnDQtC/zIwL6VcNJswUPZfP43iLd5JkU3dfJmZ6Yc7du8hvhY69jxYgZ2BPxNYYs84JLaoJHkqDB4PGOXzd+nAIUoIDNCzB42HwXs4EUSL1AxgseYdg6Yjg253THWrGZO3Hb9mNsHDYK252SXui/fhKMJX6LcOZzsd/C9SI8Jt1B49m+aJ03qbspd8YyZcYj/uZ6ePseR173mRjbIOlObvkcBwrDe5VYCpZM98eLDertl9kpd89KTfCIPoBRnluRTb2nQ/7vzciUMAOS+nHHT1KAAhSggG0KMHjYZr+yVRQwi0DGCx7AQ7Exe+CWF3DxHIK+tZyQOf4V/ts/D2M33EVJzyniORZZEf8qCq8zZUdWOZlEYqfPYGxyEsHDC5jVeyH+Kdcdfr2rIo/8/ms8fvI/5HfKoSyPMnJLXr3BI29rLOhZSe7TiGt7sXz1CdzKXg8TJruhuL7HZshLvh6jpToAPb6BkNg8+LxgbrnO8eF/ibC0EEfsv8fcyS1RULUxPHunqZjwfQ7RvlDsnDYDG57X1Npcjppe8OlWCfk/fIbgpVMx+Zy47a/qOSG4skKErmuondo7Z5llxPIkFKAABSiQngUYPNJz77BuFLCwQEYMHlKQOLPQD3ODwhGn9rf7GCWa9YJvm5LiTlXA0z2T4L0+FGJNFezjXiD2owrwmtIPdcR2ifibO+EzbTduvPwQjo5ATIxYiuXqhaXdvkx98HiaOBDsMuWEs0sj9PFwxad6btMrHxkvlj15rEJM+9kiSIgZkb9Wofvsk4iMTzyPQ96v0G2IJ+oXkpLLY+wYPQbrQpUDHHJ8jrqlYnAg9AuN4HEeeSt8jJuX7+P1G3GQvcYeEfGfV1cMxujgChg/vwtKW3jcsngKUIACFEifAgwe6bNfWCsKpAuBjBk8VPTSszgiX4v/sEOWXMpMgdZLzISER0TjrV1W5MqdRecp4mIj97MIvBIX6Jly6H+OR9p2cDzOzR+EqffqKjMacmHiuSNPoxAr/Wvm7NrPHVHSilJncY+spO3RqK3c7nh8nC+7HMKUj4rb+w6YhRt1JmBmm/xp2zSenQIUoAAFrFaAwcNqu44Vp0DaC2To4JH2vGlbQqTYc9F/F3L1nYafXTQebpgGpUaKhwd6bsuJnxeIjer6ln6lQZk8JQUoQAEKWJ8Ag4f19RlrTIH3JsDg8d6oWRAFKEABClDA5gUYPGy+i9lACqRegMEj9Xb8JAUoQAEKUIAC2gIMHhwRFKBAsgIMHhwcFKAABShAAQqYS4DBw1ySPA8FbFCAwcMGO5VNogAFKEABClhIgMHDQvAslgLWIMDgYQ29xDpSgAIUoAAFrEOAwcM6+om1pIBFBBg8LMLOQilAAQpQgAI2KcDgYZPdykZRwDwCDB7mceRZKEABClCAAhQAGDw4CihAgWQFGDw4OChAAQpQgAIUMJcAg4e5JHkeCtigAIOHDXYqm0QBClCAAhSwkACDh4XgWSwFrEGAwcMaeol1pAAFKEABCliHAIOHdfQTa0kBiwgweGiz+06YhitXrxvti7JflMKYkYONHscDKEABClCAAhlJgMEjI/U220qBFAoweGiD/diph8mCm9cuMflYrQMjL+G33Xfh3KQxvsyRulPwU+lI4HYQ1gUBNTvUwKdpVq07OLH+FJ6Xa4RmFdL7oInExV17ccfZknVND3VIwWCQ/064jJw13FBL7yCypv5PQbt5qE0KMHjYZLeyURQwjwCDh/7gYShUqMNJqoPHlcmoUn8Pmh36HaPLALu8K2HoUd3+rIMpITPQVPXHMVfXo5/XDBy7+wp2eYvju4FzMN2tGDIlfCwOD3aOQ9eJe/BfmDgm6yf4wssPO3pXBq77o0mb5bilU0TR7oHY3b+E+NO96FdhFI7oVqHuBFye08j4QAs7gRkDxmH5uXuItsuDkg37Y8G0tijuYOijNzCnmRsW39Y+xtUvGPOaSH9m7H3pGANt1i36ymw0dFuDUgnnN94s6YjnO/uj/qh76LxlG7xLJvOZrd2Qvx/g/2A52ohDYh8ew7xfJmL5BeHxJguKuHhh1pIeqOyo/fmYq79i3Mhp2BnbHtt/64PkTq98ajs6FRqI67334uyoL/RUJJk+lI5M6McYXF07Cv3nHVPGiBhHLUcuxrjmBRPGkTTOhg5YgMOh4UpfthiGlWObopDBvtStzj8YX60Rfmuir66RYkw2wci7Gm1Ok/GZtA5hv89Bf5/VOJua75DR4SLZ/oweU3/H3Wh75C1RD4P8J6PD54lwBsuX/05YhJLzbmFta32FGet/oxXkARR4bwIMHu+NmgVRwPoEGDyAlC6vMnfwuH0yECfvqMdOPC6tmYAV/zVB4LUZqCv98a0FqF9rBsIbDMe8oZXxZLUvhq74DzUWncTK5sqv32Hi4rfagD9RqssYjOtVGVlvXcDuxwUxqLUIHqpfU6PURYQfxjS/Iygw+gT29Sok/lT5NTWhCnGXsWrsGoQ2X40bs2sbGdS3MaehK+ZnH46NsxvBKfoKZnf3wvr843BlS0fkTPbTu9C1SF/cajsZPSolHuSc8IuvsfeNtFmz3LgQjHdtifk336BBshd2eioaJi72agzEwRfO6KsKiXqboxU8bsDPtTl2FnJH1y6VUPTWCcyasRoh5ScmekQexshWg7Hin5fI5PgWMU49cOT0MJQ1KG3swlOnD+Vz3cX28f4Idl2GUP96wM6eKOrzEM3de6KJKOxy4CRM3/cG7jvPwk8MExGB0fXzsXjQrDN6Nxbh5vJmjJ15AG+6bEXIRI1OMvrXXPLBQx6n/Y4g6lOvxDanyfjUqYP8HVqIbKPWiGCbD9GX/dGt+0Y4TbyA7V1M+A4ZafMtkZarT32Ghn4LMcHlFTaN9MSUS9UQcHYxWkinN1Y+g4fRUcUDrEeAwcN6+oo1pcB7F2DwAFK6vCo1wSM26hH+PnMJqFAV5Z4tQE2NGY/ETo/DXxO+Q+M1RTE3SPx6nld552CfMuh0qg12/TkOLvKfxGGP15f46YYn/jjsjaJx+9HzC0/xa/hxHBtkZLGPfDE9GKGdt+PoqAoaMyaqWqgu0ld/Nh2nV7eEqgoJVYwJv4/wGMAuuxMKZhe/5t4XF3Qu61B9bxDGfakcFhvYGUUGOSTMAOgf1NKF9HgU2HIB06vrO8LI+ya3WTFtuh8odPM/A78o69YhHFu61MHw0HxwuBmP9jrBIyb8OoKDw5Cv0tcodayPxoxHJMLCsiBv3sRfuv8aUwPfLSuLgLviIlQq5nog/I46o2OX6ngxozZcdzdOUfA42T9X4lgqkD1pH6qaEnvQG2Xd/0QXdd3DwhGWN09in8ZtQrtPh+Ce90EEDZVmvsT7YeL9hE6Pw/r2JTDwXl+cODHY8IxMXBQeXvoDISiPb8pHYG5tPTMe8tjzQaiTA/6Nb6u/ze8yPg3U4b4IBhXXfIP9Z0fjK9V3SG6bwyw8FuMcJo4n6XscGnIJT/OVR/liBZBD7mYl5GyoFYgrU79R9HXOZ7R8jeCxpI7G2MqjniZLDJ6m9v97/58JC6SASoDBg0OBAhRIVoDBIzF4mLq8KqXBI2xrT9QccAAvs+RBDrtXiP7gI3wQkQ3dtC5mxbKhQE986/sKw/asgUfCEg09FzUJF/fArNtr0OHcCJRpcxGe53bDu7CBwR5zAT4N2+FwteX4dWqtJKECcQ+x3qMhfF8Nxt4N7tpLpUQg8WvcDvMuxyJTzmzAi+zw2C8tFTuMXsU9ENxpJ06OUYLMrZnfo+rmOoYvpuWL3vkol9xMgrH3T5nW5tiL41Gz6Rl0PNEd56oPBEyc8QgT4cnFNzcWbyqIkY0Sl8VJoe+vKU3RdM6/sM+ZE1nfvMIbe3tERLgkE7RUIfFiF70elyekLHgEFSyCj1++wNvM8YgMi8HH30/HyeVJA6KY5sKqNhUxHAZmnm7NQZ3qc/HJvKtieY++tVS3MaPet5hReBZuiYvzxGV9OmNMhIWu34ox89IReXPYIzr6A3z0QQSyd9VcahUuQkwt+Oaeh80Fx+I7fWHrXcansTqIEPaZCGGd9x4WAVlqq9K2jXVVdTQ6nkS/z3OD29QQxOfKjsyvoxBh3wALTi0QMxrK7NwVT832qkKbOtgYK18VPP7nXASvIl4hs/h7IuJ5PEp4b8XBodL3Sgkepvc//6dHAcsJMHhYzp4lUyDdCzB4pHHwUP3yeabZGvwxqxak3y9jjgxCpU7ntX5Ffy6Wwbh4HYB92ebo0NUN7q2qw1n+sTOZJTby8p5/5SVAQ0OkGYY38PavgL/nbMbFZ4BjoTo6a8z/gV+tpph9rxCqt/8RXh26om45zV/Lxdr7bjXhuc8B5Vq0xU8dOqJ1zSJyfaWL7YN9KqLTIRfMOhaADgWlC7c4xMY5IJP417C9P6OR1w68KN4CPdu9xdYpV9B02y4Mly/wknnJF1pL8ES6eLcXx+Quj24+fujnqtpvYOR9ZVbFSJvjRCgq1xMPhp3Frz/9Ll+4mRQ85GUxK/HVxiBMzzlDaz8OVBfrOXxPYrOnVFcRGP3b4uuJufQHjyvTUeO7hXAccgSH+iWdjUpp8LjQZiWC59ZRxtHvv6Cq2258s+wiFjfSsZbrGYCS+t6Tu0TV30GuWPv3HDTQ01XKmDyN+qsuYKG+A1RjQ559+6MJNp2ahm/lih1D3ypdcbZd4oW4vBRp+ZfYfHYSck7RF7bebXwar0M49gwQ43PrS5Ro/RPc3uyA3+XG2LF/ML4SbTc6nmTPdfgq8Dhm1xaNjDuDwVXccNpNmi3KKpYbVseUrGMRst1dFehjsObHLzD4nnpJmeHyoQoeeUeexo4+qnEV0BGVx0bh51P78HNR5e8Bk/s/3f+fhxW0ZQEGD1vuXbaNAu8owOCRxsFD/iX1ONpoLEVSLjI0f0UXK5Z+HYPRvz0SvfkKoaeDcE0syln11wxxQWg8eLTaJi7kFjyEs6sHvL1aieVYwVjg44PA+3UT15jjPOZ3X4oL0nh5dhkHzjxCudGHxB4P9cXwA+wYNQ475SrcwqkTN4DWixEyu564uFZmNc6KWY1gMauh/VJ+Ce68LAvc3J1waOkOUfev0GvhYoyunUdchD7DPWltlvplnw1O0vIgeV3/IxSuXQZOT65g99b5mK65b8XI+/IFu8E2KxfWA2NG49yGtuJiUHFMDB4xCL/3DIk1s0O2/NLSGeUCeHu97coMjk5fPV/RFqVGZlZmmtQX6zqbyxPaamTZmnRc0uARh8hHT/AiPpHMMU9h5HHUNw5C4FOlOXY31u0Xw7Ms0pmVPUG30GXXfozWFxD1LHmSlhk9iXqjUbHc+CTPRQwu74ajrTXroLO/Qg5fO1FvlzLboD9svcv4FCHAWB1EX8xp7YGlWdrgpwJHsXirGN9f90DA8mH4ViwtMzaeXFaLpVoLiiHg4DDI22HEa/fAGvBxVJZqxV6cjLpNF+G2NKuZGYiPFjOb8TGIqzgW10QYyWmkfHXw0NpcrloKh5k3sNFtl56bCyTX/+/4PwV+nALvKMDg8Y6A/DgFbFmAwSONg4fGzIR0Byv5pSd4aI2xsKVoXGECHCZeFL/U39Z/cSmf9zFGSMurzmjfVUk+l+qX+aKLbooN6LojOA7HB1ZF20PfY9ulSaihZ4CHBbRE2bEOmPTPJnjkMLCx+bwPKjS/hN4h2+El7w2IwfmpbfDjPGDACVG3YKluGvfL0txUrFXuA/lX40kFVGvuk9RJ5319F/sabZ4N8Wu9dxj6bp+H1nK99sG7ynhgTJC4AJUumPfJF3IHE8pRNpC3+s0VDQK/xuJtg+RfwnHDHz90PA7XdZswqJITns2tJwJPce3ZDX11kS40W3TElKiO2HNkmHIuPa+kF+HKRft8jbt9KRvi9fWB6tgSOmaR69CynA+gsXFas+iwvd5o0PMIys4+Js4rwqHuK2w/en3XG4fKau/zUS7OE25BANSXyoWeC2LN4AE5yAVWnI8dv1SAxHB9Xlu0P/otNmzrj0py2EuL8akdfs6NrIKmF3vi8q7uyoyEWNY1+YdOmIu+OHWgN4oaGU+/hIi2BzxFzlxZIE3QqV+F3dfiwM/KXcZio0Jx9ugfYhGXM6rVLYWj7pUwOtd8PFjeFEbL17u5XLPPrybrPF+3//UPNf4pBd6bAIPHe6NmQRSwPgEGj5QFD80eNul2uvKMxz401txEbSx4qH6dD5U3/RYVm5xLo88LH+WXU1UFgoZURKu9quAgl3FSewN05Cr88IUvsiWzp0G+iAwonbjhWXfoyhditzDg2BEML6n8orynkcbmWdXx8nl2NtDYtCu9oTu7YMr3QmdNfJKP6LxvpM3D/9G5SNY8n3zBLDYU63lt6VIUfQ7pr++n4la2Bwr7ihkPqAKZ6rgkF63KxvT+oc2wYfsk+Rf15F4pXWqlfTtdpV9Od1JvDldKkS9yN1YRd82aj8Y6F/XKL/Pr4DTuV2z8SfN2zKoaqmdp8vsk3eejtxH6xobmRb9ywZwY8DRPkvzdwt59fGqHHynM7RCzLlozdpr9ZmQ8zY8SM10TC2Ltv2JZmknDWXwHig1GtBz+Hshh0mD5+oKH/B0eh1zyjwf6gqf+/jelejyGAmkpwOCRlro8NwWsXIDBI3XBo0zpkhg76hfjvS/vM/DAoaqTcDigA5zto3BpcXc0n/hItblcPOjs6GV8VEHcHUm6g424M8/piS3EKqd49FJtvFbuTnQEVcWtTZe7FcSbqwvh1nQKHiZs3g3G8K9bI7DoUOxd3wulHcWsw5gmaL7MCX5/B8L9eRD2h38u7jak/Locc2c9ejQYgaCqs/CnuADPKZY1HbmUGV9WKimW9Ei/3J7FhCbtERCvvs2reo9HWYz9dQW8SouDxBKqcORGtmN9UcrjOGqo6ibveVjbDTWGPEVfeW26fqLnIefwn1MplJPvyhSDO/vHo724val6L4Sx9yGWkxlsc5Jn7KUmDIm664ZE1a2NYzw2YI+4wM8Rfxf7RnSE+0b1LIgSOvpc+gazVoxBbY3QkXAnMA2SlAaPoKpDsXNVd5TPHo+r/u5olDCO1MFBucPZmXZJb4GrhI4VyOS5BMu7fi7PPigvR+T5JDccVaFjSabuWL20i9bNBZTlXvr6MnH/z/SD/ujsbI/Iv5eiSwvN8an9uSRtFg9gNM/4dIH+OhRX7gJ3VPSJeo+SuJHCmi71MPiJ6s5wxsZThHJL6w+892Dn4FLK3ifxXb0T9n9wLpgDz29eRlShssq+rJhrWNS5DXxvNsM2saelhoNq6Zuh8lXBA+2WYMukBuLviYc4PKQdOvwmxlWwuMOdatbRaP8b/xuJR1AgzQUYPNKcmAVQwHoFGDxSFjxMmuXQGQ6xF6ejUauF+DtGrI+3c0SxRtWQede/qCcHiwdY0roefE/HIGH1vEMRtJu3CdMTHuymvqNOMCLkg+yQq7YPdq1JvPNU7MUFaNVhBs4pBwDSORbtwNxGYinNsVEoL5aEPIlTV0x8vnJ/rN3orTzU7v5ytKw9Eaek+qleDs6t4b99Mn6QN5JLF1nSGnl3TDkfodRTtKPlon+wqEk4jo/sDPfVVxDzoSMc38aIfxZBsymrsEDrAYfaKNfnNkfDaSFIKFKcr1yXxdg4UbnblrH3pbMZbHOSr6SZgoc4b9jW3qg7aI/i6ZAP1et9hmv7PsY4+QGCSjn6fuGXZkx0H/6XsuAxGI9r18aj00eVsu1ywWXIKmzrl3hbZOV5EtmUwKkTvpIslUowclWWjqkufnWe6SgfZfD5Jwl3PJPGsB0cP/sONT/ag+vqO0bp9EWSNptpfCp3XUumDuIhl8Pb98Qq8f6Hjo54GyP+6dwYU9fNSXjIn7HxpNxEYSvuvHVEtkyxeBGbCdV9D2N790JivDaG6+QrInarvn4654ax8mX7bShcLy/+PCa+S9KXTPM7LI8r4/2fZNjzDyhgAQEGDwugs0gKWIsAg0fKn+ORur6VNjNHwl7vmnZxxoRN2Kpfn/UVojpG3y/nyuHqjcn6zpG4aTm5z6uf0QFHaQ+E3p+3VfWMVW3E1qik9AyFxy/EhaeB+idpk3qDt3pjt+4Bxt431ubU9ZRJn5LbG4+c0kyBSR8w50FGxpI5i0rBuaTx89xB9XyXFHxOe+xqPCNG5xymjE9jdUjYIJ/sGDf0HZIqZGBMqr/DBr4/xsuXvsbGxlb67P8Udzk/YLMCDB4227VsGAXeXYDBw/Qnl5u8vOrdu4VnoAAFKEABClilAIOHVXYbK02B9yPA4PF+nFkKBShAAQpQICMIMHhkhF5mGymQSgEGj1TC8WMUoAAFKEABCiQRYPDgoKAABZIVYPDg4KAABShAAQpQwFwCDB7mkuR5KGCDAgweNtipbBIFKEABClDAQgIMHhaCZ7EUsAYBBg9r6CXWkQIUoAAFKGAdAgwe1tFPrCUFLCLA4GERdhZKAQpQgAIUsEkBBg+b7FY2igLmEWDwMI8jz0IBClCAAhSgAMDgwVFAAQokK8DgwcFBAQpQgAIUoIC5BBg8zCXJ81DABgUYPGywU9kkClCAAhSggIUEGDwsBM9iKWANAgwe1tBLrCMFKEABClDAOgQYPKyjn1hLClhEgMHDIuwslAIUoAAFKGCTAgweNtmtbBQFzCPA4GEeR56FAhSgAAUoQAFuLucYoAAFDAgweHB4UIACFKAABShgLgHOeJhLkuehgA0KMHjYYKeySRSgAAUoQAELCfw/CGU44/IoW4gAAAAASUVORK5CYII=;" vertex="1" parent="1">
          <mxGeometry x="90" y="460" width="467.58" height="150" as="geometry" />
        </mxCell>
        <mxCell id="nXIX7s5pYzxYk5EkUw8A-17" value="" style="shape=image;verticalLabelPosition=bottom;labelBackgroundColor=default;verticalAlign=top;aspect=fixed;imageAspect=0;image=data:image/png,iVBORw0KGgoAAAANSUhEUgAAA+QAAAIxCAYAAADE2XI5AAAgAElEQVR4XuzdB1gURwMG4C/SBKQp9gJ2RezGXqOx995r7B27Yom9967RxF8TEzUm9oIae2/YNTYUbCBFAYHD/LN7d3B33FGOKn73PP/zR7jdmXlnb7lvZ3b2m/Dw8P/AFwUoQAEKUIACFKAABShAAQpQgAIpKvANA3mKerMwClCAAhSgAAUoQAEKUIACFKCALMBAzgOBAhSgAAUoQAEKUIACFKAABSiQCgIM5KmAziIpQAEKUIACFKAABShAAQpQgAIM5DwGKEABClCAAhSgAAUoQAEKUIACqSDAQJ4K6CySAhSgAAUoQAEKUIACFKAABSjAQM5jgAIUoAAFKEABClCAAhSgAAUokAoCDOSpgM4iKUABClCAAhSgAAUoQAEKUIACDOQ8BihAAQpQgAIUoAAFKEABClCAAqkgwECeCugskgIUoAAFKEABClCAAhSgAAUowEDOY4ACFKAABShAAQpQgAIUoAAFKJAKAgzkqYDOIilAAQpQgAIUoAAFKEABClCAAgzkPAYoQAEKUIACFKAABShAAQpQgAKpIMBAngroLJICFKAABShAAQpQgAIUoAAFKMBAzmOAAhSgAAUoQAEKUIACFKAABSiQCgIM5KmAziIpQAEKUIACFKAABShAAQpQgAIM5DwGKEABClCAAhSgAAUoQAEKUIACqSDAQJ4K6CySAhSgAAUoQAEKUIACFKAABSjAQM5jgAIUoAAFKEABClCAAhSgAAUokAoCDOSpgM4iKUABClCAAhSgAAUoQAEKUIACDOQ8BihAAQpQgAIUoAAFKEABClCAAqkgwECe7OgReHX5CP55nR21G1ZATjOpwEB4HjiMO0HiP/NWQadqeZO9FilRgOLJUazb9y9sKnVE90oOSV7kq1Nb8OuNCJRs0Qf1nZJ899whBShAAQpQgAIUoAAFKECBFBUwOpB7nf0DZ19Idc2Dah2rIp9WtV/gzPbzkH+djgKnUT3j4YYiffYiRGxs23YT7i6qIf7rPmbXaIbVXuI/6y7Ey00tjNp12troLXZPmY4db0tixMr+qGiqXTtFyDPcuOQlLkVkgWvtEsgeo/Jh8Lp+BEeP3cINr0BY5CiCMrUboF3VPLBQvzf4HOaN2orbeVtj5aR6sEtbAKwNBShAAQpQgAIUoAAFKECBBAkYHcj/7F0Yw45JZdXB8ufr0Vqr2L/R02k0PKSffUGB02fvDEzd9xoo2xsbBpTXgbyK1f034TpyoNnUyWieK57OJ8fCpftuSIPh2Xv8jqvTyyVrII+9DfGssxFvU1xdh74rbyJr82mY3ypb1B7C3l3H3i27sPf2e0TIP3XBgM1DUFOzjOAbWDd1E076KWBibg1rkcDDQoIRFpkBNuW6YfHQSrBWvf/Blgn48QRQb8Ic9C5iREW5CQUoQAEKUIACFKAABShAgTQiwECu0RFRFxn0XUS4twBVG66HF/Ji0KHjmFg8vj0YgcA7p3DgVU40ruUCO3nKevKNkMfahvhWOcHvC8aRuePw84OcaLdwElplUe3g8lr0WO2JCFNbOH/rApvbF3Drg55A/nwH3Nd9QO1+HVHb2Qry4HqgGA2fuBU3Q3Jr71O8d/i0Ewgq3wcbhpRXvpcvClCAAhSgAAUoQAEKUIACX6BAigfy0BfncVTMdQ+WsKzzonKtCshvK6fUqJfWexxdNYKs9BYRcN+8w0cFkDFzLmSxBEL9fPD+U0Zkzp0Z4p96XtI2d3HpxAP4qn7rWLQeqpfVeH/ELfz4XWtskKaRV52IiwsbiP8wQaZs2eUQHfpHLxQbcwaRyIWuv/yGoYXFrzM6ILdcgffwfv8JMM2ErNltYR4RhNdvPwI2WZHDMlT+70hpb9K/5bbqBPJV5XHW4xy8BIp13qr4vloejXaEws/bH2Lv0eVJ/60uU/qxygFxtEHZdNUFglt+8r9ilie9JQi3Tx7CLRVWDCtdYYUIzwNEeHash/lzW4ubGFSvh8ex1bcAWlV0hrWpF7aOmYsDvnoCuUIBhalpjHB9Z/NYzDr1EaV/WI1x1dQ7vYf1w1bgn/CyGLW2L3TnMejtfv6QAhSgAAUoQAEKUIACFKBAGhRIwUDuh0PDWqL/36/lcBr90pjyHvEa2wc1x7gj/lrvMXGohyUea9DaUdoqOsy6jtyMDlfcMO209H59U+el9/+LxfWbYvED7VKl35gVHYr9R4bBZd9AOA320KmX9A5pNHw9TAc1wvInenpPPZK+ux/yjBDzqK2aYeF6O2zotRUPxPzsfAP24lzLvaqRddW/JxTTagOy50He9y/xQjmfW36ZFR2Ev/aPRGn5OoWB6f/qMsU76i19hJ/NYmuDakQ/9Dpmt+iC1VLlNF6a5YV7rkXrzotw44N2e+W2yHXX87q+Ab2WXwcq9sPmgWX0v0fMLTAYyPVuocDxBcOw8W5mNJ42E101FnE7t2wIVt6wQ8PJs9C9gIHiNH7s/8IHu70VcC6cD9+pR+9j2czzxFU08PgIv89AkZplcbuRbdyF8B0UoAAFKEABClCAAhSgAAUSKJBygTxqcTMT5KzeB/2aOSH4zkmcOW+N3h7z0VhU/O6c71B/rVgKziQHGgwfinrZ38JjyUocfh0Jq6arcXvV9zDXCOQmJiaIjFQHbUOBXAT4+p1w1L4qChUtju9KAJc2b8Gf96UQb4WWP93EyoixKON+FIG+H5X3OZtlgqOdtJRYPvTZPhsY2xXr7gUgIFQe54alvb0Y8RX/WetH3FgsRtKjwrEJTEwiRZ2UvRCvQG5iifwVaqCYWJTc/84JXFAl8+j7zeMZyDPG1oY/xIh+IP7sXVPc9y+Wl7MphZ4jOqAE7mHb0q1y+C428hg8RphhReOamHdHVN6mMNr17YmK1s9x8dQ5vK64ANuHFNJ7ePnumYVhu72Rr9UMzG1uKPEmMJC/2Y/xk/bDy6EOZi9oB2eNkp9td8fEw+/h2nM5JtaKe9K6574LqHA2DI3b1MJfFeL6hLxG96kPsD2DDcY2cES53DnQOq95XBvx9xSgAAUoQAEKUIACFKAABRIskHKBPCq05kXfvYcxtZT2NHXgOIYU74+/RF4s534Be/oqg124mCpeQEwVl0aff763GPU0p3sXa4fNc4fAJV8mZBLTns2zG5qyruMSsRNdCk3ASXVolkd+Y1+ILupigb57yKPalhm1JyzFlGYFkN3GDKGwQQ7vpbGPkGverx5xUUzN7optb0R1snTEH9dmoGp8R8hbSW2MpQ0+a9GwyiLcRmZ02HoGi2oo/W/OqIUmG32AEqNw6UBt/Kxa/d2q5hyc+19byJMS4nipA7L21HLdjRIQyBVPsdV9EQ68sUHtsTPQr7h26FacXIbuPz9A1gbjsayj9vr++qqqHcg/IyDwE4IymCOf1Wf4vA3Eg3BbVHKyEJdnpNdLtJzwGAfyO+HfttlgapkRuSwziAMxDHef+eONjR3KZrOEvUlcKvw9BShAAQpQgAIUoAAFKECB2AVSLpD7bETT6vNwQx49NkO2kk0xYMIwdFPfLx21aJoVClSrjqI2qor73MBBz7fiH+oRcOMWRAv1u4kzR5X3kFvnfYdtnZfirPjv6KnYSRHI9Sz4FtUuA1PWdRaQ29O3GAYdkZC+xQzPX9HLLp4j5HEF8qiLBtlQqmEZ5FbxfnhwBmeeiqsg+frhyOkxeDuqHLruVM5XN7F0Qq0ewzF2cEO46tznr3lYJW0gD8SpxdOx9lYYcjQYhfkd88dcuO3sSnTeeNfIQB6AifNvYqHCEiUjP+FWyH9yU+xci8K7iwLtpTCu0bj81UrjdL6XqPS7H7zFFHbZxcoWywaVRb94TH/nCYgCFKAABShAAQpQgAIUoIAhgZQL5KIGoddWoHv/NTj/Nvoe5qj7l/9Vr2JuoKpRI8YJDeTi3vVRbTFw50vVY7e095/WAnnMkfikDuQGfCtOwe0d3WAv7uPfO74r3HY/hzxDX06gDmiw6CB+ilo+XXsfSRfIFXi8fQamHfaDbcVemD2wvN5njSduhFwVyP0zYdro0pho8xbtZj3C39Y5cGVsQeQU9/N3XfAcJ6JGyEMwb8kdrAmzw2q3Uuj8/gHKrn8LL2dn+PR3grjTgC8KUIACFKAABShAAQpQgAJGCRgdyKOmOotVx/vuPSmmoGuUrzEqnKWzWH17TiWNX0qrfB/CqgWLseGEMiS7jj2FQ/W3o1a91Xisvq+7nqH2JCyQhx8eDtd+BxAi9ltr+k4sb5UdER92YXjV2WlyhDzm892TKJBHLVzngnHn/8bQuJ6jHvoSZ7cux7RVe3DPXyTzqFsGYvZL0txDLsL4ngWYs1usIVCyKxa5VdUbxqXSE3cPuTqQ2+PnOaXRGap/i+fLXxlbFKXUU9YLF0R4b7Fe/OtHcF3mg4fqf8MfY+Z6YpkiK466u6CWUR87bkQBClCAAhSgAAUoQAEKUAAwOpAjapE2kdUqjsbeLf1RVHrmWOhDrO/VEdPPS9OerdBs/RWsaSA9NywUoZaWGo/zEo8ZqyoeM+atnsodAveKHfCzuH/aquYMnNzUETk1bjMPF9tDbK+5qBv0PS9cp1ejR5yrY+G/m9FR2qfee8ij72FH2Qm48VdvrfunfVa1QMX5d8XG2vdgy8Vp3B8f4xnlcU1ZrzoDj37rqHTxFfe21xD3tosZ5Mp7ugeIyx0agVyjXqG/dkfhCefl4uVV1uUp67G0IfA3tCs7BedFts7X4w8cm15W6xFxocLX0tJU6ibx/9HwUffwG1zFXhSrWmXdouZQrO1l6AHtsd1DroDPkWWY8ttTmJTpjPnDDYdxqZUJXWVd+x7yBAZy/yei31/ghm4gFwH+/PiifOwaz6IUoAAFKEABClCAAhSggNECxgdy8RirFY3rixW5o+Y1w9LGHOEfQqMeH2ZSYBAOnhgJF3VoHXMZjtmd4eoqhmefXcZp1Urn6tD+XITemiL0ymuZW9rDwVq1clZYEHwdesn3OLvoPsN7U4tYGx8uwnJh8UiySLE6urS6exfX59j/u4dy1Fe8oqesv4peYVz6hVhp3UZMSO62V/XIMI0LEPJK61JbK87Ac6n8xATyqLYCwf4BqmniNmL194tYWU/nmeXqFd7FeL9/QLRzdCCPrQ0R8BhWCT3/Vt4fbmaTBfJC8uKlCBYryFedh5ebimJ2jZbYHGSPPEXLo5CDP24fu6x8JFuxYTh7eCg0nj4W7a5+DnmuJlg+vYmBheAMB/LgC2swfN0thJhlRlHX3Mik26MO5dCjWyXVfp9iy6gFOBQc/+eQJyqQww/DZ98WU9ZtMKt3MTTxfoRaewOgcCmCN91yigtEfFGAAhSgAAUoQAEKUIACFDBOIBGBXBQY8RTbh/XGhAO692ebIW/j6di6vC0Kqgdbr8xFja4/42nUjclSEnVAhb6LsXFCdVXYCsXVpT+g78pL0LjNXIqPyFZ3GvZtai9GjBM2ZR0iUP3ZtxFGRj3bXOyrcntUCtiGvfc1A7lYSFs8g7t996W4ogrrMCkCt8P74VZYwo15L7pZ45V4ukbzsWcJX9StXM8JyHlsIfarH0RulhV1J2/Dhh75o8Ke7+6BqDPKA1HVciiK1hNb49PUOdgrRtOjA3kcbdB3f7jUNOnRa3024/SkXPitdxtMPPZO6357s7wNMWfLYnQsoLsyvvqgC8aRuePw84OcaLdwEvTfam44kKunoBs8hB01Hn32fAeGTzuBoPJ9sGFI+ZgLvunZSeICuTD1eoLvf3mJ86oF4Mzts2DbIFe0UC88aNxnj1tRgAIUoAAFKEABClCAAl+5QOICuRov9D2837/A3dO+cKxRHPky50IWeQ627kvcP/7mHT4qlD/PaPB9ofDz9scn+V0myJQtO+wMZcF4dmConw/eix2a2GRFjlhWDJd2J79XkQlZs9vGHAGNCMLrtx9hZrDu8ayQztuU9TPc1vCgN3j3QYzqmxqol779xdEG5RyBjMicW+dxcXJ/KvXjW57i6jpxIeUmsjafhvmtshmHEI+tHmyZgB9PiIsQE+agd5F4bJBkb1Hg3ftwhJqJx6XZxP3s8yQrljuiAAUoQAEKUIACFKAABdKtQNIE8nTLw4bFX+Atdk+Zjh1vS2LEyv6omByZNfgc5o3aitt5W2PlpHoGF32Lf535TgpQgAIUoAAFKEABClCAAqknwECeevbprmTFk6NYt+9f2FTqiO6Vkv6BYK9ObcGvNyJQskUf1Nd7M3u6I2WDKEABClCAAhSgAAUoQIF0LMBAno47l02jAAUoQAEKUIACFKAABShAgbQrwECedvuGNaMABShAAQpQgAIUoAAFKECBdCzAQJ6OO5dNowAFKEABClCAAhSgAAUoQIG0K8BAnnb7hjWjAAUoQAEKUIACFKAABShAgXQswECejjuXTaMABShAAQpQgAIUoAAFKECBtCvAQJ52+4Y1owAFKEABClCAAhSgAAUoQIF0LMBAno47l02jAAUoQAEKUIACFKAABShAgbQrwECedvuGNaMABShAAQpQgAIUoAAFKECBdCzAQJ6OO5dNowAFKEABClCAAhSgAAUoQIG0K8BAnnb7hjWjAAUoQAEKUIACFKAABShAgXQsYEQgD8aTS1fxNlt5VHa21qBRwOfmOXjZiZ9b3cRPfwWjdu/vUdA0jel578fkea/RZHkfVDayai/3zMPM13Wxtl8FvDm7DTs/VkX/BvmR4KbGVpfge9i97TZyd2iHinZGVjRJNlP2d7BzTZTMliQ7jP9OtAy88eeM5XjVcB4Gfxv/XfCdFKAABShAAQpQgAIUoAAF0qqAEYEcuLN5LGb51MeGSfUQFckV5zBvwA5YDl6CYRm2YuiWEHSa3g9VNTN7WlB4vgPDp71Bm81DUNPI+jzb7o6JPo3xq1tVXP9lEjYFN8fcQZVgrbiI5W63UdFQ2H++BxO3mGDQ5CbII5UdW138jmDWj1dRZNQEtHMysqJJspk3to+fhefNVmNctUTsULftYlfPds/BTybdMaN5bv071jLwwtYxc+Hd0oh66Ck7ES3hphSgAAUoQAEKUIACFKAABZJEwKhAjofbMHjOKzRdORqNVIE7+NgiDNiXA+5LuqBojKopEOwfgNBIwMzWEXbmxtc9LMgXH8LF9iZWsHew0hmVVpdjAkt7B1hHDVmHIdD3AyJgDpvgwxgbSyBX7z+DlT0yW2mMeYcHwTdIFGxug48HZkQFcq2WxBX2z65E57+yY/aCdnDWCeSVVO0y6KMuX2+74/JUt1/HRRGC9wEh+Cy5ONrCQmc3YUH+UFg54OrysbjfaD76FQcUIf4ICBEdKRwcbXW3EDuI2qdOX+u2Xbz11OJB2JVrPJZ1zKdbMgL9I2Gt1b/RgXxESeUxEO9jSU/ZoqL6j8lEOcfVD/w9BShAAQpQgAIUoAAFKECBaAHjAjmU4ejf7xdgWn0pkQfjyNxx+DvXcKzqXlhn5NcLe2asxO7AbHDNHITbz03ReOIo2P02DvudxyrDmPefcHP3gGPP5ZhYS4Tg6xvQa91nDFzZHxU1MvGFFaOw4VFGZM9hjYDnPgh36YZlw8XItBS4fg9EoUxBePsR+BwWjNDsjbBgehPkEHXdMWkh9vhawNoigwjy/yEsIB96xRghD8bVn+Zg5Q0LFHEygdejABTuNRVulUX7xAjrmJlH4JvRGhbfABn+C0dA/nbyCHnUaHmNexiw5RaCP4p4a2MJs6w14a4eCRdC8jT3Q94ICs+ATFYWyODaDmsbPBWj9TdhU+Q/+L5SiIwYiqBvSmLUsr4obypmHPQ6gNzTZqIrRPmzj0PhVBT2H58h7NvBmN1KO8Tqhtvof0O0fzEOKPLA1S4Yj8LLYvy05nB+fghTFh5CQM6iyBL4AM9Mv8PUWeLncngFKpg/xBUfWzQW5Ve49Rv8qnRCmUdr4bb5GbIUzgm8eokc7RZgmOa8f+89GD/rNALssyMnXuHJ20xoNPlHVL+p2/a6qP/mGPZ7fUB4Bmu5X0p2m4eSp0VARymY3/OEt30dceEiN35XGzgpj7lz/2XH5/AQ4L8wBH/KjObuU8QMAt3R8+h/d/HT494vm55jUuwnHs48eVCAAhSgAAUoQAEKUIACFEgqASMDOfB693S4XS+P5SL0OgafwIzhx5B/sgiP0vRqjZHi8tLI+YnCWDCzuQjHwONfJ2FBWFcsyncAA04WwxKxveWRhZh4/AOCnVph48Ay8pT4hZ86Y7P4b4Ove1swYFEwum8ciKpyILfE6IV9UE4afZd+Nz8InUXolsvflxXjF3RHCSncP/kdQ2e8QzvdQC6N+i/+iB6qiwCKk8vQ/UwJMS2/Cs5KFxuyD8ayXsXlEXmpDZNfN9EO5CKcxzoFXWqI3hHyJ6izaBRaZhZ7DvbAtCH/oJAUwp2iA3n182KK/IsG2DKmhsH71A0G8ioXRej3QYsNw/Fd1MUN5QUUj6JTML+VdGP4U2wZtQaffhCj4O+F5f8i0X3GADTMqj0CLpWxI8cYrOicPx7HXzAOzhqDo0UmYXE7MSU9HiPk0v43R7bBvOF1kU2eRaFxUUIVup81WgL376R6KXBppahLeDtsdsuD7VrT2XUCuk7Z8mwOPcfkeMttcTrHo+F8CwUoQAEKUIACFKAABShAgXgJGB3I4bcf40ffQKWFk1D/hnbA0QymuUV4nX7dAaXyKue2f/J+iDvZxehy/xARPsX2K0fAet1k3K9VFz6/+KDd8tq4PmYJ3ncW96KX1WlD+EtcOXgSJ58Dznl8cXSviRy6a8YyFVwqXx2e5b0ZmFYuB/BdH1C2UBaIcXTgvReuBpcTo7QVcGrUArxqHX3vsuY95Jr/bVwg17yfXTOA6oyQz/TAx1xl0KR9M3xfImuM6eWxj5AvxL7gHKjUoCXa1nURYVcK4EtxxbEYnORu+YSXdx8hRzfRRuhMq9foguALYoT8p/uwKlYNbdo0EYv6xbxl4P2Dszhw8i4CbQvC5PZfuOeqmpIez0CuPYU9ZiDXvIdc7rN9uUQfVcKZBARy6YKK3mOyja+YCRG7c7w+VXwTBShAAQpQgAIUoAAFKECBeAgYH8jFNHVpBPRkyfH47u58HHf5EXObZ1EWqRF6pUA8N6A55rQvGFUd5f3ZYWL7cfCs3QuWO66h2tLGeDR+DRQdquD2OhHM14pp21oNeIvdU6bjHxHmf2gh9nVjF1btSuJAftwZs4ZWg426XPk+aR8RXlM5kEuzDsLf4dbZf7Bnz0k8LfID1orZA5qruhsO5NLU9jC8vXMBR/YfwuHnBTBiWT3cGbcK/m3Ho4u4w0D5Ut1fftFwIJfepQh5hhtHj2P7kWswbTBF9Hn00usKcavBgHWBqNm/FRrbBGHnzxvSbCDXf0wK0Tic4/GZ4lsoQAEKUIACFKAABShAAQrESyARgVzMsJam/h4KQtYAWzRcOgry7eQ6gVyaTt5rpzVGz+uF0qrF3BQKBUxNTREspqoPOOgHa8e6WCRWbH8mpqr/8tgGQQXbYq2YHq79kkZL9yPn5FnoXkBEzBs/Yfiy0DhHyOXyxRTsXvPElG3x+DCt7TQLkC4izHiO7+ePQFNp+rgUPuV6SouPjRBTqTtgqZgybifC7TUxor8wuKWBKeu608M1CpFGif/MihmLOkC+PBFjtF7/CHnH3EovuU5Ro8KqheFUu5ene5v3wYYh5WGq8MdfsyfhRBExOt02FxRiW3lrxWnM7nsY+aZNQ75dI/C7zQAs7uuqGm1XiPaK98USyNX9Ju1Kc9q+uoXybAH11HrNOkjrBOi2XWykOwU+5iJvMUfI79eahWlNHUR7AsUFnUnYlbU/Nvazk+8v96w6TTkFP9wTK0evRXAH1awGnbIVBo5JqR0xnVvBXDzO7022qiibM8EPtovXh5BvogAFKEABClCAAhSgAAW+ToFEBXLIjzrbituFxAJl4+tEPwJNK2gG4tSyWdhwW6yabSkCjSIMNt+PwYJW4r5i+Z7pP/Gp1Qzl6Lq0mNvyR6gyVrmit/YrGOdW/Ih1t/+DpVgEzCynPTI8tFE+viyWKes1RXCTy78VDktLM5jmygwz9XZaBSjweMdsTD/8HhbSomti0bCwIl2xeWgFIPAcFrr/ipvhlrA0N0VuRxM8sFE+9kxryrriBlaP3Ijz4n3m2avgx+mtlY83U7/eHIK7+x68MLOGafG2+Km5l84j2PQH8trXZmKquMfeTCwoFxH2H4p3n4TR1bQfTh58YQ2Gr7uH/8SCciYmWVDE0RcvCg7Bsho3lAutmYqJ+ML+v6LtMX94Vdip2nQr0hpSt0SEWaPhFLGw2TPDI+TKRfVMYSbWZQ8Ls0GDcRPRsYBGSJUXv/PAe0uxqB3skc3+LQJdRioX7tNt+9BKeL1/DsbtfAXTTGYo0WURKpzTXXVdN5DPxzXbfPj01g+K8GCEOVaB29guKC0onu2YismHA2FpZQZYFkRBM0+gkSqQxyi7mN5jcjg263H2wurBa3Cz3BCs6+PydZ4l2GoKUIACFKAABShAAQpQIFkEEhfIE1Al9eOy4v2oKgP7lh5LFmyq80iyeNRDKj/Y1CHuR66pHnsV47Fn8mOyQmDqEPPxYPEoPtFviY+f/J4wi5iPg1M/iizGo8rUj/7S/9gzfZVWPhZO97FyGu+Uy1KIWQ/J6CSVEWKCzDqPXZPrJm440Ps4Nj2N0Weq1zlcXJwxt4hx336iO5U7oAAFKEABClCAAhSgAAW+aoEUC+RftTIbTwEKUIACFKAABShAAQpQgAIU0BFgIOchQQEKUIACFKAABShAAQpQgAIUSAUBBvJUQGeRFKAABShAAQpQgAIUoAAFKEABBnIeAxSgAAUoQAEKUIACFKAABShAgVQQYCBPBXQWSQEKUIACFKAABShAAQpQgAIUYCDnMUABClCAAhSgAAUoQAEKUIACFEgFAQbyVEBnkRSgAAUoQAEKUKm70QUAACAASURBVIACFKAABShAAQZyHgMUoAAFKEABClCAAhSgAAUoQIFUEGAgTwV0FkkBClCAAhSgAAUoQAEKUIACFGAg5zFAAQpQgAIUoAAFKEABClCAAhRIBQEG8lRAZ5EUoAAFKEABClCAAhSgAAUoQAEGch4DFKAABShAAQpQgAIUoAAFKECBVBBgIE8FdBZJAQpQgAIUoAAFKEABClCAAhRgIOcxQAEKUIACFKAABShAAQpQgAIUSAUBBvJUQGeRFKAABShAAQpQgAIUoAAFKEABBnIeAxSgAAUoQAEKUIACFKAABShAgVQQYCBPBXQWSQEKUIACFKAABShAAQpQgAIUYCDnMUABClCAAhSgAAUoQAEKUIACFEgFAaMC+aWrN7B91x4oFIpUqDKLpAAFKEABClCAAhRIKwKmpqbo2KY5KpYvk1aqxHpQgAIU+GIEjArkbhOnY/LYEciWNcsX01BWlAIUoAAFKEABClAg6QXevvPDjPlLsXj2lKTfOfdIAQpQIJ0LGBXIh42dgjVL5qRzGjaPAhSgAAUoQAEKUCA+AgNHTsDy+dPj81a+hwIUoAAFNAQYyHk4UIACFKAABShAAQokSoCBPFF83JgCFPiKBRjIv+LOZ9MpQAEKUIACFKBAUggwkCeFIvdBAQp8jQIM5F9jr7PNFKAABShAAQpQIAkFGMiTEJO7ogAFvioBBvKvqrvZWApQgAIUoAAFKJD0AgzkSW/KPVKAAl+HAAP519HPbCUFKEABClCAAhRINgEG8mSj5Y4pQIF0LsBAns47mM2jAAUoQAEKUIACyS3AQJ7cwtw/BSiQXgVSJJCfv3QVFy5fwwtvH9kxb+5cqFKxPCp/Wy69urJdFKAABShAAQpQ4KsRYCD/arqaDaUABZJYIFkDeUhoKNZt2oqH/z7RW+0ihQqgf++usLK0TOJm6dtdCJ5e9YSvYyl862SVTOWlRBnJVPWvZrfso6+mq9lQClCAAhRIMQEG8hSjZkEUoEA6E0jWQL545Xo8evwUpVyLo26t6siTO6ccvqWAvu+Qh/w7KZSPHNzXaNZHuxdj/bUQne1zoOHoH5Dv6FwsPW+LFlMGob7dHWwYtxUBDSdjTJ3kCuQpUYbRVNxQFmAf8UCgAAUoQAEKJLUAA3lSi3J/FKDA1yKQbIFcmqa+5bedchgf2Ke7Xk91YO/eqa08hT3hrxB4LJuB3eHl0b5qHo3NM6N4tSLAhT+x61UhdGlVCrY+BzB1gSeKjxiPjk7Kt977bSY2oQMWdCqc8KL1baGnjKTZcdrbS/CJNRjt6YqFw2vAOu1Vz3CNvqI++pK6hXWlAAUoQIEvW4CB/MvuP9aeAhRIPYFkC+TqsC2Nfkuj4Ppe0kj5klUbULhgfrgN6WeEgnK0802dsXBv6BD79hc2YeDvn9Fp4Q+oaSK99RG2uG/C+8YzMaKq/IPoV/hHvHzyEC+RB6UKZ4OVzq8VIYEIiLSEo4259nZRZfRChQ8v8ey1JZz1bJ+QhoZ9eIXH3uHIU8AJtjrFAeEI8guFqb2dqo7i3z7P8DjIBgUL5NTzflGy3DYfhOV2RkGd+stl3X8F5CuOItktYapT0bAP7xFiYgcHqzD5QsjxPAMxu02+hDRHEznuukaGwj8gElZZMsEigaVIffTa6wWCbPPCObvaR+wkxnEQjx1L9fB6DE/hWra4vn6Ixz74FgpQgAIUoEA6FmAgT8edy6ZRgALJKpBsgXzkhGn49CkMa5bMMdgA6R7zUROnw9IyIxbPnprwhsqjnddQcIA7uhfV3fw6Vo36AxFtlIH76a65mP+gFNwnNobFoWWYfPi1xgbWqCLvIxLvr+zAoh13EWZujshPwfimSHvM6FsWFuc2YuixLGjv+gx/nnoLm+oxw6hcxt08qJ75Oa74fMbnTyEwKSZtXxTnRYDdZdEGawZUUJYb6Ym1E3/D25qjMKWJo1blFXJZNmhZ1AeHrgcDimCEO9TAOFH3fPDC9h/X4HXlljA7vQe3g/PLFxmqBl3EukV7cDciI6wyhONjuD2+GzYC7ZzE1YTIi1g6+iTsmhaCl4cnPiJS/v33I0ahdV6pLgG4+Os6/Ho7HObmkfj08RsU6zIGgytYKd3efItOZufw+90QFK5aAk/P3RGXAqJfBZp3QfZj2/Cw/BDMbJVb+Yt3RzB99llk6z4FA8pqX9FQ+Mdd16ytXfDvnrN4nakKxk5tjvxRxSnb7+mq4R9yFosmH8DnpuPF7QgWeLR/I9Ydf4VIKwuYKsJEW21QZ+hYtHeG1nEg1fTihkn4OaI5VgyqpLwAEXIaCyZ5wL7Xj+hbCgh7fARLN5/B62/MYRIeilC7aqp+SPjhyi0oQAEKUIAC6VWAgTy99izbRQEKJLdAmgjkGTNaYMmcaQlvqzza+Q6lmtSCi2pdOKs8qkXbXuyD++LbcJWnqKumtlu1xyoRrqWXHHp3maHnoh6opCpZ8WAnJq1/jgqqIBt0bBXGnXPChMlNESymty+/FIl8NVujW738yGohRm21RqyVZezyckSVXn3Q2dUefvuXYNrxzHIZ2eSw7irvSxpTDj61DmP3W6HX7G6ooDMCL02ll8oq1LQfhtTNCZPr/8OoLW9Ra4wI0PZSYDyAZ3bF0LZHS5QXI9lWFs/x64+bcMe5Eyb1FtPz8QGnVi/Eb8E1MGNMPTiKdo1ZexWRBRrArX9t5DFRXgx4VW04fmyeVUzdn4eVT0th9LimyG/yAYcXz8bp/FK4dlC1yRauLTujcxkxW8DKEhYv92Di0keoINUnl4QXKcpzx28Zoi84PPpjNhY/rYBp4+oju2bPRoqZCfGpa55q6NqpNgo5mouRfu2pAWfXTsBWRJf1RnK+6AS36a1hsWcR5p0Eagwaio4FxXZXfsHgbRHoIM+M0D0OlOH+dimNCwme2zB8cxCazRqIepHCetpxWLRzw7DKNsDd3+G2IRhtlvRGtYQfrdyCAhSgAAUokG4FGMjTbdeyYRSgQDILJFsgT4kp6/Lo7bkQWFuZ4xsVVOEWE9BPJFztwK2cnu5VPXpquxx6n5aTR8yVY7q++HveItx0VY5Yh/meEyPO++FXZZAIrcpgutemExaJwKs7lVtZtLKMZ1U0RrzlCwZAVynAycEwEp3lMKcs63IRjSAY1dHK0KhVlnxx4S5Ku41FuxApXL9A9Ykj0SKrciN94d5r93zMue0iXwDIIt3vfSgT+kSFf2/smLFStFWUX/2OGMm+g9Ly/sLx7vRWzPnLH9Xl0XM9bZLKk/a3z0rrYoa3CMIzbxZVXnCQR/93IbzVOBFktRfQS3hdY34CtMsSty24/4qgRpMwqsJ1jZFyEaDFS3NmRG5VH0UdB/LMgT0w6zJLzAZQliPv+3phMSrfBH6bpuN/IvhLfY6Qx9i5dBMuZW0rz5j4ou6bT+aTCHdPAQpQgAIUYCDnMUABClDAOIFkC+TqRd1Kl3TBgN7d9NYucYu6xRz11ixEK3D7eWDmzAvIFzW13R/7FszH0axdsaxnCeVm8nvOwrRkUZi8uY+XAdYo3rQretXIKe5fjsfK3DHKUIW7S04YNrMtisu/v4aiIlS38t+GsdvC0GaqCOcxFnzXU5Yc5kPQSozaljklptufya3cp6rB8rTrkIZaC6xpBtG3P0/F+sB6Gr9XTucPaToZvcI2YPIpU5QulgGv772Cf6bCaNmzA+rkFqPLetokFXld2t871ei7Gl0eWQ5De3HBoZC4JWD65YIYp5oNoNkvCa+rnkNH8vgN6C5mHjhrlCVfeNhnga7zhas860B1ccNO1c+67ZFnDnijlvtwNM2iLEceff/cUkxhz4TNYn0Cb6dysA/5F0/ffUaeyq3Qp7kLMuvMaDDuo8etKEABClCAAulHgIE8/fQlW0IBCqSsQLIFcqkZ6sAthXLpsWe5c+WIeuzZ/sPH5MefmYt533OmjjfiWeTK0dvHFaVp1zl01HSCmEagrScH4OhAGvUINHkU+gYc67ZEs+oF4WSvsahZfFbm1poaLZWhHIW+UrQf5rWX7oBW1jeg6SgUOL0MN0oOFwvRad87LjciRlkhIiTOw6/BtfHjqDp4rHvPszpEakzhVo/2n8svlW2JP2cvE/WIvuc6WIzcT9wRjEYTh8LllBhJv5oZDdp9j1qF84gF2zTSZow2SRV8Le/vfP7e2qvTy/den4fziCYIWLsT6OQu7sGOmVx1p5vHVVe9Hwc5WN9BGbdqeLLyCOx7jxP3/5tAc1aAvNSc6j59X/WifzrHQYyR/sgH2Dz1ZzyTj6mXWD5yFwIqtEPbOkVQMFfCF5ZL2Y8yS6MABShAAQqkngADeerZs2QKUODLFkjWQC4t2rb2p//JzxvX9zIzM0VEhEJ+Prm0Grv0jPJ4v+RQdhrZVYtvaW+nPcosT0O+WgBuP7aC/ICzwBOYM+0ILNuJBd8qhSNErJhu9UG5P0f1ImRiZe1nt71gWboossdjZW6tMCgWSbv5x09Y7+mAzhPFaK08e1p5n/VePweERxTAgKlihFvfSKtWWeF4eWwzFh/4iCryfe2v5ZB/3UV7QTn5fu2rudFzhrgf3jwcj3atwNJLdujgLu6btrkiB8vPUlvF4nZh3v9g5cqjCKrYH5Nb5UOAtMDdicxR09kVIS/g+cwS5VwclQHXs5jOomr3sGnCFvxbQapDDoSEmIj7yqWGqO7HzuAAf9sqmCMeh2arpzMTUlfDx4LUv3/gpZ0FPuRqgfliloN0G4Hcz2ezKdsS+RQ7Fm/C8TcWqgX7VL/XOA7k9l3IKb+/TNBd/L5hO869ioSLPIVdeQy9ilp0T0znv/kvPrq6iPvs432U8o0UoAAFKECBr0KAgfyr6GY2kgIUSAaBZA3k6vpK09el/73w9pF/lDd3Lvm549LIuTSK7u3zOuGhPMaot4aOzurrCs/tGP/LTQQjL1pNGYT6dt74e+5aHHqjADKYIU+9gZjUyA4Xf1qELXcjYGllhoiQcGTMVx0/DGgA033RK7Sr1hCP0RWe22dhw8WPQEYrZAj/BGQuic6D2qGSQ3R6k6eRnwlDuV76R4+lnSrfEwjTjNaw+CxW9TbLjdqdu6Gdi0j1eu55livywRObluzA5cBvYJ4hAgqLvGjUtz+aSiusP5cWYDsPf1MLZDL/jJBPZshXvT0GtiqqDMwh17F29k7cklZnN41ASLgFnGt3xtAm+XBJXED43Sx6ITxlo0OUTrdD8FnEYNuybTCtexlYqhd2e5wDTcaLKeCq+9tjQMVZV83F4gwd8aoF9F4XQ8/J4iKEetr/O3GhZf4RcWnAVMy8yInvG+fBhR1vUV/1qLsYx0GQWKV/6Wm8/SwOA+u8qN8yP25te4gyqinsXmKxuAUe72GaSTx07VMoPtu7iD7tIvo0GT6J3CUFKEABClDgCxZgIP+CO49VpwAFUlUgRQJ5bC2URtGNDuVJTheJkIBAMWIOmNtk1v8c79jKlJ+bHYpI80wxn1Ee/hTbF27CveJ95ZFp/QvDqafad8KclnlEPcxhE+9ncKvqLqKxvcZ0e3la9iFb9JnaFM6hkfrbpa43ElKeNoT0KLPV8w8BLVQrksfaN/rrmiTdKZ6z7vsB8XaTnykfamLw/dKz1z+IZ7yZWErPX+fQeJL0EXdCAQpQgALpToCBPN11KRtEAQqkkECqB3KpnZqhvEmDumjasF4KNT8lihHh0+siNm/aj8c5WmGaeA65vqncypoo7zN/U3eyeJ52jNXejKqsvLjd21paC74ZtSODG0lTuY9g4/bz+KSaBq//YkPSlsq9UYACFKAABSiQdgQYyNNOX7AmFKDAlyWQJgK5OpQfP3k2nYVx0bIXYlr0yuvIVLkt+quniRs6RgLPYOnCS8jV0w3tCybFgRSEY6uX40zOLpjaSlpYLulfweLWgaliWnihFj3wQ9VsBkb+k75c7pECFKAABShAgbQjwECedvqCNaEABb4sgTQTyL8sNtaWAhSgAAUoQAEKUEAtwEDOY4ECFKCAcQIM5Ma5cSsKUIACFKAABShAAZUAAzkPBQpQgALGCTCQG+fGrShAAQpQgAIUoAAFGMh5DFCAAhRIlAADeaL4uDEFKEABClCAAhSgAEfIeQxQgAIUME6Agdw4N25FAQpQgAIUoAAFKMARch4DFKAABRIlwECeKD5uTAEKUIACFKAABSjAEXIeAxSgAAWMEzAqkLtNnI7JY0cgW9YsxpXKrShAAQpQgAIUoAAF0oXA23d+mDF/KRbPnpIu2sNGUIACFEhJAaMC+aWrN7B91x4oFIqUrCvLogAFKEABClCAAhRIYwKmpqbo2KY5KpYvk8ZqxupQgAIUSPsCRgXytN8s1pACFKAABShAAQpQgAIUoAAFKJC2BRjI03b/sHYUoAAFKEABClCAAhSgAAUokE4FGMjTaceyWRSgAAUoQAEKUIACFKAABSiQtgUYyNN2/7B2FKAABShAAQpQgAIUoAAFKJBOBRjI02nHslkUoAAFKEABClCAAhSgAAUokLYFGMjTdv+wdhSgAAUoQAEKUIACFKAABSiQTgUYyNNpx7JZFKAABShAAQpQgAIUoAAFKJC2BRjI03b/sHYUoAAFKEABClCAAhSgAAUokE4FGMjTaceyWRSgAAUoQAEKUIACFKAABSiQtgUYyNN2/7B2FKAABShAAQpQgAIUoAAFKJBOBRjI02nHslkUoAAFKEABClCAAhSgAAUokLYFGMjTdv+wdhSgAAUoQAEKUIACFKAABSiQTgUYyNNpx7JZFKAABShAAQpQgAIUoAAFKJC2BRjI03b/sHYUoAAFKEABClCAAhSgAAUokE4FGMjTaceyWRSgAAUoQAEKUIACFKAABSiQtgUYyNN2/7B2FKAABShAAQpQgAIUoAAFKJBOBb556+f3XzptG5tFAQpQgAIUoAAFKEABClCAAhRIswIcIU+zXcOKUYACFKAABShAAQpQgAIUoEB6FmAgT8+9y7ZRgAIUoAAFKEABClCAAhSgQJoVYCBPs13DilGAAhSgAAUoQAEKUIACFKBAehZgIE/Pvcu2UYACFKAABShAAQpQgAIUoECaFWAgT7Ndw4pRgAIUoAAFKEABClCAAhSgQHoWYCBPz73LtlGAAhSgAAUoQAEKUIACFKBAmhVgIE+zXcOKUYACFKAABShAAQpQgAIUoEB6FmAgT8+9y7ZRgAIUoAAFKEABClCAAhSgQJoVYCBPs13DilGAAhSgAAUoQAEKUIACFKBAehZgIE/Pvcu2UYACX4xAwIcPsLex+WLqy4pSgAIUoAAFKEABCiRegIE88YbcAwUoQIFECzCQJ5qQO6AABShAAQpQgAJfnAAD+RfXZawwBSiQHgUYyNNjr7JNFKAABShAAQpQIHYBBnIeIRSgAAXSgAADeRroBFaBAhSgAAUoQAEKpLBAmg/k4a+v4NA/gSjaoi6KWgIBtw7h4J0g2JZogCYl7VKYi8VRgAIUSB6BNBvIg5/hwmUvBFvlQ+WKzrBOnuZzrxSgAAUoQAEKUOCrFEh0IL8ypzF+2PkeyNwaG4+ORYUkZXyFFY1rYt4dIN+AvTg3oRjuzvkO9de+iPp3khbHnVGAAhRIJYHkCORP/5yNeeKCJnLWwbQJDZEjqm1+2D9/Pva+BJyaT8SEerFc3Hy+A8OnncA7xzqYvaAdnFPJh8VSgAIUoAAFKECB9CiQyEB+HEOK98dfIRJNZnTZfhHzqmgw3VuAqg3Xw6vuQrzc1CLqF+pQXW/pI/zcKnZWr91D0WNVKLouXoM+pcySKJD/jZ5Oo+GRrx+OnB4Dl/TYs2wTBSiQrALfN2yGb775BkcO7kmScpIjkEMdppEb7RZOQqssqqr67cf40fvhJSJ667lT0DZ7LE1gIE+S/uVOKEABClCAAhSggD6BRAXy8MPD4drvABwL5If3k6ewaLEOD5d/F1VO+B+9UGDMGaDqRFxc2AAmNlmRwxbY3s0Fo08B1SafxOJGJsiULTvsEITXbz8CqvcEvnmHUMussIt4h/efgIyZcyGLmLKuOUJ+rF8Yzhx9CavKNfCtsy3M5ZJD4eftj0/IiMy5M0NsglA/H3kfyvLNAM/ZqNRsM7xzd8T/dgxEkYwOyC3tXN78Pa6f9cD90LyoXKsC8kvv1/NS7lNZhknQM1w+eQl+mavi+2p55DLV+/J+8QBXr71AsGNR1K9WWm6D9AoPeoN3HyC33TJUZ/sIYXH7Mk48AEqKGQKuWnUQ7bt+DkcefEI+rXbzAKcABVJKYPGS5Vi8dIVcnNuIoXAbOSzRRSdLIMdb7HSfhj+9gSKdFmBafeWE8+AjC9H3tydA3iZYPr0JHKFAsH8AfJ7dhVegBbIVK4niOaxgKr1ZTyAPC/LFh3DAzNYRdtKJNzwIvkHiByZWsHdQbSd+rAh5jXs3H+JtxtyoUKKg8r18UYACFKAABShAAQpECSQikEfg0OAK+GFfRnTZOhFveogRZ4tm+PneYtQTu1cHZ03rfAOWo+mBYVjtpfnTvBh06DgmQjma7l2zF/q/2YrVDyLkaemjHzXDsGOAejRdvV8rBwdE+PsjQt6VCXK2XY2ji76DPVSj36iD5c/Xo7X47Z+9C8v7kKe9F1uMPCNOaB8CqhF8390DUWeUB/wjVb82cUCDRQfxU9SwUvRmyn1mQ5nK5rhz4aWqHoBt/WU4t6Ex7B8tR90GK/BAvS9pU7NScD+2CwOc1D4+yOmcE77PNLYv4oosL+7haahqQxMXjDvxN4aKbeD7N/rUG4fD0RWEQ/15OLGhhfhCzRcFKJASAnfu3EWDxtEzfqQyDx/4GyVKJG6uTfIEcuD17ulw2/MaJiW7YrNbVRGyFTi1eATW3vocFdIvrBiG5dcUGnwZYFPlB6zqVwamegL5qcWDxPZA6R9WY1w1sdnZlei88S4QNa1dgcc7ZmP6gddR50aY5kDzCRPRsYAc8/miAAUoQAEKUIACFBACxgfyiKMYWGoQ9kIK4VPxol0FTL5khWbrr2BNAzN58bVNC6Zi8Ulxf3mxdljQq4xYiK0K8r74C/Pdl+MfP/HjDrPQp5wtSjRqiFI+quntMINN4TKoXtABdnVGouqRRvoDecXR+H1pM1jfXYO+/bfjcWQ29PzzLGaWjyOQd3mP31bOxpjfxfBzlhpwG9sQOfNWQSfXM2hXdgrOOzbG2j0LUR+70KvOZJx01D+tXR3ys9edgOXjG8Lq2Gh0mHsZISb1sPrJGjT3OY7NJy1RraaTvAjSnSXt0HvHWxQcehAnRxeKumBhVbE3Vk3sAafHs9Bu1BH4IS+aLV8C9wrBWNuxBzaLixfKixGB+F/HSphwPguard6FZfWBHb0bYNypLMoLGsV5PFOAAikhIE1Vv3fvPvDff8rixLR1F5fiiZ66nlyBHOrp6eLi3oC1Q1ATV7F0yE+4pCiInstGQRo0v392Lz5mrwJne9GeTxexctp+PERJDNk4EFWNCeQPt2HwnLMIylcfsya1RPbnv2Ls7DN4H3VRICV6imVQgAIUoAAFKECBtC9gdCAP390PhcVIs3qaesAvneE65TKsmq7G7VXfy9PHo0bJte4hv4/ZNZrJo+Ra95Cr7zfXua9bHXx1R8jVi7xBjL+op8Arw+4d5f3hhkbIxcJwEHWXR8k1y9o3EE6DPZCp2kC4N88jav9GLHokXTiIHmnX7E7dekFdf41ypbpJU+8/ioGnjCenofSEE7EsTmf4QoKy7QfQp8BwHM5UFUMnNkE+UZlXBxbJFzzicy9+2j8UWUMKpH0B9VT1/0QYl+4fl17q/07s1PVkC+QIxsFZY/C/fy1QedgSDMMG9Fp+HYqi7bB2fJ3oVdOjpp374sDs5TjkKwL8ZhHgjQjkpjumYuyBd8hVpS0aFZFGxJ/i8C8X8ZILw6X9g5w1pAAFKEABClAgRQWMDOTq0dpImFjaw8HaRLpZEP4BoYg0EQH2gZgqLm69TplADpwaXQGddwSqwu4D4wK5OqTr8ltFT8NPUCD3PYqRLYdjxwvlpHr1y/Bq8XEFcvXvY1QQLX+6iZXSfQJ8UYACySagOVVdXyCXCk7M1PXkC+TinvFjizBg62NY1xyKodiMWadCxHTzpWK6uRSWxfTyPYsxf88zfNC8xUYsd2lsIMd2d0w8LGZH6b6i7llPtm7ijilAAQpQgAIUoMAXJWBcIA/8TTm9WyxfprmAT1igHz5EmIgR21tiRDd6RXQk6wh5IDbL0+WBStOvYFePf4wL5KoRcguNEf7YejKuEfIcEyqh/a/vUW78aewcmAPmqsBvfCBXjZBbNMZGz2VoqH+tuS/q4GNlKfAlCURNVY+l0omZup6cgRzBJzBj+A7cs8oDJ5OXeB5aGiNW9kdFKY8He2DakD/x0KY8Ri/sg3LmXtg6Zi4OJMEIeZ7m0zC/VbYvqZtZVwpQgAIUoAAFKJCiAkYFcvX0dFScgts7uomF1JQv9Yi4SZXpuLm9E6Caxg6bUug5oikKOjdEr3pWUQHatkxXjGxWAPkbd0O9QNU95PGcsm6Soxr6922MrF6/Y8kvnggyqYQ517eim516JNkGVQaNR+uMV7Bhw248FCuaR01zPz8ZpTtuh59JDjQYPhQl8xXEiKaBGFJWeoSbAyp0HYgOLtKd38F4+kLcmz6mCXLpdEtcgdx2WGn0/DsE+Xr8gh39rfHP5EEYd+xtIqasR8BjWCV5nw7lO2FY++LIJOr08elLZO/hhua6FUzRw4iFUSD9C8QnkFeuVBE7/9hmFEayBnKNhdykylmU74MNQ8orV1FX32NuURTd3bugxNtjWLX+JLzCVCPk3n/Czd0Dr02yomqzFmjaohy8VIu6WRWti05iYcsHR/7BmVeh0Yu6vRGPVZskHqv2TWZUaFofpeXHnAfi2cei6NO0iFE+3IgCFKAABShAAQqkRwGjAvn6loUx/TrgOvaUMI1VMwAAIABJREFUWGk9Z7RLVNBVhWOrC5hSpzc2qaZtqxc0Cz83E7W6/wLlj/NjmMcRjFUkJJD7oGD50nh/45pyRXSzPGi3aieWNJAeshuIPQO/x9AD/pB+ZeJQDt2qBePnfQ+iA7l4+u6WLm0x+YzqPWJl9OdiZfRwz7Vo330prkStYi527eImFmsaiMIJDOSt74lV1puJVdblNpohb/nCCLl6F9bSSu/iPnbNx7dJ/0Ysq8NH3SMecQsrOvTBwqvKessvs+IYJ56DPFS3gunxaGWbKJCOBZI3kIuJ6VfXoe/KmwiD6l7ysmrMYJxb8SPWXPuoPGdmcoZTxmd4oh4hF49OOzJnHn5+KAK3iXKht9IX1sJto6dyirtJJhSqWRCfTtzUukc88OomTF57Bb5Ri7dngMW3PbF5UIV03ItsGgUoQAEKUIACFEiYgFGBPGFFiHeHBiHQ1BZ2OtOsQ4OCYGKrfn54gvcq1kyTnl2ugJ3qeePRe1AtpibGkLNmj2X/YvtAhahX1IPDpT1EL8QW9dxyI6ombyLXT/1s9aSbY658hrn4JmwaR/uMrTe3owAFUlwguQN5XA1SPlvcHDaOtiKyx/1ShPgjIASwtHeAtcEnmYUh0PeD/OizqGeWx71rvoMCFKAABShAAQp8NQIpE8i/Gk42lAIUoIBxAqkdyI2rNbeiAAUoQAEKUIACFEiMAAN5YvS4LQUoQIEkEmAgTyJI7oYCFKAABShAAQp8QQIM5F9QZ7GqFKBA+hVgIE+/fcuWUYACFKAABShAAUMCDOQ8NihAAQqkAQEG8jTQCawCBShAAQpQgAIUSGEBBvIUBmdxFKAABShAAQpQgAIUoAAFKEABSYCBnMcBBShAAQpQgAIUoAAFKEABClAgFQQYyFMBnUVSgAIUoAAFKEABClCAAhSgAAUYyHkMUIACFKAABShAAQpQgAIUoAAFUkGAgTwV0FkkBShAAQpQgAIUoAAFKEABClCAgZzHAAUoQAEKUIACFKAABShAAQpQIBUEGMhTAZ1FUoACFKAABShAAQpQgAIUoAAFGMh5DFCAAhSgAAUoQAEKUIACFKAABVJBgIE8FdBZJAUoQAEKUIACFKAABShAAQpQ4Ju3fn7/kYECFKAABShAAQpQgAIUoAAFKECBlBX45j/xStkiWRoFKEABClCAAhSgAAUoQAEKUIACDOQ8BihAAQpQgAIUoAAFKEABClCAAqkgwECeCugskgIUoAAFKEABClCAAhSgAAUowEDOY4ACFKAABShAAQpQgAIUoAAFKJAKAgzkqYDOIilAAQpQgAIUoAAFKEABClCAAgzkPAYoQAEKUIACFKAABShAAQpQgAKpIMBAngroLJICFKAABShAAQpQgAIUoAAFKMBAzmOAAhSgAAUoQAEKUIACFKAABSiQCgIM5KmAziIpQAEKUIACFKAABShAAQpQgAIM5DwGKEABClCAAhSgAAUoQAEKUIACqSDAQJ4K6CySAhSgAAUoQAEKUIACFKAABSjAQM5jgAIUoAAFKEABClCAAhSgAAUokAoCDOSpgM4iKUABClCAAhSgAAUoQAEKUIACDOQ8BihAAQpQgAIUoAAFKEABClCAAqkgkGKB/PmZ7TiDquhSPZ/+Zj4/i21ngeqdq8EpFSBYJAUoQIF0K+B7HWsXr8Olt0C5/msx5Nt021KDDePfoK+vz9liClAgbQkEeB7A/tt2Kf9d/2vNGJfXove6G0C2Chjs9gPKO6at44G1iRZIsUC+s7szBmMJ3mxppd9/V29kHwqs8tmEtuwhClCAAhRIIoFA/NK2HMY+roVxY6qheJk+aPR0FEpMAObtLIA1bY+h/s4/MbxIEhWXRneT1v4G7RteHuMwE7sLbkCro3Wxe+9gaHXBw1VoIvdNX/zb1h2YcxUrmgAPl7dGq43PVcqWyO3qinK1+mBY72+RyywF8R8uRa26K2A58TQODcxloOBHWNasI458vx0DH3eU23tnWSON98b1+6Rqz0H84DQQJ1ttwaOlNRO/0/1xf34M928EfI6vxuT5O3DBJ1SuS+ZCzTBqxTS0zB171fb1K4w+J5tj+4NFqGNMK+Kqd1y/N6bMtLBNPNqlv78OYmgpdxyP0YbamOe5CE1TvG1xfV7i+n2KVzhGgXdm1sR3qwul/Hf9BGQMY8/N6saG3v8b0yctwJ7wTjrn9VDc3+qOYSv+wRPfEJg4FkKrSesxvXlOmEsby+f8TXimo+b8w3bsH1ZY+VP5WP5H+x1OvZXl6Pubkf8I1t24j/OLluFIjnG4vL8f4jjNpP5B8pXWgIH8K+14NpsCFPhaBPahZ94huNv/IC65F1c2WvpyMs4GW/+tjV9yLUFRj1OY7GLI4x5mVGmEB6OfYWub5DOTv6g9HGn4om0ii05rgVyqzxibn/D0u23IvrAIjp8fjxKabbw7FxXrnUaXywsR1DbaX3b63RmjJzSGFIM/PjmEjRv+QUDdlbi8qSnsE+kU780DL2DZlB2w6j0XfUsbuhKgPHZOdj6HZYEd9fRvXL+Pd23ieKMXdk6cjbs1ZmFKoyyJ32k8Pj/6+zcQR0c0RI8/fJG7ckd0alsC2RGMJxcfosDgeegSx0Wx57sm48d71THfvQGMGuiKq95x/T7xcgncw250jfP8FI9dxqNd+vtLKn8krtUegUlNc2gUlDdFRnhjnhPj+rzE9ft4WCXwLQk9b38JgdzYczMCj2FS69HYfO8jzC0/IzRbX+3z+p5+cJ7yCs179EMTcbK/s302Fh6KRI89lzCngoAPvIW9++8gSN0HfsewYM5x5JgcfdHz4bzvUGNrnqjzv/xW2xJo0rQk7A38zZDekmruCTyevua3JyKQh8Lv5Xs8v3sNIU7fomSBHLDT+pssfv/gOq68c0SF8kVwon/MEfJQv4e4etUXWcuXRdF/BhsYIZfKCYRpdtX+Q9/j5b2ruAMXVCieG1kso7svPOg1bl+4BbiUREH1+8WvDf38a+54tp0CFPhaBJRfKh8O0gjk5ybCZZQtdpwvijkaX3j1nyuPYWChPvgwz0AgjwjCqzcK2OfJDPl0HMs5WvxSnM8f4MpdoET5osijcQI/OtgFXT/MSkAg/7L/Bp0dWw4jbbfhUvEFUYE8+8HJGPJnAYxf3QtlQn5Bi+In0c1nDO5pXBCRv1jtb6z1RS9gc3sUnRSMiZf3Y7g8/BGXjfo9D3DvmRWKi7/RUldI/f/U8xbe5a6EivltlaM20kvq41sX4Sn+7pYqlA05bfUH8JjHTyB+alUaJ7o+w4R7+i64xPV70RI/bwSYqcs0fPzILZK+U9wLgXNx7WNL/yc9AoGvn+KWp/gOUsoV+XNotFdjA6n8e1fFAVu+Osqpj1d9n5/CntgwaCEet16CuSL06+vfwkeHo0SPoyi3+DR+72jgwoD8eXqNx1efw6p8eRRXf65iO13F9zNo4HMftevYfi+X8QGR4lOeRbNOsX7e43mOlfb95DY83+VE5Ur5o79Leq9GvW+3o5ahC4a67TZUnJH9VQJ6zp26Zcifjdt4bF1Az/fg+LRf+7uy5nfamOfEuD4vcfw+6nNcEpVL6n5nj/3zYOh7tP7ztuHzjzHBUPoM+onJJCa2mueeuD+/cWYMA8eusedmPNyOOSfyoUv3qviwKOZ5Gr5+8HXMEn0xLeIPdHAai5fDj+LsONUIuPqQ8RXHXrXReNptN064l4o6F8t+V/vgwe4eMS++Bur/myHt0hj3+By9fE/SCRgZyJXTvw5lzAI7CyAs0A8hmRpj9bnVaGkn/fH2xJwGbbD0kSnsHawQGfwZpqb+8K+knrIegRvzmqLpsn9ham8P68gQRJqawt//W9U0FukkOBoR/fri9ea1uB+RD0PECXng81FoNOAvvLMW2yAE/sH54HbwMEaLkZ07a1qg5Yy7+M/RFhYIQ6BdTxw/LfZh4OfpfHZm0h0h3BMFKPCFC+j5UilNbRsFLNlbACtKeaCBmH6ZX9+5csRd1BiqPWHTSQr2rf8Wo7cHUHVQMRxadwT+kd/J5+7aBw2fo+F7GMOaDsHOd9ZwsAaC/YPhNGIPTo66L18wOKqp7DQg5oixVi98+X+DIKaej8Q87C+4FiWO1JOncp8YURIddxXA1At/Y1Buabqs1DcD8LjZOGCR8rYCfYFcnvEw9BlG/HMcE4rEbiON/gx7Wh7l3t/FfRMrMSrjhw8ZK6NDLW/sOfYB1hZh8A8IR/7h+8SXRDGj4u56NGw1G7eh/ntvhz5HpXKUxxVWKC/UGPob/FBMzT9c/yqGPla1Vz31UtWf0vRQ3d/LdYzog4FvtmDl/QjIx9wALwPHjzTrQ/s7hUVYCHI4ZcX9UPWFC+XI4d4mqotSEU/wU7c2mHz2E2wcxDcG/wAoCg/BvsOjUUZca5CNd+VCs7wP4PEgg/i+EQTfD0DVuRewu7sI0no+P029hVPl2XjcRjktXrq1QLd/5fByqiX+vDUb1fSdVVS3ATy3Ed9xTCPFZ0Sq1wgcPj5Cnj2h1ffyaJiez+CpKWjTbQseS9/PpHqHZEKjpR74uY2BemvWQ1+7xO99dw1CHbcDeItMcMwYBt9K8+ULZ76xlaUKs+rjQy5Ga9qw8nvem4YNEHDyBIKslf0QnqM7dpybDvt50tRmLy2l76VjrbiednsUwfx6W1Dmp5tY30h1sUgO8ytRQPpZwfUxznfx6S/EFchFaOpZazQOfrSEo/juGxyZG7kzPED+aep6Gq7T8Kt1xTFmCddwLzwXn0OT4AAEKAphxJ59mFB6n8Fz4lNjP09PXVDY5yleW4vv5PJ39vpYfnI92kpTLeL6POj9Hl0Q0/Wet0tjSSz5IEHBUMoSjTtgxZ1wmNvbAB9s0eewmM1VOPbPr+75IGbGEMd0LH+r9H1243Nu1jxY9Z6ndT/zz5ahdtXlyLPivjiHalzkDL2GKfU74FiVTfh7fg2t2TA3plVDgyfic6P39l/9fzMYyL+Mr3BGBvJQBAaZwk59ldx3IxqXmonMqj/MzxY3RKUltvjx0jYMyCkOsohXWNGqCmZmVgVy1UFoN/UMdvSX7p0Q91Stao+ysxw0AvlInHXtgzUr+uJbR3OYWl7GmFKD8GaMehs/ceW9IiY7LIPPpoLyH9tDrTzEVelCSvmICISb/Yt5en9uFn3l/8voJ9aSAhSggHECqqvwfhPOwWOooXt9lYEl5jlUOldqBy+5EnIYWItP9Wbj59kN4SRGV61sL2N4cUPn6AY4MKA0fnjjhit//CDf6+wrRnVLTbHH6hfr0VLsMs4p5VqtT69/g3TapafHdb/ohQddwswmnbARA3FUXIQuIUbHY/v7LDtfb41fLy1GXWlKgzR62PZXOI89jV0j8orxzwjRF8Uw+JFyuiWkcHqkBU6fGqW6x138bY0Qx4WZ5nER2/GT8MNWruO5Eui/agkGVnAUZWXExbEVDB8/V6agVPOdKB418hyKY8OqofPl9qoLO9qB/Jm4Gb/qfGtMUX9HkUejRsKz7S54ziqvGk2ywvDjuzGxmIT0HIvq1sL83LGsgyPeFR4UhEhbW+VMkRgv5ejlxOCxuHZkkP77OMUIZqDCFnaqHYSfGoMyHS+ik2qEOGYg1/0MXoeb+N50tvH/cHFJDbkvb8xsgMbrsmHO7e3oIQ2YJPT1TATbGosQ2mcHPKaVk9sWLr5fmUMMksRalp7zRoxALqaDN14GDxH4pHNC+MEhKNrHE73VI+Kqiw7NNEfI9Z17snzAatE/Kwuvw4O1DeTvd96ij8utL2344kec/SVBKdtwtkA11CkmAqHqpVwYU7U2h3dPHD41Wb6QE/5qDVqWn6f6Lqw8ZgzVyV6+lzoL3K/+gaGq78lr21fH1KBhuHhsOJwTfE403LExPvOhpzGiajf8XUnp5RPr58Eqlr8N+s7bsZ9/4h/II3B0cDl09fgWS/5Zh86SkTiepXOPz9rYP7+IK2NEHEY/g3+rDK0MEPe5WbMH4g7kgfird3X0P/sdtt5ehu+j8vg9zKnRFEtf5kLVTu0woHNP1HGNnr0j9+VJcWFMGg0Vn8bc3w3C8jmdIZ+mYnnJn4c5mbHk+f/QOSXXGkno+eYrfr+RgVwlJk338IOYvnQSfaOulKv+6GScjxe/tY8KvppftpTT6yy0Dww9J2qtKZZiqlf+Hk8w6OhadFL9UXm4oj06nWom/uAOxBWxaNGEp3UxZdlk9KgufamQXsoTZsyff8U9zqZTgAJfj4C0AIzbHkQUdsMfuwfKXxr1v2I7VxoO5EVUF2HlfcZ6jv4WK8W098cDD2BTB9UJ/NEqtOhyBi1VX7YTFsi/3r9Byi+0miOHJnAo3hmLf5+Bxpo3Fuv9+6z6Av1IYwaCKuBo9qXml8ncWzrCZdJz1HdfhOliKma+qC9+msdF0v6tlY8FzTpCeduEoeOn9zHpy2Z2rYWitL8QawZyOyyrXxWzs2h/R5Gmqbb+pxUOX5oMMz0LTxl1fGp92B6JL9rfY2ke7XL1fR6l6cFvQ6yQ7f1qVBej4OpAqi+Qx/wMXkG3g2cxvbRqz/I01qnIuPiRmCaf8G/iBr/Iy5/32MpSjvLGPkKucyuNbgCPJZBrtVs0NUA+Tq2w/IlYGNhMGYZ/qay8wGL8K7ZArjwmr/bUuBVI5+JlbHXSF0zDt3dDXjcxc0kVmhJ/zClbHvPzBMgjrQcaiuO9D07G+nkYhpuxfI82WEcD55/4B3Kl76Wue3B1WimNLvSJ8/PrHFfGiPVvlc5aHkYePHEFcl+ReaqMeIbu+w5jstYaHFew8oeNuCaV+/4Ojlx4DdfJHmLhTOXzp6SnhVxHOVRwBp5dFeuHTBeLtVmpL8bGUlkx22B5q66Yey8D2iy/IS8QylfaEjAykPthZ7+GGHHwI6zFlHTTMGk6VwTk6URtlH/4VhbWvpKs+aHV+4GMK5DLvz8NG3lKusar+o+4vropzMUUjzV93TDv5DOEmzuj8axNWN2xgOGfp61+YG0oQAEKJL2A+FJ07dAUDBh8EuV/EefI6MvwMcsydA6NZYRc60txrOfoCPQWX87/sVFOe45+VcOsq8vRUuSEhH35/D97dx4QRdn4Afz7ppBoiFeWmGh4H6h5Sx55lIJ4ILzeivdNoJg3miQipnmjUuKZmXnlhQZSHpiZeN9m4pWpoIDp/mL17ffMzC7sLrvLsmCgfPcvhZl5nuczu8N+5zkm//4N0vuilywW7GskFuzruQOHxZdWZc63OZusB3Kpx/348hHw/fwQfk+1hbPbDKwTI9oq6fWQi2JNvn+y/rbOGCCUYGTq/VNZHt6sv3Kz6UAOo99RdL+XVH8hgVxjf2mQHPrrGmPRDtG9Im6yiA/KM2kYs6qsPGVPWnQx00AufwZ/S9teKcKCedBmTpHJAJVpWcpUlH8rkEPT6/k0VAz/rR8mhgJHouORvQgQwcX6lzk7Y78zuHlppk6mvwenn7+sXRNNt9JYIE8vX1mjwvA7u179zHy2M9bR/PXH8kBuyt54xsjs86s3XSKzPGH9GyZtT3OBPCHSDx8OjUHNBT+JzGRukUk1DoxpjG7R7U2P9JBvLpxMH1Viqu4/BaByr1/RaukihLSvq7f+Vg40l4fIAQHrArlYKdBx+ANMO7MNw+U78vp3yuVhWZiht+hAxh5yYNbFTRikHUKVWSCXh9WdxrC0RWtMtF4M+TobPhidgp/AX3dbUz/PAUQeggIUoEDeFcjiF/IM10oLe8jNXqOPYpxLD5waanrYfJa+fObjv0GGX/QSRK9aw0/uYOg+Ma9bWinfrI01gVz7zhaLKJ37Cv26hOKJn3Qef8kYuKRNc+BvbcYAYf79o/QsPsB4nQBmOpA7KkPHDUbxvfgecs0w6pDHBoE5/cqhrKBcH5tOfI6WUme2QQ9xpoFc/gwegHcO9pArIxoNvq9JVc60rH+3h1yq0q9TGqHzZT/scV2Hdns7mZ4aYPHF2ty18wymNeqEdfXSh8nrfxdWCjFVJ2PBVLYW03hWWDWNJ2uBXH6//9wLhw4NwaFMPg9pN4+MfLYzXLczuf5YHsiVz/wet424MKeJTuOMj8LV/fwqPeRmMoalecLi90nGDU0F8tTTs9HK42uUDvoe3w4QnYaZlCEfZ0W1tPdEhs1Pf4b6blFpI81MHc5y92w0mrtmS8C6QC6H50eYIQdy6Y/0fHT+KEwsTKAs7qLMz1Jh8HfbMbVJUTy/GYVJ3YfgG22vedqcpG+wR1xAHZ7dwt7JveHzrfYOt5GLoFoMX5HmK7Vair3i+MrzVlW4efMpnJwKI1EaOq9ZnlKZd3VBhPfN6FPI2M+1K9Fmy447U4ACFHgJBCwJ5GJVXKPXUOlaqTw2Ld43Gj9Ia3RI80evzpPnkOv1kJu9RhdV5gMeaYkv98xHJ3k+oLiC37yFJ07l5EVrtg+siGE3RuLQXmmusrQGiJm1Pl7Rv0EJuqusmxhdnPGL3g0xhLO1WB4uAEfE3OQKmdhkCLuZDFl3Tnwo/ohqVtBXi7mn9frinHxjRTeQm3v/GH5ELmK1n1j7xSMUkz80Pqk5YyDXzCc19f7RjBSIrdQPoZ8NQwUx5Ddk5pc4aKt97JD+HHJlKPF9DN6+G0H17cTc3w3o23wyLnbXnUOu3+Oe6Q0j0butu8q60QuD5jPyfcH6GPFFCAY3fVcslZeI+3d/x71Crii0TnqkXWNNIBffbzaNQXuxsKK5OeT6Q7fjMOk9L2x2mYMDK7uJ70lidMOUduiw1hFzTM0hF49qmhWwB45j56G/sUcfar+v9VyJ74I/EMcU3/nEktd2Ja9iutmylOvGiZ4bcVwEKluVBd/zDIeoX5mL9z+IQJXlcVjVqaCydsFVZf0KwyHrsre0loDnYdi/cwOlR5wQC/CZmTRvyfnSdDZd7LsG3/tq1ieSC1JWmv9d3ED5cIlKns4x6QPgx2WfYt6mK2isO5XHRJ2UgAT0XPW1WAS5HArc/Qnju/bH9+J78kmxYJf0+ELLrokWfp6ONMLU7V9hmJiP/PzSMvQQn7+7muH25j8PNcz8bTBSxx3DUM5MPlDaXd6CuczaOeQ1MeP7VRguTZIWI74SUQIFvjP/+UVmGcPs3yrjPdaWXJt1P/PGArkSxlfBdtiXiOhfEemXeM2TC27EYl9ixbQV8FU3N2DIh5MRKxbEVt4TNxF3+P9QIe2pGOcRMbAHpp81nIdu4gZBbjz//SX4hpRXqmhdIFf/jIlN+mDVfVvY2z5DwZruqPPn97CZoH0sjmbIyq4H4msVYFO6Mdq+exWR9oFpKwOmrdopb/AmXNu8i8t730CQWKnX28QQq9TTYejaax5+ffQa7KUFF8Wqp6V9VuJsCDC25gB8nWILeSHGpGeo7LcFUROSMNHoz9MfIZBXTgTrQQEKUODFCFgSyA+auIZK10o1YgNbo/vKW/L1vJL0iJaOW4x+KTZ9jW4hP31joZcPQo8/wmv2b4gL9V/iAt4H607NRCtx3NTYGXi/1yrclAqpOFr03IzTLCJmROUV/Rukv5Kv8XeD0Z6XCyK4tFuGUkHH8H2fK2b/Pmc1kN8f9x56b0jRrHKsuxq57sgJc+8fg3bIc5qDYG+4srDOZsaG2Gb6/rm2CSMHheJncf+gRO1+6FZiE2b+Kq0xI80JNVhlXXyt3+PfBUM3Ke9p8UAlFG8QgI1iNfG0VdYNvrxmGsgNVlk3+VlOOITPho3Fip+V70dK8XbwXH4Ry2uuh2e7qTjyf2/AXjwtprhnO7y56QyaWjpkXfocpX1Peq4c26Ycui/fjkWmnr8u9xYeTgv9xuqtrEi9RflsSoes+QliokahgtmyRKDybySeuf5IPCpNaqKYSujlhCPrC5r+npdhzvgNrO7eBZMPSccoALfl17C6kplArl1874aHeBb0EribmzJv0flS3uN6T4CQBZSnSniL99GBmSMRsOk3qOwc0ca3Oe6MD4OdbiA3USdtIK9W8wGunlfJRjZOXgjfNS9tLQiLromWfp5OOqNWgVs4d186ifrvd2mai+nPg/nPdoY6xryPCHP54MICtHRbIJ6epDU0+UnR+5shv5u1n5MO5j+/0qbmM4bu58QwT4i/VUZellybdXczdp1Wzrn+kwOUfTQWP02Fi896yKdIfknn6WOs/9YPDeS1O8Qq6lU/xiYxRVj7sindCjO2hGNQRfPrQ7CH3Mz7LI/8yrpALldeec5gqt5zAfVbJS9MonbQe9as3haWPkNSfyfx7ND7ePxM3KMsqf8ccu2zCi39eR45B6wGBShAgRcooBn612o14hZ9YGIFaKV4U9fQrFVOej6s8Wu0dBz570KK+HplV8L03waLCnwV/wZlbSVf00yZ21hErN1IXqBJPAg4k3Nm0ftHmvM44jmWZhaYTFTQ0vePvGjVfk/zN3Y07dJ/vnGWZPQ2Nr/KusFxTT3XW/NzW4PvN1mrlfYzaPDMcCMHkRdt2/5R2srepsvRHNPG8HNrvizlPZF5PbLWPlNbK4sLfvpWOK4vbZPpIbN0vjI9mthAfqLFJNhJNw46aXcwXifdgNQps+/K5sq24POke4PLWZyPJBvd53nrHNzM58Giz3baoV7E9ScV9m8ZPDs9s89vphnD/N8qffacujZn9kZKr5Op65Kl18D0kjRPnfjRzFz0zKrF379wgWwE8hdeNxZAAQpQgAI5IJCwZSia+UvPC4dm8c0cOOgLPYSpnimpUAt6Vl5o3Xjw7AhI86TbXZ+Q9niq7Bwrfd+LiNz2N1yaOqP02zZ4fOJrDO4ZgvsDNc9Sz5lCXsmjSMOiF9SKwU9jlVWcX86X8jis52emo2XHSLTZcQwhDV58S+4c2Y3rJeuiulNZ2KuvI2bmIAz8vhLCjolHOTqYr1NO9Vha8nkyOuLkxfNkWoJcr2jjmymLRGd6CG6QmYA8hSlGdLYXh9uCaKw2u4hcZgfj71+kAAP9e/LqAAAgAElEQVT5i9TlsSlAAQrkFQGptyDFBmU0a23klWqxHvlLQOrdeWzzdg6v8nsRYV4DMOfYn1DJY3/fRJ3eM7FhVjt5fQK+TAuoEv8UIx0Neh5fOjBlvnrkcxtUk6cr/jvTEpOiJqLj6C24Ig8hLgC7d5tjStiXGCI/xsp8na4s6grPr95F6Jl5MPXka0tOgyWfp11+9THh94HYtnOU6WlAlhTGbV5KgVfjM/5S0mep0gzkWeLixhSgAAUoQAEKUIACFKAABShAgZwRYCDPGUcehQIUoAAFKEABClCAAhSgAAUokCUBBvIscXFjClCAAhSgAAUoQAEKUIACFKBAzggwkOeMI49CAQpQgAIUoAAFKEABClCAAhTIkgADeZa4uDEFKEABClCAAhSgAAUoQAEKUCBnBBjIc8aRR6EABShAAQpQgAIUoAAFKEABCmRJgIE8S1zcmAIUoAAFKEABClCAAhSgAAUokDMCDOQ548ijUIACFKAABShAAQpQgAIUoAAFsiTAQJ4lLm5MAQpQgAIUoAAFKEABClCAAhTIGQEG8pxx5FEoQAEKUIACFKAABShAAQpQgAJZEmAgzxIXN6YABShAAQpQgAIUoAAFKEABCuSMwH/uJyb+kzOH4lEoQAEKUIACFKAABShAAQpQgAIUsFSAPeSWSnE7ClCAAhSgAAUoQAEKUIACFKBADgowkOcgJg9FAQpQgAIUoAAFKEABClCAAhSwVICB3FIpbkcBClCAAhSgAAUoQAEKUIACFMhBAQbyHMTkoShAAQpQgAIUoAAFKEABClCAApYKMJBbKsXtKEABClCAAhSgAAUoQAEKUIACOSjAQJ6DmDwUBShAAQpQgAIUoAAFKEABClDAUgEGckuluB0FKEABClCAAhSgAAUoQAEKUCAHBRjIcxCTh6IABShAAQpQgAIUoAAFKEABClgqwEBuqRS3owAFKEABClCAAhSgAAUoQAEK5KAAA3kOYvJQFKAABShAAQpQgAIUoAAFKEABSwUYyC2V4nYUoAAFKEABClCAAhSgAAUoQIEcFGAgz0FMHooCFKAABShAAQpQgAIUoAAFKGCpAAO5pVLcjgIUoAAFKEABClCAAhSgAAUokIMCDOQ5iMlDUYACFKAABShAAQpQgAIUoAAFLBVgILdUitulCdw4vBGH4YrezZyoQgEKUIACFKAABShAAQpQgAJWCuTzQH4VCzv2QPgNQ73yGLp5K/yqWKd6ZV47fLCgEKYe/R4jy1pzjEj41p6KmDpjcWBdb5QyOETqkSC0Hf496oTEYXGHTI5/ZQFatlkMu8mHsHeEowWVUcr+ffBG7P64stHtN/ergFGYj3trPS04HjehAAVyV0CNP2LmYdSkjTiZ8AxFyjXAwKB5CGhRMnerxdIpQAEKUIACFKAABZCHAvlFfNbUDZfHxWO91791ZpQylxTuji8GvadTaFHU6uCOOg4W1GPLQLw1twpifp6ImprNk46EIfBbOwyaOwB1bcQPjWxj/sjb0MdxDKJQGn03x2Kuq3QQ7esGFn7UGrPOPceHiy2wSj6KhdO+Q+GBszGkju5xTNVAKfvKyEgcm1qdgdyCtwA3oUBeFkiN8kNNnxhUHDATs/q9iWOhAQiKsoPvvhhMqpGXa866UYACFKAABShAgVdfIJuBXIXE2w+hQgHYv/U2HCzJe8I0NeVPnDt6Fqjhgopp++3HiEqD8DjUSMhUPcTti3E4jxpoUL0sStoZOTHyNpcQX6Qa6lctATuokfzndZw9kwDHJg3hXFSpXEJkIEZvdcbEMCksawJ5ZQt6e9PqUB8t6knHV153RBd1vQ3N9QK5Ye0s2UZ/HyUU/2JvjyflR+DIDyNRQbOB/OV64M+wK3YftT9Nt5JM79/9HcdvFEaD+lXxjlEk/VJUiXdwMe4CUL8Z6qVtbyyQi/N8+SSOPygljl0FPw5jD/mrf2lgC18NgT/EDTxXhBYNxoXNvVFMbtQNzGvTEksqr8Dl5e1g+2o0lK2gAAUoQAEKUIACL6WA1YE89fRcuHVdhnOptihmDzx28EGU6CXGzBZovdtdJ6AqoXdnB6XH9fyyzujy2QX8U6ooXsffSHbojxj/C2juG6MHWF7TQ5twcBq8+q7FtUIl4YAUJDx9A24LorHaSxpuKYXHcbjeoC4Sz19GgSJAcsJfsHP1QsvbexCdUhiv/52EpNTy8Nf0Bv3o74IeW5wxXR5OnkkgvzAbjdpuRVmPcri4P/34cA3Gqc31sEzqXdcb7t4aS/+IgLfUI+4L8e9PcNHYNtFVMKftWtRdeRrhbpq7GHfC0LbhEjjLP9slB3JMn4HHM+fCMeIEln0obae1nI+Ou8ekjSZQhsjfhH3xwij47CkeJT1D5YAdOBAg9XArARua3vTz0vnZ4oiO5S4j+vJrKCKZPgZcZx/Ftn5aU50ecvUZhLTzwoKrBVFMHP/5k/+hYMFHeNTYgpsYL+VHgpWmwKskoHz+HwefxvcD0of8nPr0fbTb0x77jgWi7qvUXLaFAhSgAAUoQAEKvGQC1gVytejNrjUI0Y3n4MDKbnCUsqJajVQbG1w1G8ghh/O9ntGIHV9JodLsZ2sQHJXfKeXEuq/DL/Oby73ep2a2g/uK0gg5txE+DsqXzRPeqxG36AO51zp2fD10XV8eE49uwBgn8RO12MZZBMxh2iHYKiSnFISD3GOuCeT/Vxsd6qfPry7TcRqCO4v/y4F8OQr77kPkpKry8eO/aI/Gcx2V4C3+LwdcvRsQ4odpgdzUNhl7qORe9PA62Hp2Ft5Ps7iKEb+8j66Huso3OMqK4743oTCWXhyFuBbpw/tTU1LwvGhRTa+9GgfGNEa3o900N0WMBPKwwvCL2YbJ1aQWKXWZU1YbsPV7yOX2zi+KGce+xvAywkx9F4s9m2JmCQbyl+yzzurmRwHNNayKwfQW+boVVintOpYfadhmClCAAhSgAAUokBcErAvkYtj0uz7H0TcyFkF19JuRMaDq9pA7Yo13PUy63gbTFgbCp1m5tKHfhj258lGNlZO8Bp2rT0ehL67i2x5KT7LufOeMXzT1e+j1a2tZINf7Mptp2LYkkANJa3ugxpTCWPS7CO02Sihe02QLzgTXFwfQCdFtxb/rTwFCl6LczMH4dWAMon2fGplvLw3Rv4+nhUvj4aI2OjcJjAVy/S/i+ou06QZyR6z0rIPJhebg1jfd0oa2clG3vPDRZR0oYIEAA7kFSNyEAhSgAAUoQAEK5J6AdYFcDqW/YXT0QQQaLApkPpCLIdQqMfx6yFiEHohHqm0FuAdHIKyHswh7+sFRJjFajm5gvJQzgdzUHHJjX2ZzKJBDvQ9Dq4/E09BLWF8/DB+4RqLjkb0IqCA1XN9C6aW+igKluuO7Y6IHXTP3XbsAnnb6wOWCxeDw+nM8eZQE1TvDzfSQWxrIlRENSwx8GMhz7wPLkimQJQH1JnQvPx6Qb2CmL/IhX6dXv4f1vy3Eh1k6IDemAAUoQAEKUIACFMhJAesC+ZHJqOG9F+6bT4gVwPWrk2kg126uTsHZ8MHoFPwE/r/uhl9ZI4FcLucAvHV74l9ED3luBHLh8OuURuh82Q97XNeh3d5OOCEWb1OekmZgof4ZC0esQbJXMKa5SfO8dVekv4qQ5h9iXYN1OCWG9UsLNOmfgxzoIccMXN7mo1kQCmAgz8mPII9FgRcpoFwrvmm+ERfmNNEUlKyMfDH4XL/IWvDYFKAABShAAQpQgALGBawL5No55C5TsXPdYEhTkVWJD4GSJXArtDWaLymFWSc3YVApMYz63Ffo1yUUd/tLc7grIDFRbKZZ0Tv14Ceo2+MChsmBfBf6lxuNeN9o/CDNLxdzy21tzmDSe17Y7KKdq67C8Snt0GGtI+bozCHPypB1o6usvxOIuPntdYQ0q8ZfVeaQmxuyfkVq75eVEX52BToXVObR2xr0ohvdRirt+DTU9jwM+3duoPSIE2JRNe2iS0ZuTuidP91ArvnC3UQTyFW38K1vZ3x83twcckt7yKsjXsxtd52jwuDvtmNqk6J4fjMKk7oPwTeWrEzPTx0FKJDrAmmf4e27EVS/oHgm+WR06bNbXNd+Fo+YtOTZjrneBFaAAhSgAAUoQAEKvLIC1gVywZF6Ogxde83Dr4+eyzgF7Doh/NoieMSHo33LWTipln5qg9JNe6Jp0lqcaiUF8gcYW3MAvk7RrMwurQbutwVRE2qLnl01YgNbo/vKW+JfQCW/KMROqJyhHNiUQ/fl27FI7inO+IiuzOaQG11lXW+ldKneTspwfGQeyBG/Hv/tMB0HJYcCH2HFrXB0MQjkRreR1TQLqt3wwKqLS+CeNqI0K4FcLDS3pgc+nHQUKvs3gP8rjq5upfDt6cY5MGRdWqU9EZuHtof/rgfyebEp3Rht372KSPtA3Fvr+cp+MNgwCrw6AonY498FQzcp11bpulxtQAS2BDdHqVenkWwJBShAAQpQgAIUeCkFrA7k2tZKz7JOVNuj9NtF059nK4aj370nnqVVtDTKaJ7/rasj76MC7EqaeKZ4BkplwbLHz+xQ8p30Z4BbJ667yrp1R8i5vZLlRe4+fSsc15e2ydZh5eeQixsd2fcxXg35+GoHi55vnq2GcGcKUOCFCCjXiOdZuO6+kGrwoBSgAAUoQAEKUIACOgLZDuTUtEZADG1X2+D5melo2TESbXYcQ0gDa47DfShAAQpQgAIUoAAFKEABClDgZRVgIM+VM6fMl498LoaOpg3Zz5WKsFAKUIACFKAABShAAQpQgAIUyCUBBvJcgmexFKAABShAAQpQgAIUoAAFKJC/BRjI8/f5Z+spQAEKUIACFKAABShAAQpQIJcEGMhzCZ7FUoACFKAABShAAQpQgAIUoED+FmAgz9/nn62nAAUoQAEKUIACFKAABShAgVwSYCDPJXgWSwEKUIACFKAABShAAQpQgAL5W4CBPH+ff7aeAhSgAAUoQAEKUIACFKAABXJJgIE8l+BZLAUoQAEKUIACFKAABShAAQrkbwEG8vx9/tl6ClCAAhSgAAUoQAEKUIACFMglAQbyXIJnsRSgAAUoQAEKUIACFKAABSiQvwUYyPP3+WfrKUABClCAAhSgAAUoQAEKUCCXBBjIcwmexVKAAhSgAAUoQAEKUIACFKBA/hb4z/3ExH/yNwFbTwEKUIACFKAABShAAQpQgAIU+PcF2EP+75uzRApQgAIUoAAFKEABClCAAhSgABjI+SagAAUoQAEKUIACFKAABShAAQrkggADeS6gs0gKUIACFKAABShAAQpQgAIUoAADOd8DFKAABShAAQpQgAIUoAAFKECBXBBgIM8FdBZJAQpQgAIUoAAFKEABClCAAhRgIOd7gAIUoAAFKEABClCAAhSgAAUokAsCDOS5gM4iKUABClCAAhSgAAUoQAEKUIACDOR8D1CAAhSgAAUoQAEKUIACFKAABXJBgIE8F9BZJAUoQAEKUIACFKAABShAAQpQgIGc7wEKUIACFKAABShAAQpQgAIUoEAuCDCQ5wI6i6QABShAAQpQgAIUoAAFKEABCjCQ8z1AAQpQgAIUoAAFKEABClCAAhTIBQEG8lxAZ5EUoAAFKEABClCAAhSgAAUoQAEGcr4HKEABClCAAhSgAAUoQAEKUIACuSDAQJ4L6C9rkTcOb8RhuKJ3M6eXtQmsNwUoQAEKUIACFKAABShAgTwjwECecAjz/IMQceI2njwvjCJlKqKj71zM9spK6IxDUKuh+LZQX2yK9EfNPHN6s1CR3QGoOek6hm7eCr8qxvfb3K8CRmE+7q31zMKBuSkFKJC7Amr8ETMPoyZtxMmEZyhSrgEGBs1DQIuSuVstlk4BClCAAhSgAAUogDwUyC/is6ZuuDwuHuu9/q0zcxEhzT2w+GkbjAv4L2qWSkRCfDxiHrtiZUALyytxfBpqe36NhOcl4bPjGEIaWL5r7my5DX0c56Nq9EEE1tDUYMtAvOX7G0br/sygcgzkuXO2WCoFsiOQGuWHmj4xqDhgJmb1exPHQgMQFGUH330xmKT9/GenAO5LAQpQgAIUoAAFKGC1QDYDuQqJtx9ChQKwf+ttONhYVo/UlD9x7uhZoIYLKqbttx8jKg3C41AjgVz1ELcvxuE8aqBB9bIoaWekHHmbS4gvUg31q5aAHdRI/vM6zp5JgGOThnAuqlQuITIQo7c6Y2LYANS9OhuN2i5HlcWZ3ATIpPyoUTXg83gCPnsahHnOX+PCnCYZKqhKvINEFVCgaGmU0dRF2kiyuJ/yHLArgXd0Gib9/PqZs3jwpgtcnC231StYnYK7v5/DmQdl0KTxu+nn504Y2jbciJaZBnJxfi+fxPEHpdCgfhX8OIw95Ja9w7kVBfKKwB9Y+JErQosG48Lm3igmV+sG5rVpiSWVV+Dy8nawzStVZT0oQAEKUIACFKBAPhSwOpCnnp4Lt67LcC7VFsXsgccOPoj6eSIwswVa73ZHjPi3MnRb6fne2SESx6ZWx/llndHlswv4p1RRvI6/kezQHzH+F9DcN0aPv/xIZfuEg9Pg1XctrhUqCQekIOHpG3BbEI3VXtJwS6mndxyuN6iLxPOXUaAIkJzwF+xcvdDy9h5EpxTG638nISm1PPw1vUE/+rugxxZnTD/6PUZCCqZzkDJgKw4E1xMhPuMrITIAbsO340GRYiiCp3j0xAljI/dhnLZnSb0PQ6uPARafxpwHfVEjqBS+urgE7tqbE+ozCHHvjsXnU2ErQxXFoH1Sz3QiNg9tD/9dDwD7kij0f4lo8oV0Y0CN31YNhMe0I/g/+2JK/Z9Vgv+OXZhURxz0gnQTYQ866oTp83rmism99u2QdOBHpBQRyo+SkPp2P3x3JAjFQsX5Cbup19APpRsSMOghl+rdzgsLrhZEseKF8fzJ/1Cw4CM8aswh6/nwOsEmv7QC0vVgDB4Hn8b3AxzSWnHq0/fRbk977DsWiLovbdtYcQpQgAIUoAAFKPDyC1gXyNWiN7vWIEQ3noMDK7vBUQqfajVSbWxw1WwghxzO93pGI3Z8JUVPs5+tHK6lYKvTW60pJ9Z9HX6Z31zu9T41sx3cV5RGyLmN8HFQ9jnhvRpxiz6QA3Xs+Hrour48Jh7dgDFO4idqsY3zGFwZpgR8iP785JSCcJB7qcXxQj3gsfAyUNoF7bwHw/9jd7hoe7DlsD0S9z45jO+GlRE9SYlY6dkIgcUX4o8ID7n6qWKod4UJhZUQ/vRreNYKxpvhpxHuphw/alQ99IluiPk/rUCvMsrPUtU2+GN5B7jOUWHw9t0Iqi/VXPm5rdR73XweikxNL3Nzvw8w6qwndp0MQkOLArkwcV+IaHHzQzo3qZGjUXXQGQzUhngjx4DBkPX4L9qj8fyimHHsawyX6q2+i8WeTTGzBAP5y/+xZwvyjYD8Wc84Cki+iRdWCUv/iIB3vsFgQylAAQpQgAIUoEDeE7AukIs5ie/6HEffyFgE1dFvlH5vrfQ73R5yR6zxrodJ19tg2sJA+DQrp9MrbSSQGysneQ06V5+OQl9cxbc9dsmB/IqmN10qLeMXTf0eemOnQHXzCNZ8EYKl287i/v+Ko+H4NdjqWxu2cvm/Y2TUcvTUdC5dWdwNPQ921IwASJbb82mpMM3QT+X/kxCkGR6qDMM/1mcH4j6trVO0Mox0Vsk5uPVNN70ho3cWd0C9kBKYf2Mdeml72Y9MRg3vA/CWvG0s6SHXN8nQq55pIE8WNx7qYHIh/fpxDnne+wCzRhQwK8BAzjcIBShAAQpQgAIUyNMC1gVyMwuAmQ/koodadQLLhoxF6IF4pNpWgHtwBMJ6OItQaiSQGy1H2U4J4ZdyJJCnnSHRC7xh0EcYE+2Eyb/uht9RaRj3IdjLw+t1Xs1m4GSYB2w1Nweu1GyLpuULyhuobxzDD5eqYI5OD77uDQPlKMpNgiWVM/Y2G+250v1SXf3fCOTG68dAnqc/y6wcBTIKqDehe/nxgHwDM32RD/k6s/o9rP9tIT6kGwUoQAEKUIACFKBArglYF8jlHtu9cN98AnNd9eueaSDXbi4WHDsbPhidgp/AXwq/ZY0Ect2eYW1P/AvoIddrwenPUN8tCl2k4d1JUjtPY5hcv4znSB7WHVYUw4O6Iv1JYWewesIG/DP+CKJ9b2KcSw/scdtosNCbpgcaM3B5m49moSXl+EmruqHqlNfzRg+5Qf0YyHPtc8qCKWClgHJz7Zvmutcg09cfKwvhbhSgAAUoQAEKUIACVgpYF8i1c8hdpmLnusGoJqZAqxIfAiVL4FZoazRfUgqzTm7CoFJipfNzX6Ffl1Dc7S/1aFdAYqLYTLOaeOrBT1C3xwVN4N2F/uVGI943Gj9I88vF3HJbmzOY9J4XNrto56qrcHxKO3RY62iyBzqzIet6q6w/PYtfrpVAJe3K7arLWN7XG9NPtcQqaU44lLnysa2WYq8YSi7PlRdz0G/efAonp79MrFSsxuZ+1TDqzsf4Zf9IXJXnkNfEjO9XYbgM9VDMRC+Bx18pc8h7rfkas1qL+eniBkWiyg4l/9kk5qFPw/1B3yH6U7HQnOi1X9dPPJbtkrcyh/zKXLz/wTKUCj4mFmkqKVZpP48VPv/FzD/7aYbR644gkObMi5fhEHX5GBGosjwOqzoVVOau79Bf1C1etFee4/7ddkxtUhTPb0ZhUvch+MZIr76V7z3uRgEK/AsCaZ9leb2KguKZ5JPRpc9u8XSJn8UikukLvf0LVWERFKAABShAAQpQgAIGAtYFcnGQ1NNh6NprHn59JB7ZJV4F7Doh/NoieMSHo33LWTipln5qg9JNe6Jp0lqcaiUF8gcYW3MAvk7RrMye9AyV/bYgaoKYry0WNYsNbI3uK2+JfwGV/KIQO6FyhnJgUw7dl2/HIjftKutZm0Ouv8p6BDxbBOOISmmD3I7i9TFiWTgCW0jH123na7CXFkl/LNZ/81mJs32PiMWS1qL+mgtYZjDmU28RtcpnsNDLB6HHH0EupYAdPJdfxPIOidjj3wVDNyntlaxqTdyD/R9XFo9mk1Z234Kbyi/kOk3YsBF+0irr4pFFYR3aYoYCDJvSjdG3STIiTn9geSAXx1jdvQsmH5LqVABuy69htdrwOeTpq8BLJUnltH33KiLtA3FvrafB24j/pQAF8q5AxmtNtQER2BLcHKXybqVZMwpQgAIUoAAFKJAvBKwO5Fod+fnaanuUfrto+uJk0vOv74nkavDMbb19xDO57UqaeKZ4BnrpmeL38fiZ6EF+R3rGeHZeuqusS8fRHlv8s6BBO9KKSd/G8job1FF6lnliasbntWusbDNYaJ7xbrROmvrAVH2z46O/r/ycdLWD3jPSc+7oPBIFKPBvCcif5ZTnWbju/ls1YzkUoAAFKEABClAg/wpkO5DnXzq2nAIUoAAFKEABClCAAhSgAAUoYL0AA7n1dtyTAhSgAAUoQAEKUIACFKAABShgtQADudV03JECFKAABShAAQpQgAIUoAAFKGC9AAO59XbckwIUoAAFKEABClCAAhSgAAUoYLUAA7nVdNyRAhSgAAUoQAEKUIACFKAABShgvQADufV23JMCFKAABShAAQpQgAIUoAAFKGC1AAO51XTckQIUoAAFKEABClCAAhSgAAUoYL0AA7n1dtyTAhSgAAUoQAEKUIACFKAABShgtQADudV03JECFKAABShAAQpQgAIUoAAFKGC9AAO59XbckwIUoAAFKEABClCAAhSgAAUoYLUAA7nVdNyRAhSgAAUoQAEKUIACFKAABShgvQADufV23JMCFKAABShAAQpQgAIUoAAFKGC1AAO51XTckQIUoAAFKEABClCAAhSgAAUoYL3Af+4nJv5j/e7ckwIUoAAFKEABClCAAhSgAAUoQAFrBNhDbo0a96EABShAAQpQgAIUoAAFKEABCmRTgIE8m4DcnQIUoAAFKEABClCAAhSgAAUoYI0AA7k1atyHAhSgAAUoQAEKUIACFKAABSiQTQEG8mwCcncKUIACFKAABShAAQpQgAIUoIA1Agzk1qhxHwpQgAIUoAAFKEABClCAAhSgQDYFGMizCcjdKUABClCAAhSgAAUoQAEKUIAC1ggwkFujxn0oQAEKUIACFKAABShAAQpQgALZFGAgzyYgd6cABShAAQpQgAIUoAAFKEABClgjwEBujRr3oQAFKEABClCAAhSgAAUoQAEKZFOAgTybgNydAhSgAAUoQAEKUIACFKAABShgjQADuTVq3IcCFKAABShAAQpQgAIUoAAFKJBNAQbybAJydwpQgAIUoAAFKEABClCAAhSggDUCDOTWqHEfClCAAhSgAAUoQAEKUIACFKBANgUYyLMJyN0pQAEKUIACFKAABShAAQpQgALWCDCQW6P2IvdJPoudu2/BqYM76ji8yIJevWPfOLwRh+GK3s2cXr3GsUUUoAAFKEABClCAAhSgwCsnwECecAjz/IMQceI2njwvjCJlKqKj71zM9rI81KkubcCMyauw87eH8hvEzrEm+n+2FqMbWvF+uTAbjdruQcfogwiskdn+kfCtPRUIicPiDrrbXsXCjj0Q7jwT5xe6ZXYQi39/ZVFXeH51w8T25TF081b4VbH4cFnbcHcAak66braMzf0qYBTm495az6wdm1tT4FUWUN/F/sWT8OnqU7j15BmKlGuA0fOWYUR9u1e51WwbBShAAQpQgAIUeCkE8lAgv4jPmrrh8rh4rPf6t+wuIqS5BxY/bYNxAf9FzVKJSIiPR8xjV6wMaGFRJc4v64wun51DgeofoXf3lnB+A7h3bg+ef7QWn3xg0SH0N8pSIN+GPo5jgMWGZorlkso5G06TzuzB7nMpSn3jVmPsN0Cvuf3RQP5BUdR6kb36WwbiLd/fMNrMjQoGciveb9zllRe4EtoOH+0og0E+vdGowk38tHABIs7UxJxzGwDmsikAACAASURBVOHDUTiv/PlnAylAAQpQgAIUyNsC2QzkKiTefggVCsD+rbfhYGNZY1NT/sS5o2eBGi6omLbffoyoNAiPQ40EctVD3L4Yh/OogQbVy6KksY4deZtLiC9SDfWrloAd1Ej+8zrOnkmAY5OGcC6qVC4hMhCjtzpjYtgA1L0q9UYvR5UMgdagHabKjw9D2+ZzkDJoBw5/Whu2ppqfSf3TPGo3Rq2HYWiWoYdccr6M4xeAmvWr4p00AMsDuXFzqcLpTm/WroV33y5qpB1S+ckoqHuO5YAMLP0jAt6Wnfa0rfTam6E8E201GsjFtpdP4viDUmhQvwp+HMYe8iyeCm6eDwSSEhJRuFTJ9M/16c9Q3201XJZfw+pO+QCATaQABShAAQpQgAJ5WMDqQJ56ei7cui7DuVRbFLMHHjv4IOrnicDMFmi92x0x4t815YYrvbU7O0Ti2NTqUHqUL+CfUkXxOv5GskN/xPhfQHPfGD2m8iOV7RMOToNX37W4VqgkHJCChKdvwG1BNFZ7lRTbS4F0HK43qIvE85dRoAiQnPAX7Fy90PL2HkSnFMbrfychKbU8/PfFYJIYAv6jvwt6bHHG9KPfYyREoG4oAvWArTgQXE+E+IyvhMgAuA3fjgdFiqEInuLREyeMjdyHceJYd8Q48XohRTDr4iYMMtHTZL7+4gbBlqFo5v8D/ios2lfgKZ78pxD+88geA7U9wQn78LHHaGx+UATFRfuePHqC8v47cCCguqb9mfeQGzU/NA5V1Gew0MsHoafVKO4gzkZyEgq2W4ij4R4oprFVDx2CP1ctxyW1k37vdIZArpzniDorcHl5O82X/z+w8CNXLHCWfvYUA6VzVbMS7vx+D0WKPBPnSoU32s/F4QhPlJLvlphpq2EgF3UPaeeFBVcLoljxwnj+5H8oWPARHjXO2VEBefizy6pRwCqB1MjRqDroTPo1xqqjcCcKUIACFKAABShAgZwQsC6Qq0Vvdq1BiG48BwdWdoOj1PmsViPVxgZXzQZyyKFtr2c0YsdXUuqv2c9WDoAG4VJTTqz7Ovwyv7nc631qZju4ryiNEHm4pbLPCe/ViFv0gRyoY8fXQ9f15THx6AaMcRI/UYttnMfgyjAl4EP05yenFISD3GMujhfqAY+Fl4HSLmjnPRj+H7vDRdObDvU+DK0+Evc+OYzvhpURITMRKz0bIbD4QvwR4aGUtbU51v+2EB8aOxuZ1b+wdPxhONpR2z5Ru5ixqN/nOHrKgVyNPcPrYPC9sTi+abDsnLCqG2pPK4awW+HoYsxMrofukPVqJs3/+KI9Gq9zwaYjn6OloEo9MhkNvI+i50/i5kUVxTZWnOdli4egYSlbFCxaIn0UhJEe8njpeGGVsOriErhLvHekGx5foe7mE5jrmvFcqQ5+gsY9dqPJytMIF1PdzbbVIJDLZc0vihnHvsbwMqIwMU92sWdTzCzBQJ4TFwYe41UV0EzTsQvAkR9GosKr2ky2iwIUoAAFKEABCrwkAtYF8ig/vOtzHH0jYxFUR7+l580Gckes8a6HSdfbYNrCQPg0K6fTK20kkBsrJ3kNOlefjkJfXMW3PXbJofGKpjddqolcvgiF6UOp9XvojZ0X1c0jWPNFCJZuO4v7/yuOhuPXYKuvGIIul/87RkYtR09ND/iVxd3Q82BHeQTA1YEVMexcf+w7Foi6xg6cWf2dpqOG9wF46zrqzSFXhvFfG7EHEd01Fbi6FJ17H0YXObBbMmS9tQlzpfd6acXFiJlST1P7vfBr9Bns5CH8yrF1bfWaaGzIevLX8Kw1DUUWXBL720AOzesaYdfJIDTU3DzQP94ZTGvUCbvddyDu0wfm23pRdw55srgxUgeTC83BrW+6pQ3F5Rzyl+Sqw2rmkoDmhua6ClgUK6aayMNS+KIABShAAQpQgAIUyE0B6wK5mQW2zAdy0UOtOoFlQ8Yi9EA8Um0rwD04AmE9nEWoMhIujZajGxQv5UggTzsBopd1w6CPMCbaCZN/3Q2/o1IIPAR7eXi9zqvZDJwM81BGA4SVx/wb69DL2Pz5zOpf/fOMC5XpBXKlrT/Zi+HsehV4H8Fxi9DFxpJALlYcN2r+N0LFaIVl94uJofAFdBpXFgM27hBD8q0I5GLEgdzL/TQY8WvrYXGblmKqwgH8NLa8OL6x4+n25MN8W3foBnLji9YxkOfmpYRl520BEcYXe+O/cx6j3659CKxj4YIfebtRrB0FKEABClCAAhR46QWsC+RiaHMN771wl4ci6xtkGsi1m6tTcDZ8MDoFP4G/FH7LGgmXcjkGPcgvoIdcrwXygkdRSg90klT+aQyT62fkXMs94FF4f/HPokfYyCTyzOov95AbOOoF8qMY59IDp4YeQbSvo5EKKD3ocf21w/E1m8hD7Yfh/JAoxE6onL6fnvkGvDG6DmY6rsT1pW2MHNuaQC4Oc3waanteQcCupljl9gM80+yMHU9p3899pHommm+r3s0NTQ85ZuDyNh8x3115MZC/9NcjNuAFCSSIz09T/3h0/vo7zG0hrb/BFwUoQAEKUIACFKBAXhCwLpBr55C7TMXOdYNRTcw/ViWKZ3CXLIFboa3RfEkpzDopFjorJVbwPvcV+nUJxV05NFZAYqLYTLNKeKqYQ1y3xwVN4N2F/uVGI943Gj9I88vF3HJbmzOY9J4XNrto56qrcHxKO3RY66h5ZE/GkJfZkHW9VdafnsUv10qgknbldtVlLO/rjemnWirzoKHMlY9ttRR7xQJu8lx5MQf95s2ncHKSvtTeEMO+W2PWZUd0DF6MT93ECuiFVbideBN3Hr6LxrV/M1//wtq5+LOwf0UvOBXU3qT4U7PgkhpRo+qhz5GW+HLPfHSS5kpLNbh5C0+cyomF0DS/3+eEMeu/wdgmYoV01S3sne6DgeufYYQ8rF2sRG7CvPPWDnCd8x/4R32H8dJJFK/UlFtI+KccHDXz87M0ZF0+QpxoczccfKMsrr81DBc299YEZs2c9MYTsGPNYDFP/xkuLfWBW7CFbTWcQy7Oh+scFQZ/tx1TRbuf34zCpO5D8E0OP+otL3xIWQcKZEdADuO+5+E6LxzBzXXGqRe0R2mjT1XITmnclwIUoAAFKEABClAgKwLWBXIpuJ0OQ9de8/Dro+dyeQXsOiH82iJ4xIejfctZOKmWfmqD0k17omnSWpxqJQXyBxhbcwC+TtGszJ70DJX9tiBqgvTIMDViA1uj+8pb4l9AJT+ld9ewHNiUQ/fl27HITbvKetbmkOuvsh4BzxbBOKJS2iC3o3h9jFgWjkBNL1J6+a/BXlpN/rFY/81nJc6GaJ5Trv4dG0YNxOTIeKQfxga1Ju7B/o8zq7/kqFmtXtq5gB2c3Zri9V2/oY12lXXtSujHH+E1e/GQ88d/iQr0wbpTM9FKqrDO79NaIRkt3oS5naSF6A6aMU/EHv8uGLrpFv5n9wZsU/8S0wgaY8bBbzFEM2Ih64EcytzxuTfRWV6sTTs0VrOoW8UaKHDzAu5LJ7mAznx9g7ZkaGuG4f+J2Dy0Pfx3PZDfLzalG6Ptu1cRaR+Ie2vFMH2+KEABWUAeORJtBKP8cJ2nYRCLAhSgAAUoQAEKUCA3BKwO5NrKqhLvIFFt0NMihkbfvSeSa9HSKKNdsVyndfI+KsCupIlnimeQkJ6VfR+Pn9mh5DvSM8az89JdZV1OgZpji3+a7DFK38Z0nc09kz2z+ht5zrdBE6Vnd99PEZHbroTOc8jTN0r7vdAxZmTWXHpOunRCcqjHLGltD9QIegtr9Faf1x3NIEZKGD7XXKe9mbVVl0beVu1g1CQ77xLuSwEKUIACFKAABShAAQpQ4EULZDuQv+gK8vgvj0CqNM3g2VlMbt0Vu1pvwZng+jqVz2RO+svTTNaUAhSgAAUoQAEKUIACFKBAjggwkOcIIw8iCWyXHgO39zlsqo3Grn3jUFdvIedI+Naeit8Hb8RuMZSfLwpQgAIUoAAFKEABClCAAvldgIE8v78D2H4KUIACFKAABShAAQpQgAIUyBUBBvJcYWehFKAABShAAQpQgAIUoAAFKJDfBRjI8/s7gO2nAAUoQAEKUIACFKAABShAgVwRYCDPFXYWSgEKUIACFKAABShAAQpQgAL5XYCBPL+/A9h+ClCAAhSgAAUoQAEKUIACFMgVAQbyXGFnoRSgAAUoQAEKUIACFKAABSiQ3wUYyPP7O4DtpwAFKEABClCAAhSgAAUoQIFcEWAgzxV2FkoBClCAAhSgAAUoQAEKUIAC+V2AgTy/vwPYfgpQgAIUoAAFKEABClCAAhTIFQEG8lxhZ6EUoAAFKEABClCAAhSgAAUokN8FGMjz+zuA7acABShAAQpQgAIUoAAFKECBXBH4z/3ExH9ypWQWSgEKUIACFKAABShAAQpQgAIUyMcC7CHPxyefTacABShAAQpQgAIUoAAFKECB3BNgIM89e5ZMAQpQgAIUoAAFKEABClCAAvlYgIE8H598Np0CFKAABShAAQpQgAIUoAAFck+AgTz37FkyBShAAQpQgAIUoAAFKEABCuRjAQbyfHzy2XQKUIACFKAABShAAQpQgAIUyD0BBvLcs2fJFKAABShAAQpQgAIUoAAFKJCPBRjI8/HJZ9MpQAEKUIACFKAABShAAQpQIPcEGMhzz54lU4ACFKAABShAAQpQgAIUoEA+FmAgz8cnn02nAAUoQAEKUIACFKAABShAgdwTYCDPPXuWTAEKUIACFKAABShAAQpQgAL5WICBPB+ffDadAhSgAAUoQAEKUIACFKAABXJPgIE89+xZMgUoQAEKUIACFKAABShAAQrkYwEG8nx88tl0ClCAAhSgAAUoQAEKUIACFMg9AQby3LNnyRSgAAUoQAEKUIACFKAABSiQjwUYyPPxyc/zTU8+i527b8GpgzvqOOT52rKCFKAABShAAQpQgAIUoAAFsiTAQJ5wCPP8gxBx4jaePC+MImUqoqPvXMz2csoccncAak4CQs/Mg4fu1leWooN3BJxD4rC4Q+aHsWaLpG+G4P2QE2g+8yiWd7Kx5hC5vM9VLOzYA+HOM3F+oZvxulyYjUZt96Bj9EEE1sjl6rJ4CrzkAqpL3yNoyufYkdoT23aOQhW5PZrP4Q0jjSs/UGc7Nf7YEYT+wXvwe8JTFCjyDqoPD8H2kQ3SdlTFfYlBAcsRd+spnhcpCecPJ2DVvI4oK18nfzKq1/oFXiNf8tPF6lOAAhSgAAUokE8E8lAgv4jPmrrh8rh4rPf6t/QvIqS5BxY/bYNxAf9FzVKJSIiPR8xjV6wMaJF5JbYMxFu+wNI/IuCtu7UcJJejyuIX1ZZkrPGuh0m/iEIbB+HC5t4olnltc3WL8zNboPWVMbi31lNTD+V8L6k8X+dnBlVkIM/Vc8bCXxGB5P2Y0nUcVl38C7Z2/4Oq9BDE/DwRNeXmJeP0rkicS9Ft6zMcDZ+KTbbjceKHkSgrfpUgrnVN/U+iar9PETSiAYrEn8Due2Uw1ksJ5KmnZ6OVx0qkuk3A/AA3VHhyAbtPvwaPAW1Q9kYsvo69pY95cydmLDqJNmsuYNmHr4gzm0EBClCAAhSgAAWsEMhmIFch8fZDqFAA9m+9DQcLO2pTU/7EuaNngRouqJi2336MqDQIj0ONhFjVQ9y+GIfzqIEG1cuipJ2RlsrbXEJ8kWqoX7UE7KBG8p/XcfZMAhybNIRzUaVyCZGBGL3VGRPDBqDuVQuDs6nysxDIVYlXEBeXgDdrVIPTO1L9tC/J8DKOXwBq1q+Kd4w1Tp2Cu/eeoZh2vzthaNtwI1rO/gDfTbwEv4ubMMhwSLe8z2M8FyWVzFCesXNmQT0seIOpEu/gYpxoTP1mqKfTlqhRNdDncXCmgTztvVG7MWo9DEMz9pBboM5NKGBG4MpGhPzohN79XPF4nrgxtttdJ5Ab2S9eXF+aL8HbC34WN0fFhUW9D0OrD8OVkQfw09jyRna4gXltWoqbaytweXk72GZ6MtSIGlUPfU70Nl+PTI/DDShAAQpQgAIUoMDLL2B1IE89PRduXZfhXKotitkDjx18ECV6XSD1hOp94VN6Qnd2iMSxqdVxfllndPnsAv4pVRSv428kO/RHjP8FNPeN0dMsP1LZPuHgNHj1XYtrhUrCASlIePoG3BZEY7VXSbH9NvRxHIfrDeoi8fxlMYxS9Pck/AU7Vy+0vL0H0SmF8frfSUhKLQ//fTGYJIY9/+jvgh5bnDH96PcYCSnYzkHKgK04EFxPJySnVyUhMgBuw7fjQZFiKIKnePTECWMj92GcNITaokCejCj/9vDZkgT74oVR8NlTJDf5HLcjxCD3hH342GM0Nj8oguKi7k8ePUF5/x04EFAd0PQOu46shr0rfsCj563TeuLjv2iPxrvd8Mv+Zljxnhd+7qv/RTlhy0i0GrsH9/EGShX6GwmN58hB2NQ5qymG7U/qNhAR115HKfH9OzlBhTfaz8XhCE+UEs2Ue7fNnVPp91sc0bHcZURffk04ifP0GHCdfRTb+h0U52gMonTPbvnh4ot4Z2w16CFP2DIUzfx/wF+Fxbku8BRP/lMI/3lkj4Ecsv7yX2nYgjwhkPGznLFav05pBI897bHrZBAaSr8+Mhk1vE9j2K+74Sd1lxu+ktegc/VQOFra2538NTxrTQOCT4jrAxeHyBNvDFaCAhSgAAUoQIFcE7AukKtFb3atQYgWQe/Aym5wlDqf1Wqk2tjgqtnwBjmc7/WMRuz4SkqjNfvZyuF6DKA7zFtTTqz7Ovwyv7nc631qZju4ryiNkHMb4eOg7HPCezXiFn0gB+rY8fXQdX15TDy6AWOcxE/UYhvnMbgyTAn4EP35ySkF4SD3mIvjhXrAY+FloLQL2nkPhv/H7nDR9KYrPUMjce+Tw/huWBnR85OIlZ6NEFh8If6QArVFgVyq40TYLD+HVZq53qmizbai+D3D62DwvbE4vmmwbJiwqhtqTyuGsFvh6KIZ9v5/bWdh9az2KC+aUrik1LOu3ODY/18lhMtfno/2FuHcDxUkT7l3ax5Ug75D9KfKTQa5PBw0cc6AA1Jv1ZH22HTkc7QUOyjDT79Eac0XZosCeVhh+MVsw+RqUolKj9mcsunD0Tf3q4BR0B2ebjBkXdMLd7Sj9lyLMxUzFvX7HEdPBvJcu0Cw4FdLINNAbqQ3PHVjX5Qb+xx+S2vj3MLvcPohYOf4AcYunY1eFcWF6/RnqO+2F01nDcBrG1dj/x8qoIQLBgbNQ0AL6cap/ku+oRhWSQyhXwJ3C0dVvVpnga2hAAUoQAEKUIAC6QLWBfIoP7zrcxx9I2MRVEef03x4c1TmPl9vg2kLA+HTrJxOr7SRQG6sHLk3ZjoKfXEV3/bYJQfyK5redKkmcvniy176vG79HnpjJ1918wjWfBGCpdvO4v7/iqPh+DXY6lsbtnL5v2Nk1HL01HTkXFncDT0PdlSGWloUyOMwSfRib3bsh9DQcfCoVVQzpFMZon9txB5EdNcc/OpSdO59GF2kAAoTw+mPT0PtTsfgc2QvAqQELv9/LzrsOIYQMZ3zjlhFrl5ICcy/sQ69dL/smjxnSj2O9dmBuE9ra3iSxY2HOphcaA5ufdMtk5ssYtRDBnPAMIBnGsjlXrgD8NZ9T3EOOa9VFMhRgcwCuRKWHbE0TqyLobksKZ/vu3BqPQh+w7uKXvM4hE2bho13WmHFMXHzMFpaS+MAilfvgqET+qJbqQdYM2c8lsYWh69mZFJaIzSB/1R/7Q3SHG0eD0YBClCAAhSgAAVeOgHrArkcRH/DaCM9l5n1pkJ1AsuGjEXogXik2laAe3AEwno4i5BqJJAbLUfZTgnhl3IkkKd/WbyLDYM+wphoJ0yWhmceldp5CPby8HqdV7MZOBnmAVuLArnocb67C9MGzMD6Mw9ET3xjDFsUhsAWylDun+zF8Gy9g7+P4LhF6GJifrs8AuC7InBtUxPF5So9wtn9v+DvXltwJri+0XAsb2bynOl6SiMIlJccoK9KQ8stmIaQE4HcWP0YyF+6CwornLcFzAdy5ebhbnflWpL2Mnadi1+ID1wXocLya1hdycjTEDTB+/yQKMROqJx2qKS1PVBjCjQjnPK2FWtHAQpQgAIUoAAF/g0B6wK53Ju5F+6bT2Cuq341Mw3k2s3FomNnwwejU/AT+MtzE40EcmO9pi+gh1yvBfLwyyillzopk7mTcq/zyQxznFMjR6PqoAsY+pOYt648W0h5qW5h7+Te8Nn5Htb/1hP7XHrg1NAjiPZ1zHiuja3Uru1dahsIvxZi0rnmdX/vF5h9pKk45kI0FMPeq4ovvLMMF3ozec6OYpyox49eeaGH3OA9xUD+b1wDWEY+EjAXyOWwPDEJAdrRN1oX+dpxWH/qiOY6bC9NMWorjVoKgv3iS2IROO2wHOW6crC7bk+4Evg3NrZ08bd8dGLYVApQgAIUoAAF8q2AdYFcO4fcZSp2rhsMadqwKlFMLBRznG+FtkbzJaUw66RY+buUWOn83Ffo1yUUd+UhihWQmCg206y+nXrwE9TtcUGzWNAu9C83GvG+0fhBml8uz7M+owz3dtHOVVfh+JR26LDWEXN05pBnZci63irrT8/il2slUEm7crvqMpb39cb0Uy2V+Y1Q5srHtlqKvWIouDxXXsxBv3nzKZycxNxIjcPe8r7YsPljNBVzz1U3oxDYezjWPdM8WkjceEhUiZXOtau8r/BEzc+dRHieC8hzt1viyz3z0amM8kVWdfMWnjiVQykjgVwJ+mJkguEXZnnbtai78jTCq3+pzCHvuRLfBX8g6izOQaIKdkV/hZ8079/IOTsnzUPfXAvzf1qBXqIeqrjpaNlxPcrOVhZdumL2nFo2ZH37wIoYdmMkDu0NEM8/ltYb+A2huou6pa1LMAv7V/SCU0HtDZs/uahbvr08seE5LWA6kCvrPswrHmzkMYqaIF1hAiI3jBDXe3Ed/rQDOq3UruWhPIZx/J2u2LB1FtqUAf7YOAwtx56Dt2YqjdQO5fp1DD10fpbT7ePxKEABClCAAhSgwMsmYF0gl75cnQ5D117z8Ouj53KbC9h1Qvi1RfCID0f7lrNwUi391Aalm/ZE06S1ONVKCuQPMLbmAHydolmZPekZKvttQdQEMV9bhLTYwNbovvKW+BdQyU8Z6mhYDmzKofvy7Vjkpl1lPWtzyPVXWY+AZ4tgHFEpbZDbUbw+RiwLF0PKlcWI0st/DfbSavJi9fDSPitxNkR5TnmG+kmtdvIS89Fno7MUsu9EwMM1CL9qVzzXXSVefQYLvXwQevwRXrN/Qxz8L3HwPlh3aiZaZQjkajGMvBpG/RmQ9mzg9Deb5su0WEQtXqymniKvDL8FN+VzIOpT8xPERI1CBVPnTKceioQNnLotQeSCdvIq6zB7Ti0L5KmxM/B+r1VKnSqOxqFDHfCtwSrraavAS+ejgB2c3Zri9V2/oQ0XdUs/1fwXBbIhYCqQp4rRPjV9ftYL0LrFmL8Oiy01T4z4VnvRKaCzFod8oBtY+FFrhBYNMhL4s9Eg7koBClCAAhSgAAVecgGrA7m23dJzpxPV9ij9tnaxMvEbzTOwUbQ0ymhXLNeBkvcRC/HalTTxTPEMqNIzxe/j8TPDZ2pbo6+7yrq0v/bY4p8FDdqRdvj0bYzXWecYdiWMPEtc+3vjz2uXnr19P0WEUKP7WtNGnXbZZKyP0XMmdtHWw2gbMzmn1tYy437S89CTUTALz7XPubJ5JApQwLRA5tdh5dpu/DpHWQpQgAIUoAAFKECBjALZDuREpQAFKEABClCAAhSgAAUoQAEKUCDrAgzkWTfjHhSgAAUoQAEKUIACFKAABShAgWwLMJBnm5AHoAAFKEABClCAAhSgAAUoQAEKZF2AgTzrZtyDAhSgAAUoQAEKUIACFKAABSiQbQEG8mwT8gAUoAAFKEABClCAAhSgAAUoQIGsCzCQZ92Me1CAAhSgAAUoQAEKUIACFKAABbItwECebUIegAIUoAAFKEABClCAAhSgAAUokHUBBvKsm3EPClCAAhSgAAUoQAEKUIACFKBAtgUYyLNNyANQgAIUoAAFKEABClCAAhSgAAWyLsBAnnUz7kEBClCAAhSgAAUoQAEKUIACFMi2AAN5tgl5AApQgAIUoAAFKEABClCAAhSgQNYFGMizbsY9KEABClCAAhSgAAUoQAEKUIAC2RZgIM82IQ9AAQpQgAIUoAAFKEABClCAAhTIusB/7icm/pP13bgHBShAAQpQgAIUoAAFKEABClCAAtkRYA95dvS4LwUoQAEKUIACFKAABShAAQpQwEoBBnIr4bgbBShAAQpQgAIUoAAFKEABClAgOwIM5NnR474UoAAFKEABClCAAhSgAAUoQAErBRjIrYTjbhSgAAUoQAEKUIACFKAABShAgewIMJBnR4/7UoACFKAABShAAQpQgAIUoAAFrBRgILcSjrtRgAIUoAAFKEABClCAAhSgAAWyI8BAnh097ksBClCAAhSgAAUoQAEKUIACFLBSgIHcSjjuRgEKUIACFKAABShAAQpQgAIUyI4AA3l29LgvBShAAQpQgAIUoAAFKEABClDASgEGcivhuBsFKEABClCAAhSgAAUoQAEKUCA7Agzk2dHjvhSgAAUoQAEKUIACFKAABShAASsFGMithONuFKAABShAAQpQgAIUoAAFKECB7AgwkGdHj/tSgAIUoAAFKEABClCAAhSgAAWsFGAgtxKOu1GAAhSgAAUoQAEKUIACFKAABbIjwECeHb28uO+NWHwdCzTr9T7K58X6sU4UoAAFKEABClCAAhSgAAUoIAswkCccwjz/IEScuI0nzwujSJmK6Og7F7O9nDJ/i+wOQM1JQOiZefDQ3frKUnTwjoBzSBwWd8j8MJZvcRULO/ZAuPNMnF/oZny3LQPxli+w9I8IeFt+D82CqQAAIABJREFUYG5JAQq84gKqS98jaMrn2JHaE9t2jkIVub2aa8oNI40vP1DZTnM9izfYpMLgjdj9cWXlp+q72B/qjwkbziBBXEfLNeyHmQv80LKUZqfMfv+K27N5FKAABShAAQpQwJRAHgrkF/FZUzdcHheP9V7/1gm7iJDmHlj8tA3GBfwXNUslIiE+HjGPXbEyoEXmlTAVfi/MRqO2y1FlcU63RTFaUnk+7q31ZCDP/AxxCwpQIHk/pnQdh1UX/4Kt3f+gKj0EMT9PRE1ZJhmnd0XiXIou0zMcDZ+KTbbjceKHkSibfBY7d59H2iaJ+/F5SAzeDjyEvSMcpTSOqFH10CfaGQNnz0D/N48jxC8EPxQegahD40Q5mf2ep4gCFKAABShAAQrkX4FsBnIVEm8/hAoFYP/W23CwsQwyNeVPnDt6Fqjhgopp++3HiEqD8DjUSIhVPcTti3E4jxpoUL0sStoZKUfe5hLii1RD/aolYCe+BCb/eR1nzyTAsUlDOBdVKpcQGYjRW50xMWwA6l61MDibKj8LgVyVeAVxcQl4s0Y1OL0j1U/7kgwv4/gFoGb9qnjHWOPUKbh77xmKvXMPc40E8rRj138PVX8axR5yy96G3IoC+UPgykaE/OiE3v1c8XheC7Te7a4TyI0QxIehbfMleHvBz+LmqIP+Bgnb0Of9cbjedxt+nFobttJv74jtG86D/ewT2NZPs338QnzgugJVVp5GeO0vzf/ezcI/HPnjbLGVFKAABShAAQrkMwGrA3nq6blw67oM51JtUcweeOzggyjR64KZhl/4lF7dnR0icWxqdZxf1hldPruAf0oVxev4G8kO/RHjfwHNfWP06MuPVLZPODgNXn3X4lqhknAQfTQJT9+A24JorPYqKbYXXw4dxZfDBnWReP4yChQR/T0Jf8HO1Qstb+9BdEphvP53EpJSy8N/Xwwm1QB+9HdBjy3OmH70e4yE9EVyDlIGbMWB4Ho6ITm9KgmRAXAbvh0PihRDETzFoydOGBu5D+PEsWBRIE9GlH97+GxJgn3xwij47CmSm3yO2xFikHvCPnzsMRqbHxRBcVH3J4+eoLz/DhwIqA7Ivex74DqyGvau+AGPnrcWw9A/wUW9QK7GqVAPeCz8DQWLifo9f4rnBQvi0aOGHLKezz7IbC4FLBE4n+H6nHGvX6c0gsee9th1MggNdX+tOoFpH3XH/qYR+H5Oc2hHoyvXwb8w6+ImDErL72cwrVEn7HbfgTiXBeZ//2ltS6rObShAAQpQgAIUoMArKWBdIFeL3uxagxDdeA4OrOwGR6mDQ61Gqo0NrpoN5JDD+V7PaMSOr6SAavazlcP1GEB3mLemnFj3dfhlfnO51/vUzHZwX1EaIec2wsdB2eeE92rELfpADtSx4+uh6/rymHh0A8Y4iZ+oxTbOY3BlmBLwIfrzk1MKwkHuMdcG2stAaRe08x4M/4/d4aLpTYd6H4ZWH4l7nxzGd8PKiN6gRKz0bITA4gvxhxSoLQrkUh0nwmb5OazqpPQEpYo224p/7hleB4PvjcXxTYNlw4RV3VB7WjGE3QpHF82w9/9rOwurZ7VHedGUwiUNesjlXqhFcJiurZ8afyzthveCizOQv5IfVzaKAtkTyDSQy9e8Ybgy8gB+Gqu7LKQyvWfBbUe49vwvhvfqj1a1iso95PIxwyoZXHPSp9fEVJlv9vcmp99kr6ncmwIUoAAFKEABCrwUAtYF8ig/vOtzHH0jYxFUR7+dGb/w6faQO2KNdz1Mut4G0xYGwqdZOZ1eaSOB3Fg5yWvQufp0FPriKr7tsUsO5Fc0velSTTJ+OdTvoTd2VlQ3j2DNFyFYuu0s7v+vOBqOX4OtvmI4plz+7xgZtRw9NT0/VxZ3Q8+DHZUhnxYF8jhMes8Lmx37ITR0HDw0X2IBZYj+tRF7ENFdc/CrS9G592F0iT6IQBgbTq8/hzxJBPiqU17H/Bvr0Es76pOLur0UHzxWkgK5IZBZII//oj0ahzliaZxYFFJvtPpxLBn8FU5IlX54Hj8c/RO1AqPFHPLyDOS5cSJZJgUoQAEKUIACr4yAdYFcDn2/YbQUHKWh2zov84Fc9FCLYY/LhoxF6IF4pNpWgHtwBMJ6OIueFiOB3Gg5ynZKCL+UI4E8rfpiJeANgz7CmGgnTP51N/yOSu08BHt5eL3Oq9kMnAzzgK1FgVz0iN/dhWkDZmD9mQeiJ74xhi0KQ2CLg3Ldf7IXQ/H1Dv4+guMWoYvR+e36gdxozxQD+Svz4WRDKJDTAuYDuXLzcLf7FpwJrm+maDUOjGmMbtHtsfXsLDTc2BflxkL/xiCUa1VEvZW43Hy12d9fX9omp5vJ41GAAhSgAAUoQIGXRsC6QH5kMmp474X75hOY65rFQK7dXCxUdjZ8MDoFP4G/FH7LGgnkcjkH4K3bE/8Cesj1WnD6M9R3i1J6qZOk8k9jmFw/I+dU7kE/iYEGNyZSI0ej6qALGPqTmLeuPFtIealuYe/k3vDZ+R7W/9YT+1x64NTQI4j2lVYqNngZXandWA859OduMpC/NB8+VpQC/7aAuUCetLYHakxMQsCRvQioYL5m8nFWVMOKtOk1m9BC9++B5jqN4NP4vvEysR6Gmd8PMFg47t9GYXkUoAAFKEABClAgFwWsC+TaOeQuU7Fz3WBUE/ObVYkPgZIlcCu0NZovKYVZJ8UCP6XESufnvkK/LqG421/q0a6AxESxmWYl8dSDn6BujwuawLsL/cuNRrxvNH6Q5pfL86zPKMO9XbRz1VU4PqUdOqx1xBydOeRZGbKut8r607P45VoJVNKu3K66jOV9vTH9VEvxiKAlcJeGlYu58rGtlmKveKC4PFdezEG/efMpnJzEonIah73lfbFh88doKuaeq25GIbD3cKx7pnm0kLjxkKiyQ0ntKu8rPFHzcycRyOcC0qOCjrTEl3vmo1MZZcy56uYtPHEqh1IWBHLIqyHPg2rQN9gjFmJyeKYJ/N8azufMxXcYi6YABfKMgOlAfgPz2rTEvOLBuLC5N4rp1vhGLPYlVkQTF+VJGqqbGzDkw8mIbTwfJ8XjF4vhBhZ+1Bqhqv7Y8UMgGhQUzyQf3x29dorrkDz0PbPf5xkeVoQCFKAABShAAQr86wLWBXJRzdTTYejaax5+ffRcrnQBu04Iv7YIHvHhaN9yFk6qpZ/aoHTTnmiatBanWkmB/AHG1hyAr1M0K7MnPUNlvy2ImiA9PkeN2MDW6L7ylvgXUMkvCrETKmcoBzbl0H35dixy066ynrU55PqrrEfAs0UwjqiUNsjtKF4fI5aFiyHl0vF12/ka7KXV5B+LUec+K3E2RHlOuaGD3GonLzEffTY6SyH7TgQ8XIPwK95AqUJ/668Srz6DhV4+CD3+CK/ZvyEO/pc4eB+sOzUTrSwJ5KKshC0j0WrsHtyX0GzehGubd3F57xsI+kN8Ef7X304skAIUyMsCpgJ5qhjtU9PnZ3jvOIaQBgYt+GkqXHzWK9cY5SqJ4g0+xvpv/dBA+/xGzRMjvr2p2cimKgau24AQzXVU+0QJk7/Py2isGwUoQAEKUIACFHiBAlYHcm2dVIl3kKi2R+m3lRV35Zf83GyRXIuWRhntiuU6jZD3UQF2JU08UzxDg6Vnit/H42eip1nvGd7WyOiusi5XVnNs8c+CBu1IO3z6NsbrrHMMuxL/3959B0RxLVwAP4mAIiIiViyo0Rh7wRbsXRC7McZYYu+K5Rm7sUdjAY1YYi+JNcaGBbuiRsWCil1RY4fQlI27mrw7M4sssLRFZHc5+/3x5bk7M/f+7jKzZ24ZPc8Sj35f//Papeeyv4gQNwX0bpuMOr5/Trnu882TsR0/QgEKUCBZAjHnuEwJnNdjzqUJnac/5Hk8WYXmhyhAAQpQgAIUoIDRC6Q6kBt9DVlAClCAAhSgAAUoQAEKUIACFKCAEQowkBtho7BIFKAABShAAQpQgAIUoAAFKGD+Agzk5t/GrCEFKEABClCAAhSgAAUoQAEKGKEAA7kRNgqLRAEKUIACFKAABShAAQpQgALmL8BAbv5tzBpSgAIUoAAFKEABClCAAhSggBEKMJAbYaOwSBSgAAUoQAEKUIACFKAABShg/gIM5ObfxqwhBShAAQpQgAIUoAAFKEABChihAAO5ETYKi0QBClCAAhSgAAUoQAEKUIAC5i/AQG7+bcwaUoACFKAABShAAQpQgAIUoIARCjCQG2GjsEgUoAAFKEABClCAAhSgAAUoYP4CDOTm38asIQUoQAEKUIACFKAABShAAQoYoQADuRE2CotEAQpQgAIUoAAFKEABClCAAuYvwEBu/m3MGlKAAhSgAAUoQAEKUIACFKCAEQp88iIk5D8jLBeLRAEKUIACFKAABShAAQpQgAIUMGsB9pCbdfOychSgAAUoQAEKUIACFKAABShgrAIM5MbaMiwXBShAAQpQgAIUoAAFKEABCpi1AAO5WTcvK0cBClCAAhSgAAUoQAEKUIACxirAQG6sLcNyUYACFKAABShAAQpQgAIUoIBZCzCQm3XzsnIUoAAFKEABClCAAhSgAAUoYKwCDOTG2jIsFwUoQAEKUIACFKAABShAAQqYtQADuVk3LytHAQpQgAIUoAAFKEABClCAAsYqwEBurC3DclGAAhSgAAUoQAEKUIACFKCAWQswkJt187JyFKAABShAAQpQgAIUoAAFKGCsAgzkxtoyLBcFKEABClCAAhSgAAUoQAEKmLUAA7lZNy8rRwEKUIACFKAABShAAQpQgALGKsBAbqwtw3JRgAIUoAAFKEABClCAAhSggFkLMJCbdfOychSgAAUoQAEKUIACFKAABShgrAIM5MbaMiwXBShAAQpQgAIUoAAFKEABCpi1AAO5CTXvg5MbcTKsDJq7l0MOPeUOC/DBnqt2qNWpJpw+RL0e+GGDHz7c/j5EmbgPClCAAhSgAAUoQAEKUIACZiKQwQP5bXi16IgDjTdiz5ASsZp091BnfH+vB7bvGojPP1Rj7xmBMmOOJri3BjP9sbB5wgfb2rUIBt7uh8OnR6OMno9dm1YHDbyLY9GTlWifZJmVui8rNg3XvFz1f3pbD+QdjGTuL8kD8gMUoEA6Cqhu7MCUcT9hp/qbWOe1Wwvaos3yB3FK5oQ+W3/H0OiTX/AJzPWYgpXn/sLrTA74vMkQeP/UAcUttZupbmLd0EH48ZiB72MvBpcfj8OxShGnDOlox0NTgAIUoAAFKECBtBIwokB+HVO/dMXNkUFY3y6tqht3v8oxdzXfi7PjS8V6M6nwa1AJ5R7nR8qmT30wfe5VlB8xCi3yK/9UuGZH1E6kazupMqUskCt1/7nEfDxf24aB3KAG5UYUMAGB8EMY13YkVl1/BSvrf6HK0zvWTT1lZE3E+4oE+3pixsG8mHRmBwYUkP75AbyaNMDP2cdgk6cr8rwOhGevfvg17xQEbv1WjNZR3p8V0hCzfpmEalHbMLrnPFyt+TPOrXRPxvviELfmoGa9X1FI53wIZEfZ5m6oYGcCxiwiBShAAQpQgAIUMFAglYFchZC//oYKmWCbNx/sontLkiiMOuIZrp65ApQuh8/eb3cI/Yv3ROQsPYFc9Tf+uu6PayiNKqUKwMFazwHkz9xAkM0XcC6ZE9bQIPzZfVwJCIZjjaooll0pXPDeCRj0ezGM9u6OipYpCeSirjcv4vzLXChTqhAK6hYiGeVThTxGmGUe5NeWA4E/olojH7Q4eBwTSuvWRzF9EHgBUU5VUa5YjOv7QH58AHJe+RMBKIca5WLe1x/IYxxyly+Lovmyw0o+nP5Argq5BX//YOR2roSSRweyh9zAPyxuRgGjEbi1ETOPFMa3XV0QOVeMotnjluAom2AxKuZLjyB03b0fEypoT+iPvdGo6ga47PXDlApKrdQbu6DQcEtl9Ix8LtuMOlsvYI6L9v29g1Cy5x0MOrUPI6KSeL+I2EbexwX0vb4ZPRnAjearw4JQgAIUoAAFKJD2AgYHcvXlOXBtuxhX1VbIYQtE2nWDrxhKDWnYdKwffLFD77XFrdB6aiD+y5UdmfEG4Xbf4bBHIGoPjjNYcYDSax18fCLadVmLu1kcYIcIBEdlg6vnQaxu5yB0tqOz40jcr1IRIdduIpMNEB78CtYu7VD3Lx8cjMiKzG/CEKZ2gsf+wxgjgu8Rj3LouK2YtvcnmYFc9DANadAHW8NsYW+TCW9fR+DL+bexuqUU8EfAtd8feGmTAzaIQujrwhi+dz9GimNJAXqIpif6P1+Ln29o4KStk9ysegP5XvRy6o99Ul0zA2/CQxCVzQ3ep7zRWvxIlQP5qfwonC0SEf9mxjv5/SZYcGwZ2ucC4gVyTQC82nXDrMsa2IsdvgkPg0VTL5xZJvVaxQ3kGlya5Q53rzuwyCHq8i4K7ywsEBpalUPW0/7vkEegwEcRkM8RCQRylf9UNGp7BF+u24I5daTza/RLuVnq33knTv5QXr6hFzSvGapvqacE+5194NjvBvrr3lzUbMbXTqNguVDcYLVM4n1pRNTlqXB2vY8xyZpu81GoeBAKUIACFKAABSjwUQQMC+Qa8QOtbE8crD4bx1Z0gKPUkaLRQG1piduJBnLIw6T3tTkIv1HFlQpqt7OSw/UwQPoBFz1kXXscP7d1+HN+bbnX+9K0pnBbmgczr25ENztlmwvtV8N/QT3xPsR+K6PteieMPvMrhhUW/6IRnyk2DLf6Rg9LVyE8wgJ2ck91MgO5NJd6pCWW3VqKVnKnkairxlL8MN2PPqUG4Pn/TmJL3/zif4dgRZtqmGDvhSdiqKYSoMug76L56F8lF6wsbeGQaA+5btnEYYKXw638NOTUmsj7u9gWv56dh4ZSZVUn4OHSBTuqL8XNJU0Ve5055PKP5nXlsPnUT6grPq8+NRZV2p/BN0fFzYnP4wTyIC/Uc1kAu0nRddHgyaIOqDTdnoH8o/wp8iAUSHuBBAN5oBgy3vRnPCpQHZ2+7oVve9ZDuehzlXQq0t54jCzeGn2+/hfbZgXC/ffdGCP1oss96HNhM/0sdnTXBnnVr2j32Vg8km5Cdj+S+PvSdCF5vYoTsJVv1ALWjvUw1HMaunyhbzhU2jvxCBSgAAUoQAEKUOBjCRgWyH2Homi38+iiM4QxusDxf/Dphl5HrGlfGWPuN8RErwnoVquQHKKVl55Aru844WvQqtQkZJl3G5s67pYD+S2dnuf4w7YTDt3JDuTnJ6J8y+1w7D4NP33vFvNDVS7fPQzwXYJvtMMsby3sgG+Ot5B7jq4ntghbgkPWpaAtht+HAA4Fj6G3zk0KfXPIL/1QE019mmH/2QmwjBXIn4h5nS5Y9NlCHB5XWWu8D0OrTYW1HPBjB/KwVR1QclxmzH+wDp2ipx5wUbeP9XfI41DgowgkGMjPLUGPpZfkMvx99RBOPy2NScfEHPIi0r+IG6ELO6LLiqzo2C0PDi7/AzdREf0XL8MEuSdde6PU+xGyyoH6HV6/fo23Kg2cp18WIT2rciM1wffFyVNaX+PSJ6jiLBbRCLqAPStnYI6vNQZrRzZ9FBwehAIUoAAFKEABCqSDgGGBXA5qYn5gvPnP2mHTiQxZh+oCFvcejlnHgqC2KgK36Svh3bGY6F3WE8j1Hkf5nBLCb3ycQC5+cD7ZOQXfTdyIyy+APF/2xM9LR6Pusdi9Ou/br9ZkXPR2x84UB/IQbO3TDB57X8HGPiss3ogh+pEaNNbtIY+zyrruDYhSsQK5ErgXv8ghD7OPeRVA9407xZD62IFc7/xzBvJ0+JPkISmQdgKJDVl/f1SNGHlTuQsOuG5E4OwagHxD8goGBGxHPzE1RtwxxPnZ7fHVQsDjxB4M1Yb28PvncOT0Q7E6ZXXU/+I4upafAvsld+WpPVJoT/z9uHXWDpP/Lv6Cm2mnwz1TgAIUoAAFKECBjy9gWCAXQ59Lt98HN51FfKKLnngPuc5K5poIXFnWCy2nv4bHOfGjroCeQC4f5xja6/bEf9AecqUXeVa++QgSK40ri51JrweY27Au5jr9LA89132pHvpizNe9saPyCtz/9pAo32X0lcsfv/ESXRVdXw+5PBfzJSa+/+Eb20Tf/uQh+qc74cSJkdDECuThYvh8BUxzFOVc1FDPN0tfDzkwQ3dRJQbyj/8XySNSIA0FkhXItVN5FpdSzn/yNjsby6NwKr4vm57ztU651eLcUcQjSju1KH6FknofYsnKidVaYl9LBvI0/Dpw1xSgAAUoQAEKGIGAYYE8eg55ufHYta4XpGl+qpC/xRjrnHg0qwFq/5wLMy6K1XJziV6Rq8vRtfUsPJV7OoogRBqKrV2hXH38f6jYMVAbaHfju0KDEDT4IA5I88vF3HIrywCMqdQOW8tFz1UXPTPjmqL5WkfM1plDnpIh67FXWRejI8WDv11mvoT7z9vg1VYMoZduFKzsg7aTA1B94WkxtNsO6gixkrx1Tu0q8iFY4u6MWU4i6HpCnkvvV38R9on9yHPpRe/Rw4dRKFzYQZlDntBzw/UFcjkAh2KyHMglu/lo1cQbBXV7yE9Vw/g/lqNv2ex4d2MxOrpH25bSLurm9H7YuVy32Z/Aw3cLRmnnYqojHiH4v0JwtIs7h1zMA609F6qev8FnXDXYvX2EfWO/RbdNyX2uuRF8m1kEClAgUQF9gfzBSV+EFK+OsvITGMT5a/1ANBx1Jub8J6+Yfgw15x3Ayo7SWhlixND6Hqg56qWyinqRcNwRj00rUFaZgqS6sRydWk3D3VYbRU96DfH5pN4Xt0D9T+GfIuLJDtK14f05+BoarREjqhon8/EdbHsKUIACFKAABShgggKGBXJRUfVlb7TtNBfnQt/J1c5k3RLL7i6Ae9AyNKs7Axc10r9aiuHd3+DLsLW4VF8K5C8xvEx3bIjQrswe9hYlhm6D7/fSyr0a+E1ogK9XPBL/BRQf6gu/70vEOw4sC+HrJX9ggWv0Kuspm0Mee5V1qYwh8PEQCxVtVo6rVMYeVYetwJbhleUfmI+Xt0P1if6ArQOy/BN7ZfMYh09hK602HymGtHdbgSsz66Q8kGtOY3SNzlj1wgq2Vm9hUUY8g/fZDlh+ryx0J6/a/rw26j8/g4MvpNJmgn2VEdi4bYB4hJv4n4GeqOvqiRuaBtqF2GLq9q91NlipX4lpAtUx+fgm9C4Q/7FnwWI/9Yf7QN61ZW64NCyKm/uyYQpXPjbBP20WmQLxBfQF8iNjqqLLmpcJnv+kc+SxcV3QbW0gVJ9aw/pflfj/hdBi1hrtdKPb8GrshhnXos+glijsPh2/iUUhi8tZOqn3gd1Dy6LfllcxZRDnn0Y/bMKq7tJ0Jr4oQAEKUIACFKCA+QoYHMijSaTna4dobJHn/fOtxTuih+Ppc5FMs+s8d1vHUN5GJVbSdUjgmeLxvKVnab9A5FtrsdCZ9Izx1LzirGT+viLSQmqiUAk9U11bp3cWceoqbx9dvpTUKaE6KM8hVydgp+se67nmiZHIi8SJuukte5wN5Xq+RY5UO6emjbgtBSjwUQWiz28Jnf/k05xyXn8nzsD6zsNJndeTej+p/X9UDx6MAhSgAAUoQAEKfCSBVAfyj1ROHoYCFKAABShAAQpQgAIUoAAFKGBWAgzkZtWcrAwFKEABClCAAhSgAAUoQAEKmIoAA7mptBTLSQEKUIACFKAABShAAQpQgAJmJcBAblbNycpQgAIUoAAFKEABClCAAhSggKkIMJCbSkuxnBSgAAUoQAEKUIACFKAABShgVgIM5GbVnKwMBShAAQpQgAIUoAAFKEABCpiKAAO5qbQUy0kBClCAAhSgAAUoQAEKUIACZiXAQG5WzcnKUIACFKAABShAAQpQgAIUoICpCDCQm0pLsZwUoAAFKEABClCAAhSgAAUoYFYCDORm1ZysDAUoQAEKUIACFKAABShAAQqYigADuam0FMtJAQpQgAIUoAAFKEABClCAAmYlwEBuVs3JylCAAhSgAAUoQAEKUIACFKCAqQgwkJtKS7GcFKAABShAAQpQgAIUoAAFKGBWAp+8CAn5z6xqxMpQgAIUoAAFKEABClCAAhSgAAVMQIA95CbQSCwiBShAAQpQgAIUoAAFKEABCpifAAO5+bUpa0QBClCAAhSgAAUoQAEKUIACJiDAQG4CjcQiUoACFKAABShAAQpQgAIUoID5CTCQm1+bskYUoAAFKEABClCAAhSgAAUoYAICDOQm0EgsIgUoQAEKUIACFKAABShAAQqYnwADufm1KWtEAQpQgAIUoAAFKEABClCAAiYgwEBuAo3EIlKAAhSgAAUoQAEKUIACFKCA+QkwkJtfm7JGFKAABShAAQpQgAIUoAAFKGACAgzkJtBILCIFKEABClCAAhSgAAUoQAEKmJ8AA7n5tSlrRAEKUIACFKAABShAAQpQgAImIMBAbgKNxCJSgAIUoAAFKKBfIFQVgu1XfsXxuwcQ+OwyXr56hnf/vTMqrkyfZELubPlQOl8F1PmsCdqU6wR7awejKiMLQwEKUIAC6SPAQJ4+7jwqBShAAQpQgAKpFJh9eDwW+802ugCeVLWkgN6/5iiMajAtqY/yfQpQgAIUMHMBBnIzb2BWjwIUoAAFKGBuArdfBsLjj+9w5am/SVetXH5neLZejRK5S5t0PVh4ClCAAhQwXICB3HA7bkkBClCAAhSgwEcWkML4t+ub4Vnk44985LQ5XD7bAtjQeR9Dedrwcq8UoAAFjF7A9AJ5+BXs2nMNOWp2RG0no/dlASlAAQpQIBUCD05uxMmwMmjuXg45UrGfNNv0gR82+AG1OtWEoZcko6+jHrywAB/suWqXqnob2ibNf6lm8j3jcesu9ZTv6X3WUBJuRwEKUIACJixgEoF8d58S6HmsJTbenIv6gT+iWqMl+HxhENa3M2F5Fp0CFKAABZIU2Nq1CAbe7ofDp0ejTJIruOqoAAAgAElEQVSfTocPbOuBvIOBRU9Won28w2sQfv8cjpx+iNfyezZwqtUItQpbx/qk0ddRLu1e9HLqj2Nt1uK2Zx1cm1YHDbyLJ1DvtGsHac74zydnpt0B0nHPg2qN4ZzydPTnoSlAAQqkl4BJBPIH2yZg8vVamD2+KXIxkKfXd4XHpQAFKPDRBYw+rCYQyFX+v6DnwNk49DQzPneuhRI5Bd3fd3Hc/x4sKvTG0pWjUTeXwvkh6igH5FvD8HxtmzRqo4fYOnYGAmtPx0RXh3QJ5NJq6pXn5E9gATd39GpcHwgageW3dQlqo1O91sj6OO6/J8JUYiZWVM2OA7sGYlMkkL/Cr9jcrC0cPwWe3eiFBf90Rf3Iqeh38kTyrUuvhG/Tgtgzvwk8E9hKWujtwsinXH09+ar8JAUoQAGzEEhdIFf9jb+u++MaSqNKqQJwiH3TXwCJ3oFn93HlThQ+K18G+bNbAu+3cUadyjkRs4kKIX/9jQeBFxDlVBXliuWDnfh4vBcDuVl88VgJClDgYwpI59ebOB8IlHEuiYLxT9aJnJsBdcQzXA24B5viZVE0X3ZYJVn0lJz7xc4SuZbEhNURKChdTwKC4VijKopJ1xPtSxXyGCEPAnE+ygnVyxdVrjVxXlId7os6vBZ1KCvXIcakSu2Kca5fiXupQm7B3z8YuZ0roeTRgfF6yIO39UGt4edQfux6/NKjTOxrmeomlnRpjynPv4XP4dGoKIqanDq+v56K+ucuH78dfAeWRufI6foDuex7A0E2X8C5pHTd1baPHkvJ6cXTezj/ICuqJPRdEbbJ6yFXrusqZIJt3phrenKPEbcNV55diB/2eSTw7auCab1Pwj3if6i4aWHMZ8ptxhkx3eHk5lIYeTfJL67ygS934mzVrNi8pRHmPAVGdnuNzuoJcP1tHp6iCkZ2/h1ukWPRYMf6ZO5QfEwuR0H8MdMFPyay1Q/NPNGjmhhywRcFKEABCmQYAYMDefDeEXDt9wde2uQQg/CiEPq6MIbv3Y+RYqFQ+UK9zR4umW/hYkRWZH4ThjC1E1zb2ePMrpvIZAOEB7+CdbOfcW6lu5gXqAyF25fFAXaZgTfhIYjK5gbvU95obafd3x43ZcgiA3mG+XKyohSgwAcQCN6PIe6DsPWlDezFufd16Gs4eezEsRGlAPl8+jsKuBfC9UMx52a4TMelrd9C6sCVw6XHAbzKKs7P4lz/rkB+fHqjCKboGaKd8nO/2P/xiWjXZS3uSud/RCA4KhtcPQ9idTvlGc1yWL1YBlVt7uHq++tJXvTYdAwzXSwhT2nanxm55IuHsn2LRUexvKW4eGjrl/PLzLhxKRI2md8gNEyNos1aw/5PH9zIlFVcjEIQmaUJlp5dJl9vkJiXCLKXZrnD3esOLHKIa9874WFhgdDQqjFDtwPnoGbTNSjqeVRMq3KA+uk5bF6xEVdzd8SQlhY4G2CNxg3CMKnat7g77AK2d7VLso7Q3MOKLu0wwe8f2NpnxpvQMLwtMQi7948UgX47OjsOg6/uV8VJGuJfEjMdR+J+lYoIuaZz3XVph7p/+eCgzrXZY/9hjBHX7ltzm6Ke50NxjKyweCuu62FvUWKE9ruC65j6pSt2Nd+Ls+NLJRnI1ZfnwLXtYlxVWyGHLRBp1w2+4hpumegxEv++f/dbCxy+7ZPgh8o38cfWsk8xc547Vmk/1eWrJ5hgtxntl3sgQPxbsUKucBJfFc2rKzj57K84+yqJKkVt8Pj+BRG8Y16ju/+D1hG9UGNbAgHctjJq5c0LS/H9fXDHD/febyr2V7wYbKV/tx6KX5MRyBuUcMPqb3Z9gD987oICFKAABUxFwLBArtmPPqUG4Pn/TmJL3/yipyEEK9pUwwR7LzwRAVu5c+6A8f6bMTi/uP0fvgatSk3C7fa/4PTcxnJvQey76yqER1jALrpXI3g53MpPQ07tPHH5swzkpvKdYjkpQAGjEdDAp18F9Ho+HOc394KjOPcGr+qA8hNzwPuRCKDaG5xZB+/H3jEl5RFLQfOaofocRyVghm9Am7Lj8LjnTpz8obw412vwZFEHVJpur3fucIrP/ZpD6F+2J/zc1uHP+bXlnttL05rCbWkezLy6Ed1EQFYCeTMsPrAQbaXriXz96YtL3ynBUBURgUzZo3vtQ7DE3RmTcs5Xeoq19cs17jT+GChdq8LFtaoCxt5pizV+s9BMuubEusmbhFeQF+q5LIDdpOhrX1yPcKxpXxk/5PLGzSVNgcs/or77Cqjr9sQ3X9zAllUn8KzZMtxf1BB+oyrjq+Ap8jUzqToGLWwOl9k2mHh2A/pJBsEihNcchoD22xAw3TnmxgW09Zb/RQnqF9qvhv+CenLbSsdsu94Jo8/8imHSPHaN+EyxYbjVV7FUC8t3wlIZuabBsWHV0eFMB+38/RQEcm27Hqw+G8dWdJC/d9BooLYU/5HoMRL/w6k2v3DiK6vbzsSOgT0Qeigvvjsn7asflnvMRYHAunA9AAzquA0DHP/B3bB3KOCQC3fPuuGrY+chB26cgSZPDThG7cT/jgKj5PDsidx9F6CJuPmS+d8IvH77r1xAC6sceH1HG9DLLYVv46+RPfIywjJXQKH/dmL8oq74HZ3hOXAx3LKqlO3++xSZre9gbRI95NKK62eHPTSaMwgLQgEKUIACaS9gWCD3HYqi3e5hgO8SfCP1KIjXrYUd8M1xcfda3AFHvMVelB8GtwYoF335pW/enTSsLgRwKHgMvcXnwUCe9t8AHoECFDBjARF4i/fE3f4+WPm19mR9exFafXsSrQ8exwQxeDbeIpm652b5XH8RPaTPRj8mOZFFzOIPY07i3C/v/zy67PXDlAraZtDewM0y7zY2dbTUM786djBUtlKGRsOhAI70FQE+OpjqGVEVf762UkblepO41+A/O6DkuMyY/2AdOkWPitf1kMvuhRJbL2COywPMbVgXm2pH38xQbgb81uAUDg52VG5Ka+d8xy+Tbh3t4NXEBTMcZuPRbx3eTxeQw/XRNth/dgIqCgF5H3oCue51N3776LOUhrO/QFTWPPh7QcOYm+Ep6SHX166x/soSOkbif4pFp1olMH88eruCGNLlKvr9OwulN4iF35z/gH/jPNiySAwT/1z8d4PsWLOkARZI88Ib/YmTRc+hzS+D4CYCeddPfsHgHYNxSPwGiTu8PG4Pecz/voEfeh1Dw5fiqS87pF7t7lg25EdYnc6Lefait7606K1fIXrrxfFQYRvOuuXH70kEcmke+f0JajM+J7FqFKAABSgQV8CwQC7/ADkB21zZIUZ+xbxqTcZFb3fcTnEgD8HWPs3gsfcVbKShctKww0gNGjOQ8xtLAQpQIBUCStg8aqtMB4p51cR0/wVofTuJQC6f6+9gUFoFcn371/bsRgfJxMNqKTGkfgDqD9+PSGn6lMUbeTqUplHsHnLdp3IkHsgT9yoxS8/K4rqB/NRYlG7/TBnOf0sMXa93BB3O7cHQApL8GYws1wOv5wVicWPg0g810fTeSLknP/E6Qh4q/nMJ3d7v+HO4P0Qgjx5mftMih/i+vBPTG8KgKhi9wn0Kesj1tqvy7Uv8GKkN5GL7mr4IdAG8f2qMcDFcfUwWbzRcNw2QAnh5OwQEP8c76TBZS6CS5Un8T3QmfB53SHqc+d4JB3JLEcC9UF51EX+9kXeK/HnLIdg/C37N+RAzbDfgs1VjlEolcw45A3kqTnfclAIUoICJChgWyOUfHZfR9/0Pjdi1T3Evyc4+cOz3EhMDtqOfvOqsbo8F55Cb6HeLxaYABdJdQAqBHXGpj9IrG++lb00O3YB5eSqcXX+D84rLWOaq7RL+kD3k8rXkGNob3EN+F98VGoQX4/3h01dnzrnBPeSJe4WJ4f4lxwEzrm9GT+2Ag1ijvSSbOZ8rQ7zjOsm955vRQL5uPpF7vXe1UNol8UDuqAyzz5LWPeQWmFm7MdZVWYdLYvqAtHBfrOliKekhl9t1H9zkkQK637rbSRwj8T+YJIesy5sPxurhU5H5z9F4XfVH2JzLgW/Ec+LlHvEStzDK91eIsRTK6809HHl0UxmyrjtHPEWB/CfYBXTBkvfT0dV4+fwQyjQ1LJBzyHq6nzRZAApQgAIfXcCwQB4976/+IuwTc9vk+WFiyODDh1EoXFjf41CSGLYo/3AJxWQ5kIuhbFfno1UTbxRMpIe8qHY440cX4wEpQAEKmIyABr4DK6Pzqbr4xWc+Wkrzj6Wz9cNHeF24kP7HSMYKktdFgHLHwqiGmOg1EvVxHIsmeGHTTe0iZpoA/DJgDu62nY8f9T4KK6npSv4YU6kdtpaLnmuswvlxTdF8rSNm684hj/Ucct2e2hvyCIC/JymBXB1xDXPaNIdXAUN7yJPwCvJGo9pzoer5G3zGVYPd20fYN/ZbdNukfR63dHN5oOidfT8//3fU2eonh9In63ug5ihL/CR6z+sJ4y/HWuAn7UJySY0CCFvbEaXHvUCvP/ZgirO1WCjuV3SpPRbXv46ZQ/5Hj8/Q98EAnNg3Ap+L+d9qy93oEWeqWOJD1pWe+N9qaAO56hE2DW6FIdcSm0Pu9H74fvDeCRj0ezGM9u4uhtArawMcLDceu9b1whdiUroqRJpS8BxzEj1G4n9YSS3qFr21tJDbmLwqqCyuwNOzNdZJb0ghu3kJHNncAmPuKek5v21BPI38KxWB/KjY9ia++mcCvhIrsCuLuRUU+xX7r3oKx5wzYe2m6pgmpoQXczmA3+tmw8YkhqxzUTeTObmyoBSgAAU+mIBhgVwcXn3ZG207zcW50E9hK62gKuZI5em2Aldm1tGz+moSP8o0pzG6RmesemEFW6u3sCjjhgrPdsDye2lOX/y79HMatMRPN2KGtH8wDe6IAhSggLkJiNDs1a4bZp0Pxae22cTJ+pU4WXfGukvTUD+pHnLJIvgEpvYdg423VbB2rIehdZ9i5MIsyqJuj5ehWY0ZuNtuLW57GnDuj3UtkQcSA5aF8PWSP7BABHzplXhYLQ6/sXXw1eoXsLK1wluL0mhR/hl+t1SGgsdesE3ZfeJD1sUHEvOSOOQh8j54oZHKmhsuDYvi5r5syjD1xyKwV92IuvIQfzEVq0cjDNn3ClbWFsjdoh/qimkCG19YixXMC6Pn5m2YIMJ10nWU1l0JgY9Ha/TZ/EhEbemVCfZVRmCjKIv02DTppfabjJqdVuGh9IHPBuHEic8wJUWBvBSC1nRE4zFnoJK+J//Yo61rLmy6XF3vom4I9ERdV0/c0DSQvwsOHuXQcVsxTDqzAwPEEP2Y3whKu2aybolldxegbKLHSPyPL/HHnulsK/dwt4TlHQ84b1mifaMgvm5zBFNK5sY/b/7Bv59kQebgeSi9dkoqArlYdb3wTGxrPwRlP41ElKiqhUUkDu0pAY/A2hjdbRt65BcP2FOroYl8gbe5IvjYs8SbmO9SgAIUyJACBgdyRUtZmCXyLWAtFtPR92jb5Ksqi/Kos+fR+wzZ5O+Hn6QABShAgbgC8rOfI0RisM6p/znkySRTb+yCQv+zxlKpF1gKgrFWzU7mTuJ9LPpaYi0W9ZSek52yl/wcco0t8iTrGenJ23eiXpoIPH3+FjnilVVZZX1a1jk4LW4ISDOwpLJFZY2+Pop6hogbGw7JeZa7nnLKC5+Kp3qn4XVSqbeVAe0Q52kp2uLraxtDjxGqCkHlOfmTWNgtifZ1qIn69tkTeOxZ8r4b8T9VEGWLlkPuTHEfeyZ64fM1RAExqvC8tFhcEi9p/viFkU9hb63cjOKLAhSgAAUyhkAqA3nGQGItKUABCmRMgSfw2xWEXJW+QOGCtlDfP4qpXfthRwkvnBOP68qRMVESr7X8SLKROF+yNzx/6oO6JaUbDNIN55t4+a4ivnAiWmoEZh8ej59PihXUzfA1qNYYjGogFqDjiwIUoAAFMpQAA3mGam5WlgIUoEBKBMLhO7I9+m+5DfHgC2ncMYrVHYXFq8Q84ejHfqVkdxnls8EXsWTsKMw/dA9hKmXItqVtCfRa74sfqmYUhLSrZ/NfquHKU/+0O0A67Llcfmfs6X02HY7MQ1KAAhSgQHoLMJCndwvw+BSgAAUoQAEKJFvg9stAfLu+GZ5FPk72Nsb8QWll9Q2d96FE7tLGXEyWjQIUoAAF0kiAgTyNYLlbClCAAhSgAAXSRkAK5R5/fGfyPeVSz7hn69UM42nzNeFeKUABCpiEAAO5STQTC0kBClCAAhSgQFwBaU75Yr/ZqVvoLR1YpQXc+tccxTnj6WDPQ1KAAhQwNgEGcmNrEZaHAhSgAAUoQIFkC0irr2+/8iuO3z2AwGeX8fLVM6ML6FIAz50tH0rnq4A6nzVBm3KduJp6sluYH6QABShg3gIM5ObdvqwdBShAAQpQgAIUoAAFKEABChipAAO5kTYMi0UBClCAAhSgAAUoQAEKUIAC5i3AQG7e7cvaUYACFKAABShAAQpQgAIUoICRCjCQG2nDsFgUoAAFKEABClCAAhSgAAUoYN4CDOTm3b6sHQUoQAEKUIACFKAABShAAQoYqQADuZE2DItFAQpQgAIUoAAFKEABClCAAuYtwEBu3u3L2lGAAhSgAAUoQAEKUIACFKCAkQowkBtpw7BYFKAABShAAQpQgAIUoAAFKGDeAp+8CAn5z7yryNpRgAIUoAAFKEABClCAAhSgAAWMT4A95MbXJiwRBShAAQpQgAIUoAAFKEABCmQAAQbyDNDIrCIFKEABClCAAhSgAAUoQAEKGJ8AA7nxtQlLRAEKUIACFKAABShAAQpQgAIZQICBPAM0MqtIAQpQgAIUoAAFKEABClCAAsYnwEBufG3CElGAAhSgAAUoQAEKUIACFKBABhBgIM8AjcwqUoACFKAABShAAQpQgAIUoIDxCTCQG1+bsEQUoAAFKEABClCAAhSgAAUokAEEGMgzQCOzihSgAAUoQAEKUIACFKAABShgfAIM5MbXJiwRBShAAQpQgAIUoAAFKEABCmQAAQbyDNDIrCIFKEABClCAAhSgAAUoQAEKGJ8AA7nxtQlLRAEKUIACFKAABShAAQpQgAIZQICBPAM0MqtIAQpQgAIUoAAFKEABClCAAsYnwEBufG3CElGAAhSgAAUoQAEKUIACFKBABhBgIM8AjcwqUoACFKAABShAAQpQgAIUoIDxCZhOIH/ghw1+QK1ONeFkfI4sEQUoQAGzFwgL8MGeq3Y8D5t9S7OCFKAABShAAQp8LAHTCeTbeiDvYGDRk5Vo/7F0eBwKUIACJi5wa0FbtFn+Cm2X7MFUF8s4tQnBmi5NMDusB7bvGojPk6jrtWl10MC7OM/DJv6dYPEpQAEKUIACFDAeAQZy42kLloQCFKDABxdQQvRDZKo+GQHbuyGXzhHUvkNRptsORDj1w+HTo1GGgfyD+3OHFKAABShAAQpQIDGBVAVydcQzXA24B5viZVE0X3ZYxT2S6m/8dd0f11AaVUoVgIN1/KKoQh7jun8g4FwLleN8QBVyC/7+wcjtXAkljw6M30OejP1LZXyhsUNBfQfnd4MCFKCAmQvIgXx1KLK/ARqtvIDFjaN7yR/Aq0kDrHjpgOdZ2uoEchVC/vobDwIvIMqpKsoVywc77Sb6e8g1CH92H1cCxLm6fALXAjM3ZvUoQAEKUIACFKCAoQIGB/LgbX1Qy+MAXmV1gB2i8K5Afnx6owimaIeUB+8dAdd+f+ClTQ7YiPdDXxfG8L37MbI0IP+o2+aIFoVu4uDNT8X7EQiOBFx+PIPtXR1EXTS4NMsd7l53YJFDbP9O7N/CAqGhVd8PlUxy/3uqY1Cpg1i8LxTvGs3H87VtDDXidhSgAAVMVkA+3+5pjBm1d2HCpe9w6sAAFBG1CRPTgCp9D/w0Dhi47HNtIN+LXk79sS+LOK9nBt6EhyAqmxu8T3mjtZ323K07ZF0TAK923TDrsgb2YoM34WGwaOqFM8vckcNkxVhwClCAAhSgAAUo8PEEDAvk4RvQpuw4PO65Eyd/KC96xjV4sqgDKk23VwKzZj/6lBqA5/87iS1984v3Q7CiTTVMsPfCk5XuSiD3zoqhh7dj7BdSt/kDzG1YF7MLaINzkBfquSyA3aTo7Q3Z/z9oPHsZfnQtDGvxfw7sIf943yoeiQIUMBoBJZC74fCu/BhbaRZsPU9jfbsnmPqlKw59dQxHnSYj75zoQK5CeIQF7LJru8SDl8Ot/DTkXBgktokfyIPmNUP1deWw+dRPqCtO5epTY1Gl/Rl8c/QwxiQ1Id1ohFgQClCAAhSgAAUokH4ChgVyMe+waLeL6HHwOCaIHm/5pbvomvz+PQzwXYJvRK+K9Lq1sAO+Od5C7oWBnoWBtnYtgoFQAnnYqg4oOS4z5j9Yh07RoytTuf/0I+aRKUABCqSfwPtAHn3uFeH89/6X8NX0vFhz1QuNd4oFM98Hcm05pelAIYBDwWPo7TgM0BvIn4gh7y5Y9NlCHB5XWbvhPgytNhXW2s+nX615ZApQgAIUoAAFKGAaAoYFcjkc38GghAK5/P4J2ObKDjHqMeZVazIuervjdhKBXO88Rd1AbsD+TaM5WEoKUIACH1ZAN5CX0Y5e2i3mk1edchY7uospQtL59H0gD8HWPs3gsfcVbOyzwuKNNJ1Ig8Z6A/l1uZd98YscsLfJpFPoAui+cac8PYkvClCAAhSgAAUoQIHEBQwL5Jenwtn1NzivuIxlrtoubN3ALIYtlm5/GX3P7cHQAvELoC9wx+8hB2Zc34ye2h72WD3wBuyfXwQKUIACGVEgViAXAEFbxmPKyc8wZE53VJRO37qBfGcfOPZ7iYkB29FPXo59Ozon2EMeLqYiVcA0xxW4v6hhRqRlnSlAAQpQgAIUoECqBQwL5LiOmbXdsTCqISZ6jUR9HMeiCV7YdFO76JrmEPqX7Qm/+ouwb2FzOMqZXYWHD6NQuLCDdg557GfZ6gZyBHmjUe25UPX8DT7jqsHu7SPsG/stum3SbmPA/lMtxR1QgAIUMEGBuIE8XhV0A7l8YzUUk+VALlZPvzofrZp4o2CsHnKn99OJgsT53WX2J/Dw3YJR8nogYh55xCME/1cIjtE3U03QjEWmAAUoQAEKUIACH0vAwEAuihd8AlP7jsHG2ypYO9bD0LpPMXJhlveroKsve6Ntp7k4F/opbG2BSLGKep5uK3BlZp2kA7m0+20DUH+4j3hkmfgflrnh0rAobu7L9n4V95Tu/2OB8jgUoAAFjEkgRYFccxqja3TGqhdWsLV6C4sybqjwbAcsv1cWdUOgJ+q6euKGpoH2XB8CH4/W6LP5Ef61zgYr9Suorapj8vFN6K1ndJQxubAsFKAABShAAQpQwBgEDA/kcUqv3tgFhf5njaWPlqH1+/ek59O+QORbwNpB/3PIE0XQRODp87fIUTCnWCdd3yuV+zeGFmAZKEABChiVgPIccnX2PMgfvdp6UuWTF4FTARa2yJMvu3iyBl8UoAAFKEABClCAAskRMDCQP4HfriDkqvQFChe0hfr+UUzt2g87SnjhnHisGZ8/mxx6foYCFKAABShAAQpQgAIUoAAFMrKAgYE8HL4j26P/ltsQC/ACmaxRrO4oLF6lXSQoI4uy7hSgAAUoQAEKUIACFKAABShAgWQIGBjIk7FnfoQCFKAABShAAQpQgAIUoAAFKECBBAUYyPnloAAFKEABClCAAhSgAAUoQAEKpIMAA3k6oPOQFKAABShAAQpQgAIUoAAFKEABBnJ+ByhAAQpQgAIUoAAFKEABClCAAukgwECeDug8JAUoQAEKUIACFKAABShAAQpQgIGc3wEKUIACFKAABShAAQpQgAIUoEA6CDCQpwM6D0kBClCAAhSgAAUoQAEKUIACFGAg53eAAhSgAAUoQAEKUIACFKAABSiQDgIM5OmAzkNSgAIUoAAFKEABClCAAhSgAAUYyPkdoAAFKEABClCAAhSgAAUoQAEKpIMAA3k6oPOQFKAABShAAQpQgAIUoAAFKECBT16EhPxHBgpQgAIUoAAFKEABClCAAhSgAAU+rgB7yD+uN49GAQpQgAIUoAAFKEABClCAAhSQBRjI+UWgAAUoQAEKUIACFKAABShAAQqkgwADeTqg85AUoAAFKEABClCAAhSgAAUoQAEGcn4HKEABClCAAhSgAAUoQAEKUIAC6SDAQJ4O6DwkBShAAQpQgAIUoAAFKEABClCAgZzfAQpQgAIUoAAFKEABClCAAhSgQDoIMJCnAzoPSQEKUIACFKAABShAAQpQgAIUYCDnd4ACFKAABShAAQpQgAIUoAAFKJAOAgzk6YDOQ1KAAhSgAAUoQAEKUIACFKAABRjI+R2gAAUoQAEKUIACFKAABShAAQqkgwADeTqg85AUoAAFKEABClCAAhSgAAUoQAEGcn4HKEABClCAAhSgAAUoQAEKUIAC6SDAQJ4O6DwkBShAAQpQgAIUoAAFKEABClCAgZzfAQpQgAIUoAAFKEABClCAAhSgQDoIMJCnAzoPSQEKUMBUBR6c3IiTYWXQ3L0cchhjJR74YYMfUKtTTTilsHxhAT7Yc9XOoG0TOpTRe6XQiB+nAAUoQAEKUODDCqRRIN+LXk79cazNWtz2rPNhS8y9UYACFKBAsgVuLWiLNstfoe2SPZjqYhlnuxCs6dIEs8N6YPuugfg8GXvd2rUIBt7uh8OnR6NMMj7/0T+yrQfyDgYWPVmJ9vEOvheDy4/H4Xj/Xg+zAuai6LQ6aOBdPIFtDatJUl635jZFPc8sGH9mBwYUMOwYercK34RutWfjfK3JuOjtDqukdn3LE3UbLoT12BPY198xqU/zfQpQgAIUoAAFPpBAGgXyh9g6dgYCa0/HRFeHD1RU7oYCFKAABVIqcE0OmQ+RqfpkBGzvhlw6O1D7DkWZbjsQ4ZT8gJ1UwExp+T745xMN5NvR2XEYLtTzwIu4QoQAAA6xSURBVDj3fDqHLiT3ir9Kh0AedsobEzZZo+ec7qgY935JKnDC1nZE6XHnxB6qYubVjehmp7szyWE+Sh48jgmltf8efgZeE7cga48f0bvCByxIKurATSlAAQpQgAIZQSBVgVwd8QxXA+7BpnhZFM2XPek78ImISvu6H3AFL3OXQ7li+WAX9/eAJgJP711FwMv8qFG9aPz3E20tDcKf3ceVgGA41qiKYtljdi4d98XTezj/ICuqOJdEQQfr+HtS/Y2/rt9AkM0XcC6ZE9ZIeH/QeS93+dS7ZIQvIetIAQqknYAcyFeHIvsboNHKC1jcOPr89wBeTRpgxUsHPM/SNnaPt3zO88c1lEaVUgWge1qMCeQjUDAV51XlnH8Pr8X1o6x8/VAh5K+bOB8IVKldMdYxofNeGT3naVXILfj7ByO3cyWUPDowkR5yJZDfGrAXZ8eXioeu3LyQesgXof7Nizj/Mpe4LnwepyzazaRr0vO3yFFQuiZIZf8bDwIvIMqpaqxrWHK89Le+4nE9KCtKacvw/jpZoDqqFU3smvtEtK0LNtSZjobbxiFwyGXs6K6TyB97o1HVjairG8j1FEIV8hghDwJxPsoJ1csXRX6da2fafWO5ZwpQgAIUoEDGEjA4kAdv64NaHgfwKqsD7BCFdwXy49MbRTBFHiZ4HVO/dMWu5tKPnqyY27Aufi6xFDeXNNWGduXHgmcx6d8aIHBhR3ScHYC39tmR+U0EQi0aw1v0GrS2k348jcTzZk0RduwIImwy401oGNT5umLLqSmomcRNfOmH0JDnTeAWfgIHI7KKfYchTJ0XPTYdw0wxdFMZKvgQtvZZYfE2CqFhb1FixE4cGyH9UFOOfb9KRYRcu4lMNkB48CtYu7RD3b98dPbnBI/9hzFG6mXQBMCrXTfMuqyBvZ0oa3gYLJp64cwyd+Oca5mxvuusLQUypIAcMvc0xozauzDh0nc4dWAAigiJMNGTXOl74KdxwMBln78P5MHHJ6Jdl7W4m0U6t0cgOCobXD0PYnU7ZbSTHDAvlkFVm3u4mtLzauCPqNbod+T8MjNuXIqETeY34ryrRtFmrWH/pw9uZMoqTrQhiMzSBEvPLhPXAHHA4P0Y4j4IW1/awF6ch1+HvoaTR/R5WoNLs9zh7nUHFjlywOaduBZZWCA0tGoCw86TE8j/QeHC4noQlRmZXotrxtvi8Ni5G2OkXmO5/D5wGfAF9i09gNB3DcRxvsI+MUVrn+SVGeK8H4KobG7aa1jSXojToy9ft+47o/LfgToeNfB13cfYeUjHbOhu+H0f/6aC3EhBXqjnshctTu1DnV+qwf3Mt/jz0FC53aNHTOj+MTReGIT17RQbyP8N7O5TAj33Z0YuuVLK96DFoqNY3jJWV3uG/JtipSlAAQpQgAIfUsCwQB6+AW3KjsPjnjtx8ofyImRr8GRRB1Sabq/9EaQbyEshaF4zVBe9Dquu/ww3KUTLPxY24MudZzEzl/LfFTceg2cd0TutOYOR1TridEdf8WPjqjK80M0LBxe3gqPYVr13EEr2DECPJO7sx/xwbIbFBxaibX6xsWY/+pTqi0vfKb0j6ogIvMueXfRuSC8Njg2rjg5nOmh/mGqHNrZfDf8F9eTP+I2qjLbrnTD6zK8YVlgqq/hMMdHb0lfZn1zPdeWw+dRPqCveVp8aiyrtz+CboyKwJ2dy5odsWe6LAhSgQHQA2+OGw7vyY2ylWbD1PC0C1xP5pumhr47hqNNk5J2jDeSaQ+hftif83Nbhz/m15dFAl6Y1hdvSPO+HPSuB3MDzqhxolyDXuNP4Y2B+ce0Ix4o2FTD2Tlus8ZuFZlIPrPYzn8vBUAOffhXQ6/lwnN/cS74GBK/qgPITc8D7kQjs8rVkAewmncSWvtL+4l6L4n4FlPO6X7GaqP+F7fs3K/ddgkFVo8OqA8b7b8Zg+ZrxFEs61MKkiCFKoNWW7Z9GM7B6RjM4ifN8VjF8QB1hAbvo3uPg5XArPw05tcE2KS99gXzgxbb49ew8NJQuPOI6Urr9rygy6gS2eRSS22Rr1y/EPP7eCc7jl0P3kXZKmc9PRPmWZ9FNhPMRUiKXXtobCy1iXUdjB3KVuD5mEtdHZe55CJa4O2NSzvl4vrYN/64oQAEKUIACFPiAAoYFcjHvsGi3i7FDcay7/LEDOeQAPx25l13GMldLbXCtht0Xp8BxYXNU9i6Gpb6jUUVbsT3DamKitXThR/zhhXp/SOgXiT/XMU65tEE8/NkLRGXNg78XNBQ9SeKHq7xYUfyelJjhjNGLBenuz07u9V/02UIcHldZW6B9GFptKqy1P8w+YLtxVxSgAAWSJaD0kCvnNWj/+/f+l/DV9LxYc9ULjXeKRdCiA7l8bj+PLnv9MKWCdvfha9Cq1CRkmXcbmzpaKj3ksRZ1S8F5NVbYVvYff3+6wVDcICjeE3f7+2Dl19qe2duL0Orbk2gtwuTgPzug5LjMmP9gHTpFj5hKxhzyxAN57EXd1Bu7oNBwKMe4rdxQUG4WxOGXhvmHAA4Fj6G3Tk9zkl56eshj+eox023T+Avr+WNMpXY43UXcbBkurTOv/O89btsQMN052YFc+aAyFB8OBXCkr2h3MJAn64+OH6IABShAAQqkQMCwQC7/gLiDQbp31xML5OKOvtzLETUdQWsrY6EYwr6rufJjQf5hsfQlckjDxnUKXqDbehwYcSNNA7n68hy4tl2MmxY5xFDDd2IoZBhUBaMXN0ppIIfc47T4RQ4xrDKTbk3QfeNOjIxeOCcFjcOPUoACFEitQKzwJo8SGoDdYj551SlnxbxiMQxdOndHB3J95/Y4NyeTCpiJnldTHMiV8/BRW2U4eMyrJqb7L0CJWXpWRU9GIE96DrnOCu26JtAXyEOwtU8zeOx9BRvpOiYN747UQBkGru+GQ5wbGB86kMs96ttg82V9lLNXxEKvHsGpN1/LN8HFQIBk9ZAHbxuA+sP3I9JGTAWweCNP2dI0YiBP7d8jt6cABShAAQrEFTAskF+eCmfX3+C8Qunxll+JBnLxvtTz0iMSPx2ugJ8bnEZ37aqvYWL4Ycnp+bH+juipidc+eub7fbAecgvMrN0Y66qswyUxNFMalhe71yGlgdxRHno5zXEF7i9qyG8aBShAAaMQiNubGrRlPKac/AxDolf11g3kcpg7hvYG95AncV5NcSAXU5jKdcSlPqdwcHD8R3HJ1w8xB37G9c3oGT21+QMHcvkYYoj8UmmIvJ7yY2cfOPZ7iYkB29FPXsI+9tDvpG5g6B2yrjsCIUU95MrN7+6XG2DK4FrIFv0NfOGLWbNPo+aaQLGoX3IC+W58V2gQXoz3h09fnbUD2ENuFH/TLAQFKEABCpiXgGGBXCzaNrO2OxZGNcREr5Goj+NYNMELm25GL6SjbwijNGyuA45nK4D7RYeJnvI2yty0ILHaa+25+GSoD3aOLKnM5xar1z4M/g+F8x9Owx5ypUf7txraQK56hE2DW2HItdhzyHV7UhIfsi7mkIvh9y6zP4GH7xaM+kKZma6OeITg/wrBkevgmNdfDmtDARMRSHx4s/ZmanQPuXZ489Zys3FsRQcxZ1uF8+OaovlaR8zW3kRNPGAmcV5NcSDXwHdgZXQ+VRe/+MxHS2let3ipHj7C68KFkEt7/VD1/A0+46rB7u0j7Bv7LbptSuhZ4kpYvt5lDXYMLq7TgtZiqHlO3JNXWQe+WbUBM5sWQqanRzGq7XfYUWI+LoprVg59gVy+ARCKyXIgF0/guDofrZp4o2B69JBr10m5NSB6uHp0FZVr8soK2sVVb81BzXor8fkSf6xqaQG1xhJWlro3EpT//nuSEsjVEdcwp01zeBVgD7mJ/NmzmBSgAAUoYEICBgZyUcPgE5jadww23lbB2rEehtZ9ipELs+hd1C3aQ170bM5DtNLtWZd2tXcEXPttw8N/rWFrpUak2goukw5he68/0zCQiwC9piMajzkDla3oR/jHHm1dc2HT5eoGziGXVrsNgY9Ha/TZ/Aj/WmeDlfoV1FbVMfn4JvQuYELfChaVAhQwG4GUBXJxE/GyN9p2motzoe8UA8tC+HrJH1jgqtNTmsgc8kTPqykO5OL40U+vOB+KT6VzdeQrIE9nrLs0TdwMFtcPeWi1D15opLLmhkvDori5L5v2iR9xm1EJmr7xWldaLX0lSkmBfJsjGuW6jCPXVJAELAu3w7Ldc+Em9X7rC+Sa0xhdozNWvbAS16+3sCjjhgrPdsDy+48/ZF0tbg4UGfwc35/bg6Fxrjny9Xe+IxbdE8PxLR9g9detMfZEqKhjJrguuYvVLXUDuQZ+Y+vgq9UvYGVrhbcWpdGi/DP8bimeesJF3czm3MCKUIACFKCAcQgYHsjjlF9e+OZ/1sqwPoPqpiweoxI/Dmzz6nkOuUH7THoj+TnkEVZy74ieJ5AnvQN9n5AX91EBFrbIk8rnsxtWAG5FAQpQIDUCoqdXLHYZ+VbpOU7puTEtzqvKPkVEts6JgroPRpeqGeuZ4Kmpd8y28vE0dvGPpXf3yvVLnT2PWT2rW34OuYbXsQ/zjeJeKEABClCAAvoFDAzkT+C3Kwi5Kn2BwgVtob5/FFO79hPD+rxwbuXHe+a2PHTyoP6KRS+ow4anAAUoQAEKUIACFKAABShAAQoYo4CBgTwcviPbo/+W2xCLyQKZrFGs7igsXtUdFaMfPWOMtWWZKEABClCAAhSgAAUoQAEKUIACRiJgYCA3ktKzGBSgAAUoQAEKUIACFKAABShAARMVYCA30YZjsSlAAQpQgAIUoAAFKEABClDAtAUYyE27/Vh6ClCAAhSgAAUoQAEKUIACFDBRAQZyE204FpsCFKAABShAAQpQgAIUoAAFTFuAgdy024+lpwAFKEABClCAAhSgAAUoQAETFWAgN9GGY7EpQAEKUIACFKAABShAAQpQwLQFGMhNu/1YegpQgAIUoAAFKEABClCAAhQwUQEGchNtOBabAhSgAAUoQAEKUIACFKAABUxb4P8RrnZn7SykSwAAAABJRU5ErkJggg==;" vertex="1" parent="1">
          <mxGeometry x="590" y="460" width="568.14" height="320" as="geometry" />
        </mxCell>
        <mxCell id="nXIX7s5pYzxYk5EkUw8A-19" value="Example of extra claims added to user account in cognito" style="text;html=1;strokeColor=#d79b00;fillColor=#ffe6cc;align=center;verticalAlign=middle;whiteSpace=wrap;rounded=0;fontSize=16;" vertex="1" parent="1">
          <mxGeometry x="158.79" y="650" width="330" height="80" as="geometry" />
        </mxCell>
      </root>
    </mxGraphModel>
  </diagram>
</mxfile>
